G75*
%MOIN*%
%OFA0B0*%
%FSLAX25Y25*%
%IPPOS*%
%LPD*%
%AMOC8*
5,1,8,0,0,1.08239X$1,22.5*
%
%ADD10C,0.01200*%
%ADD11C,0.12998*%
%ADD12C,0.05715*%
%ADD13C,0.09849*%
%ADD14C,0.06306*%
%ADD15C,0.13392*%
%ADD16R,0.07400X0.07400*%
%ADD17C,0.07400*%
%ADD18C,0.08800*%
%ADD19C,0.06400*%
%ADD20C,0.05124*%
%ADD21C,0.07000*%
%ADD22C,0.10400*%
%ADD23C,0.10400*%
%ADD24OC8,0.10400*%
%ADD25C,0.06306*%
%ADD26OC8,0.06400*%
%ADD27R,0.17329X0.09455*%
%ADD28R,0.14809X0.09455*%
%ADD29C,0.05518*%
%ADD30C,0.04337*%
%ADD31C,0.04731*%
D10*
X0263403Y0078646D02*
X0264516Y0079760D01*
X0266743Y0079760D01*
X0267856Y0080873D01*
X0266743Y0081986D01*
X0263403Y0081986D01*
X0263403Y0078646D02*
X0264516Y0077533D01*
X0267856Y0077533D01*
X0270653Y0077533D02*
X0270653Y0080873D01*
X0271766Y0081986D01*
X0275106Y0081986D01*
X0275106Y0077533D01*
X0277903Y0078646D02*
X0277903Y0080873D01*
X0279017Y0081986D01*
X0281243Y0081986D01*
X0282356Y0080873D01*
X0282356Y0078646D01*
X0281243Y0077533D01*
X0279017Y0077533D01*
X0277903Y0078646D01*
X0278826Y0071986D02*
X0279940Y0070873D01*
X0279940Y0068646D01*
X0278826Y0067533D01*
X0276600Y0067533D01*
X0275486Y0068646D01*
X0275486Y0070873D01*
X0276600Y0071986D01*
X0278826Y0071986D01*
X0282642Y0071986D02*
X0283755Y0071986D01*
X0285982Y0069760D01*
X0285982Y0071986D02*
X0285982Y0067533D01*
X0291005Y0070873D02*
X0293232Y0070873D01*
X0293232Y0074213D02*
X0288779Y0074213D01*
X0289797Y0077533D02*
X0290910Y0078646D01*
X0290910Y0083100D01*
X0292023Y0081986D02*
X0289797Y0081986D01*
X0287190Y0081986D02*
X0286077Y0081986D01*
X0286077Y0077533D01*
X0287190Y0077533D02*
X0284963Y0077533D01*
X0286077Y0084213D02*
X0286077Y0085326D01*
X0294821Y0081986D02*
X0294821Y0077533D01*
X0298160Y0077533D01*
X0299274Y0078646D01*
X0299274Y0081986D01*
X0302994Y0084213D02*
X0302994Y0077533D01*
X0304107Y0077533D02*
X0301881Y0077533D01*
X0303279Y0074213D02*
X0307732Y0067533D01*
X0308018Y0077533D02*
X0306904Y0078646D01*
X0306904Y0080873D01*
X0308018Y0081986D01*
X0310244Y0081986D01*
X0311358Y0080873D01*
X0311358Y0078646D01*
X0310244Y0077533D01*
X0308018Y0077533D01*
X0314155Y0078646D02*
X0315268Y0079760D01*
X0317495Y0079760D01*
X0318608Y0080873D01*
X0317495Y0081986D01*
X0314155Y0081986D01*
X0314155Y0078646D02*
X0315268Y0077533D01*
X0318608Y0077533D01*
X0317780Y0074213D02*
X0317780Y0073100D01*
X0322233Y0068646D01*
X0322233Y0067533D01*
X0325030Y0067533D02*
X0329483Y0067533D01*
X0327257Y0067533D02*
X0327257Y0074213D01*
X0329483Y0071986D01*
X0332280Y0073100D02*
X0336734Y0068646D01*
X0335620Y0067533D01*
X0333394Y0067533D01*
X0332280Y0068646D01*
X0332280Y0073100D01*
X0333394Y0074213D01*
X0335620Y0074213D01*
X0336734Y0073100D01*
X0336734Y0068646D01*
X0339531Y0067533D02*
X0343984Y0067533D01*
X0339531Y0071986D01*
X0339531Y0073100D01*
X0340644Y0074213D01*
X0342871Y0074213D01*
X0343984Y0073100D01*
X0346781Y0074213D02*
X0351234Y0067533D01*
X0354031Y0073100D02*
X0358484Y0068646D01*
X0358484Y0067533D01*
X0361281Y0068646D02*
X0362395Y0067533D01*
X0364621Y0067533D01*
X0365735Y0068646D01*
X0361281Y0073100D01*
X0361281Y0068646D01*
X0361281Y0073100D02*
X0362395Y0074213D01*
X0364621Y0074213D01*
X0365735Y0073100D01*
X0365735Y0068646D01*
X0365735Y0077533D02*
X0365735Y0081986D01*
X0362395Y0081986D01*
X0361281Y0080873D01*
X0361281Y0077533D01*
X0358484Y0074213D02*
X0354031Y0074213D01*
X0354031Y0073100D01*
X0349008Y0077533D02*
X0350121Y0078646D01*
X0350121Y0083100D01*
X0351234Y0081986D02*
X0349008Y0081986D01*
X0346401Y0081986D02*
X0346401Y0077533D01*
X0346401Y0079760D02*
X0344174Y0081986D01*
X0343061Y0081986D01*
X0340359Y0080873D02*
X0339245Y0081986D01*
X0337019Y0081986D01*
X0335905Y0080873D01*
X0335905Y0079760D01*
X0340359Y0079760D01*
X0340359Y0080873D02*
X0340359Y0078646D01*
X0339245Y0077533D01*
X0337019Y0077533D01*
X0333108Y0078646D02*
X0333108Y0080873D01*
X0331995Y0081986D01*
X0329769Y0081986D01*
X0328655Y0080873D01*
X0328655Y0079760D01*
X0333108Y0079760D01*
X0333108Y0078646D02*
X0331995Y0077533D01*
X0329769Y0077533D01*
X0322233Y0074213D02*
X0317780Y0074213D01*
X0304107Y0084213D02*
X0302994Y0084213D01*
X0293232Y0074213D02*
X0293232Y0067533D01*
X0272689Y0067533D02*
X0272689Y0074213D01*
X0272689Y0070873D02*
X0268236Y0070873D01*
X0268236Y0074213D02*
X0268236Y0067533D01*
X0354031Y0080873D02*
X0358484Y0080873D01*
D11*
X0062083Y0042681D03*
X0424287Y0042681D03*
X0424287Y0404886D03*
X0062083Y0404886D03*
D12*
X0081768Y0255063D03*
X0091768Y0250063D03*
X0081768Y0245063D03*
X0081768Y0235063D03*
X0081768Y0225063D03*
X0091768Y0220063D03*
X0091768Y0230063D03*
X0091768Y0240063D03*
D13*
X0068776Y0268567D03*
X0068776Y0206559D03*
D14*
X0110783Y0216047D03*
X0110783Y0226047D03*
X0110783Y0249079D03*
X0110783Y0259079D03*
D15*
X0056768Y0260063D03*
X0056768Y0215063D03*
D16*
X0270335Y0410783D03*
X0333335Y0410783D03*
X0396335Y0410933D03*
X0428335Y0067933D03*
D17*
X0428335Y0077776D03*
X0386492Y0410933D03*
X0376650Y0410933D03*
X0366807Y0410933D03*
X0356965Y0410933D03*
X0323492Y0410783D03*
X0313650Y0410783D03*
X0303807Y0410783D03*
X0293965Y0410783D03*
X0260492Y0410783D03*
X0250650Y0410783D03*
X0240807Y0410783D03*
X0230965Y0410783D03*
D18*
X0239555Y0047133D02*
X0239555Y0038733D01*
X0253335Y0038733D02*
X0253335Y0047133D01*
X0267114Y0047133D02*
X0267114Y0038733D01*
X0287555Y0038733D02*
X0287555Y0047133D01*
X0301335Y0047133D02*
X0301335Y0038733D01*
X0315114Y0038733D02*
X0315114Y0047133D01*
X0335555Y0047133D02*
X0335555Y0038733D01*
X0349335Y0038733D02*
X0349335Y0047133D01*
X0363114Y0047133D02*
X0363114Y0038733D01*
X0383445Y0038733D02*
X0383445Y0047133D01*
X0397224Y0047133D02*
X0397224Y0038733D01*
X0219783Y0038733D02*
X0219783Y0047133D01*
X0206004Y0047133D02*
X0206004Y0038733D01*
X0192224Y0038733D02*
X0192224Y0047133D01*
X0178445Y0047133D02*
X0178445Y0038733D01*
X0164665Y0038733D02*
X0164665Y0047133D01*
X0150886Y0047133D02*
X0150886Y0038733D01*
X0131004Y0038733D02*
X0131004Y0047133D01*
X0117224Y0047133D02*
X0117224Y0038733D01*
X0103445Y0038733D02*
X0103445Y0047133D01*
X0089665Y0047133D02*
X0089665Y0038733D01*
D19*
X0061335Y0082933D02*
X0055335Y0082933D01*
X0055335Y0092933D02*
X0061335Y0092933D01*
X0061335Y0107933D02*
X0055335Y0107933D01*
X0055335Y0117933D02*
X0061335Y0117933D01*
X0236335Y0120933D02*
X0242335Y0120933D01*
X0242335Y0110933D02*
X0236335Y0110933D01*
X0236335Y0100933D02*
X0242335Y0100933D01*
X0242335Y0090933D02*
X0236335Y0090933D01*
X0236335Y0080933D02*
X0242335Y0080933D01*
X0242335Y0070933D02*
X0236335Y0070933D01*
X0335335Y0129433D02*
X0341335Y0129433D01*
X0357335Y0130933D02*
X0363335Y0130933D01*
X0363335Y0140933D02*
X0357335Y0140933D01*
X0341335Y0144433D02*
X0335335Y0144433D01*
X0335335Y0159433D02*
X0341335Y0159433D01*
X0341335Y0174433D02*
X0335335Y0174433D01*
X0357335Y0169933D02*
X0363335Y0169933D01*
X0363335Y0159933D02*
X0357335Y0159933D01*
X0387335Y0102433D02*
X0387335Y0096433D01*
X0417335Y0095433D02*
X0417335Y0089433D01*
X0191335Y0293933D02*
X0191335Y0299933D01*
X0181335Y0299933D02*
X0181335Y0293933D01*
X0126335Y0368933D02*
X0120335Y0368933D01*
X0120335Y0378933D02*
X0126335Y0378933D01*
X0262335Y0390933D02*
X0262335Y0396933D01*
X0272335Y0396933D02*
X0272335Y0390933D01*
X0337335Y0391933D02*
X0337335Y0397933D01*
X0347335Y0397933D02*
X0347335Y0391933D01*
X0361335Y0391933D02*
X0361335Y0397933D01*
X0371335Y0397933D02*
X0371335Y0391933D01*
X0318335Y0316933D02*
X0318335Y0310933D01*
X0308335Y0310933D02*
X0308335Y0316933D01*
D20*
X0062776Y0176280D02*
X0058051Y0176280D01*
X0058051Y0166280D02*
X0062776Y0166280D01*
X0062776Y0156280D02*
X0058051Y0156280D01*
X0058051Y0146280D02*
X0062776Y0146280D01*
D21*
X0335485Y0199933D03*
X0345335Y0199933D03*
X0355185Y0199933D03*
X0388835Y0316583D03*
X0388835Y0326433D03*
X0388835Y0336283D03*
D22*
X0373785Y0167613D02*
X0373785Y0157613D01*
X0373785Y0128253D02*
X0373785Y0118253D01*
X0432885Y0118253D02*
X0432885Y0128253D01*
X0432885Y0157613D02*
X0432885Y0167613D01*
D23*
X0294335Y0201933D03*
D24*
X0294335Y0181933D03*
D25*
X0393366Y0075043D02*
X0393366Y0069138D01*
X0413366Y0068823D02*
X0413366Y0074728D01*
D26*
X0322335Y0228933D03*
X0322335Y0238933D03*
X0322335Y0248933D03*
X0322335Y0258933D03*
X0312335Y0258933D03*
X0312335Y0248933D03*
X0312335Y0238933D03*
X0312335Y0228933D03*
X0312335Y0268933D03*
X0322335Y0268933D03*
X0322335Y0278933D03*
X0322335Y0288933D03*
X0322335Y0298933D03*
X0312335Y0298933D03*
X0312335Y0288933D03*
X0312335Y0278933D03*
X0250335Y0191933D03*
X0250335Y0181933D03*
X0240335Y0181933D03*
X0240335Y0191933D03*
X0230335Y0191933D03*
X0230335Y0181933D03*
X0220335Y0181933D03*
X0220335Y0191933D03*
X0210335Y0191933D03*
X0210335Y0181933D03*
X0200335Y0181933D03*
X0200335Y0191933D03*
X0190335Y0191933D03*
X0190335Y0181933D03*
X0180335Y0181933D03*
X0180335Y0191933D03*
D27*
X0101643Y0298933D03*
D28*
X0166372Y0298933D03*
D29*
X0149461Y0298933D03*
D30*
X0119933Y0298933D03*
D31*
X0397335Y0206933D03*
X0397335Y0196933D03*
M02*
