G75*
%MOIN*%
%OFA0B0*%
%FSLAX25Y25*%
%IPPOS*%
%LPD*%
%AMOC8*
5,1,8,0,0,1.08239X$1,22.5*
%
%ADD10C,0.01200*%
%ADD11C,0.00300*%
%ADD12C,0.05315*%
%ADD13C,0.09449*%
%ADD14C,0.05906*%
%ADD15R,0.07000X0.07000*%
%ADD16C,0.07000*%
%ADD17C,0.08400*%
%ADD18C,0.06000*%
%ADD19C,0.04724*%
%ADD20C,0.06600*%
%ADD21C,0.10000*%
%ADD22C,0.10000*%
%ADD23OC8,0.10000*%
%ADD24C,0.05906*%
%ADD25OC8,0.06000*%
%ADD26R,0.16929X0.09055*%
%ADD27R,0.14409X0.09055*%
%ADD28C,0.03543*%
%ADD29C,0.02400*%
%ADD30C,0.01600*%
%ADD31C,0.04000*%
%ADD32C,0.03200*%
%ADD33C,0.05000*%
%ADD34C,0.00500*%
%ADD35C,0.04331*%
%ADD36C,0.03346*%
D10*
X0047722Y0050757D02*
X0047722Y0160791D01*
X0079799Y0160791D01*
X0083736Y0164728D01*
X0083736Y0188350D01*
X0132949Y0188350D01*
X0132949Y0121421D01*
X0150665Y0103705D01*
X0150665Y0080083D01*
X0146728Y0076146D01*
X0146728Y0062366D01*
X0136886Y0052524D01*
X0136886Y0028320D01*
X0070038Y0028320D01*
X0072433Y0029703D01*
X0075798Y0033330D01*
X0077945Y0037788D01*
X0077945Y0037788D01*
X0078683Y0042681D01*
X0077945Y0047574D01*
X0075798Y0052032D01*
X0075798Y0052032D01*
X0072433Y0055659D01*
X0068147Y0058134D01*
X0063323Y0059235D01*
X0058389Y0058865D01*
X0058389Y0058865D01*
X0053783Y0057057D01*
X0053783Y0057057D01*
X0049914Y0053972D01*
X0049914Y0053972D01*
X0049914Y0053972D01*
X0047722Y0050757D01*
X0047722Y0050903D02*
X0047822Y0050903D01*
X0047722Y0052102D02*
X0048639Y0052102D01*
X0049456Y0053300D02*
X0047722Y0053300D01*
X0047722Y0054499D02*
X0050575Y0054499D01*
X0052078Y0055697D02*
X0047722Y0055697D01*
X0047722Y0056896D02*
X0053580Y0056896D01*
X0056426Y0058094D02*
X0047722Y0058094D01*
X0047722Y0059293D02*
X0086864Y0059293D01*
X0088062Y0058094D02*
X0068215Y0058094D01*
X0068147Y0058134D02*
X0068147Y0058134D01*
X0070291Y0056896D02*
X0089261Y0056896D01*
X0089423Y0056733D02*
X0134789Y0056733D01*
X0141204Y0063147D01*
X0141720Y0063424D01*
X0141824Y0063768D01*
X0142078Y0064022D01*
X0142078Y0064608D01*
X0143311Y0068688D01*
X0144245Y0069075D01*
X0145193Y0070023D01*
X0145706Y0071262D01*
X0145706Y0072604D01*
X0145193Y0073843D01*
X0144245Y0074791D01*
X0143005Y0075305D01*
X0141664Y0075305D01*
X0140425Y0074791D01*
X0139476Y0073843D01*
X0138963Y0072604D01*
X0138963Y0071262D01*
X0139269Y0070523D01*
X0137932Y0066098D01*
X0132967Y0061133D01*
X0091246Y0061133D01*
X0084535Y0067844D01*
X0084535Y0105365D01*
X0085193Y0106023D01*
X0085706Y0107262D01*
X0085706Y0108604D01*
X0085193Y0109843D01*
X0084245Y0110791D01*
X0083005Y0111305D01*
X0081664Y0111305D01*
X0080425Y0110791D01*
X0079476Y0109843D01*
X0078963Y0108604D01*
X0078963Y0107262D01*
X0079476Y0106023D01*
X0080135Y0105365D01*
X0080135Y0067844D01*
X0080135Y0066022D01*
X0089423Y0056733D01*
X0090335Y0058933D02*
X0133878Y0058933D01*
X0139878Y0064933D01*
X0141846Y0071445D01*
X0142335Y0071933D01*
X0143777Y0068881D02*
X0146728Y0068881D01*
X0146728Y0070079D02*
X0145216Y0070079D01*
X0145706Y0071278D02*
X0146728Y0071278D01*
X0146728Y0072477D02*
X0145706Y0072477D01*
X0145263Y0073675D02*
X0146728Y0073675D01*
X0146728Y0074874D02*
X0144046Y0074874D01*
X0146728Y0076072D02*
X0136535Y0076072D01*
X0136535Y0074874D02*
X0140623Y0074874D01*
X0139407Y0073675D02*
X0136535Y0073675D01*
X0136535Y0072477D02*
X0138963Y0072477D01*
X0138963Y0071278D02*
X0136535Y0071278D01*
X0136535Y0070079D02*
X0139135Y0070079D01*
X0138773Y0068881D02*
X0136535Y0068881D01*
X0136535Y0067682D02*
X0138411Y0067682D01*
X0138048Y0066484D02*
X0136535Y0066484D01*
X0136535Y0066022D02*
X0136535Y0102022D01*
X0140074Y0105561D01*
X0141005Y0105561D01*
X0142245Y0106075D01*
X0143193Y0107023D01*
X0143706Y0108262D01*
X0143706Y0109604D01*
X0143193Y0110843D01*
X0142245Y0111791D01*
X0141005Y0112305D01*
X0139664Y0112305D01*
X0138425Y0111791D01*
X0137476Y0110843D01*
X0136963Y0109604D01*
X0136963Y0108673D01*
X0132135Y0103844D01*
X0132135Y0067844D01*
X0131423Y0067133D01*
X0124246Y0067133D01*
X0121774Y0069605D01*
X0122193Y0070023D01*
X0122706Y0071262D01*
X0122706Y0072604D01*
X0122193Y0073843D01*
X0121245Y0074791D01*
X0120005Y0075305D01*
X0118664Y0075305D01*
X0117425Y0074791D01*
X0116476Y0073843D01*
X0115963Y0072604D01*
X0115963Y0071262D01*
X0116476Y0070023D01*
X0117135Y0069365D01*
X0117135Y0068022D01*
X0121135Y0064022D01*
X0122423Y0062733D01*
X0133246Y0062733D01*
X0135246Y0064733D01*
X0136535Y0066022D01*
X0137119Y0065285D02*
X0135798Y0065285D01*
X0135921Y0064087D02*
X0134600Y0064087D01*
X0134722Y0062888D02*
X0133401Y0062888D01*
X0133524Y0061690D02*
X0090689Y0061690D01*
X0089491Y0062888D02*
X0122268Y0062888D01*
X0121070Y0064087D02*
X0088292Y0064087D01*
X0087094Y0065285D02*
X0119871Y0065285D01*
X0118672Y0066484D02*
X0085895Y0066484D01*
X0084697Y0067682D02*
X0117474Y0067682D01*
X0117135Y0068881D02*
X0112777Y0068881D01*
X0113245Y0069075D02*
X0114193Y0070023D01*
X0114706Y0071262D01*
X0114706Y0072604D01*
X0114193Y0073843D01*
X0113535Y0074501D01*
X0113535Y0134029D01*
X0114664Y0133561D01*
X0116005Y0133561D01*
X0117245Y0134075D01*
X0118193Y0135023D01*
X0118706Y0136262D01*
X0118706Y0137604D01*
X0118193Y0138843D01*
X0117632Y0139404D01*
X0117632Y0147287D01*
X0118872Y0146047D01*
X0125135Y0139089D01*
X0125135Y0074501D01*
X0124476Y0073843D01*
X0123963Y0072604D01*
X0123963Y0071262D01*
X0124476Y0070023D01*
X0125425Y0069075D01*
X0126664Y0068561D01*
X0128005Y0068561D01*
X0129245Y0069075D01*
X0130193Y0070023D01*
X0130706Y0071262D01*
X0130706Y0072604D01*
X0130193Y0073843D01*
X0129535Y0074501D01*
X0129535Y0139875D01*
X0129579Y0140727D01*
X0129535Y0140777D01*
X0129535Y0140844D01*
X0128931Y0141448D01*
X0122669Y0148406D01*
X0122669Y0148473D01*
X0122065Y0149076D01*
X0121495Y0149711D01*
X0121428Y0149714D01*
X0110297Y0160844D01*
X0109009Y0162133D01*
X0083423Y0162133D01*
X0082135Y0160844D01*
X0079595Y0158305D01*
X0078664Y0158305D01*
X0077425Y0157791D01*
X0076476Y0156843D01*
X0075963Y0155604D01*
X0075963Y0154262D01*
X0076476Y0153023D01*
X0077366Y0152133D01*
X0073423Y0152133D01*
X0072135Y0150844D01*
X0069135Y0147844D01*
X0069135Y0111844D01*
X0067423Y0110133D01*
X0065402Y0110133D01*
X0065234Y0110539D01*
X0063940Y0111833D01*
X0062250Y0112533D01*
X0054420Y0112533D01*
X0052729Y0111833D01*
X0051435Y0110539D01*
X0050735Y0108848D01*
X0050735Y0107018D01*
X0051435Y0105327D01*
X0052729Y0104033D01*
X0054420Y0103333D01*
X0062250Y0103333D01*
X0063940Y0104033D01*
X0065234Y0105327D01*
X0065402Y0105733D01*
X0069246Y0105733D01*
X0072246Y0108733D01*
X0073535Y0110022D01*
X0073535Y0146022D01*
X0075246Y0147733D01*
X0077366Y0147733D01*
X0076476Y0146843D01*
X0075963Y0145604D01*
X0075963Y0144262D01*
X0076476Y0143023D01*
X0077425Y0142075D01*
X0077767Y0141933D01*
X0077425Y0141791D01*
X0076476Y0140843D01*
X0075963Y0139604D01*
X0075963Y0138673D01*
X0074135Y0136844D01*
X0074135Y0097844D01*
X0063362Y0087072D01*
X0062250Y0087533D01*
X0054420Y0087533D01*
X0052729Y0086833D01*
X0051435Y0085539D01*
X0050735Y0083848D01*
X0050735Y0082018D01*
X0051435Y0080327D01*
X0052729Y0079033D01*
X0054420Y0078333D01*
X0062250Y0078333D01*
X0063940Y0079033D01*
X0065234Y0080327D01*
X0065935Y0082018D01*
X0065935Y0083422D01*
X0078535Y0096022D01*
X0078535Y0135022D01*
X0079074Y0135561D01*
X0080005Y0135561D01*
X0081245Y0136075D01*
X0082193Y0137023D01*
X0082706Y0138262D01*
X0082706Y0139604D01*
X0082193Y0140843D01*
X0081245Y0141791D01*
X0080903Y0141933D01*
X0081245Y0142075D01*
X0081903Y0142733D01*
X0090304Y0142733D01*
X0094135Y0138137D01*
X0094135Y0073018D01*
X0093963Y0072604D01*
X0093963Y0071262D01*
X0094476Y0070023D01*
X0095425Y0069075D01*
X0096664Y0068561D01*
X0098005Y0068561D01*
X0099245Y0069075D01*
X0100193Y0070023D01*
X0100706Y0071262D01*
X0100706Y0072604D01*
X0100193Y0073843D01*
X0099245Y0074791D01*
X0098535Y0075085D01*
X0098535Y0138833D01*
X0098608Y0139641D01*
X0098535Y0139730D01*
X0098535Y0139844D01*
X0097961Y0140418D01*
X0093535Y0145730D01*
X0093535Y0145844D01*
X0092961Y0146418D01*
X0092441Y0147042D01*
X0092327Y0147052D01*
X0092246Y0147133D01*
X0091434Y0147133D01*
X0090626Y0147207D01*
X0090538Y0147133D01*
X0081903Y0147133D01*
X0081303Y0147733D01*
X0098963Y0147733D01*
X0098963Y0147262D01*
X0099476Y0146023D01*
X0100425Y0145075D01*
X0101664Y0144561D01*
X0103005Y0144561D01*
X0104245Y0145075D01*
X0104903Y0145733D01*
X0105423Y0145733D01*
X0109135Y0142022D01*
X0109135Y0074501D01*
X0108476Y0073843D01*
X0107963Y0072604D01*
X0107963Y0071262D01*
X0108476Y0070023D01*
X0109425Y0069075D01*
X0110664Y0068561D01*
X0112005Y0068561D01*
X0113245Y0069075D01*
X0114216Y0070079D02*
X0116453Y0070079D01*
X0115963Y0071278D02*
X0114706Y0071278D01*
X0114706Y0072477D02*
X0115963Y0072477D01*
X0116407Y0073675D02*
X0114263Y0073675D01*
X0113535Y0074874D02*
X0117623Y0074874D01*
X0119335Y0071933D02*
X0119335Y0068933D01*
X0123335Y0064933D01*
X0132335Y0064933D01*
X0134335Y0066933D01*
X0134335Y0102933D01*
X0140335Y0108933D01*
X0141675Y0112027D02*
X0142343Y0112027D01*
X0143199Y0110829D02*
X0143541Y0110829D01*
X0143695Y0109630D02*
X0144740Y0109630D01*
X0143706Y0108432D02*
X0145938Y0108432D01*
X0147137Y0107233D02*
X0143280Y0107233D01*
X0142148Y0106035D02*
X0148335Y0106035D01*
X0149534Y0104836D02*
X0139349Y0104836D01*
X0138151Y0103638D02*
X0150665Y0103638D01*
X0150665Y0102439D02*
X0136952Y0102439D01*
X0136535Y0101241D02*
X0150665Y0101241D01*
X0150665Y0100042D02*
X0136535Y0100042D01*
X0136535Y0098844D02*
X0150665Y0098844D01*
X0150665Y0097645D02*
X0136535Y0097645D01*
X0136535Y0096447D02*
X0150665Y0096447D01*
X0150665Y0095248D02*
X0136535Y0095248D01*
X0136535Y0094050D02*
X0150665Y0094050D01*
X0150665Y0092851D02*
X0136535Y0092851D01*
X0136535Y0091653D02*
X0150665Y0091653D01*
X0150665Y0090454D02*
X0136535Y0090454D01*
X0136535Y0089256D02*
X0150665Y0089256D01*
X0150665Y0088057D02*
X0136535Y0088057D01*
X0136535Y0086859D02*
X0150665Y0086859D01*
X0150665Y0085660D02*
X0136535Y0085660D01*
X0136535Y0084462D02*
X0150665Y0084462D01*
X0150665Y0083263D02*
X0136535Y0083263D01*
X0136535Y0082065D02*
X0150665Y0082065D01*
X0150665Y0080866D02*
X0136535Y0080866D01*
X0136535Y0079668D02*
X0150250Y0079668D01*
X0149052Y0078469D02*
X0136535Y0078469D01*
X0136535Y0077271D02*
X0147853Y0077271D01*
X0146728Y0067682D02*
X0143007Y0067682D01*
X0142645Y0066484D02*
X0146728Y0066484D01*
X0146728Y0065285D02*
X0142283Y0065285D01*
X0142078Y0064087D02*
X0146728Y0064087D01*
X0146728Y0062888D02*
X0140945Y0062888D01*
X0139746Y0061690D02*
X0146052Y0061690D01*
X0144854Y0060491D02*
X0138548Y0060491D01*
X0137349Y0059293D02*
X0143655Y0059293D01*
X0142457Y0058094D02*
X0136151Y0058094D01*
X0134952Y0056896D02*
X0141258Y0056896D01*
X0140060Y0055697D02*
X0072367Y0055697D01*
X0072433Y0055659D02*
X0072433Y0055659D01*
X0073510Y0054499D02*
X0138861Y0054499D01*
X0137663Y0053300D02*
X0074622Y0053300D01*
X0075734Y0052102D02*
X0086505Y0052102D01*
X0086380Y0052050D02*
X0084748Y0050419D01*
X0083865Y0048287D01*
X0083865Y0037579D01*
X0084748Y0035448D01*
X0086380Y0033816D01*
X0088512Y0032933D01*
X0090819Y0032933D01*
X0092951Y0033816D01*
X0094582Y0035448D01*
X0095465Y0037579D01*
X0095465Y0048287D01*
X0094582Y0050419D01*
X0092951Y0052050D01*
X0090819Y0052933D01*
X0088512Y0052933D01*
X0086380Y0052050D01*
X0085233Y0050903D02*
X0076342Y0050903D01*
X0076919Y0049705D02*
X0084453Y0049705D01*
X0083956Y0048506D02*
X0077496Y0048506D01*
X0077945Y0047574D02*
X0077945Y0047574D01*
X0077985Y0047308D02*
X0083865Y0047308D01*
X0083865Y0046109D02*
X0078166Y0046109D01*
X0078347Y0044911D02*
X0083865Y0044911D01*
X0083865Y0043712D02*
X0078527Y0043712D01*
X0078657Y0042514D02*
X0083865Y0042514D01*
X0083865Y0041315D02*
X0078477Y0041315D01*
X0078296Y0040117D02*
X0083865Y0040117D01*
X0083865Y0038918D02*
X0078115Y0038918D01*
X0077912Y0037720D02*
X0083865Y0037720D01*
X0084304Y0036521D02*
X0077335Y0036521D01*
X0076758Y0035323D02*
X0084873Y0035323D01*
X0086072Y0034124D02*
X0076181Y0034124D01*
X0075798Y0033330D02*
X0075798Y0033330D01*
X0075423Y0032926D02*
X0136886Y0032926D01*
X0136886Y0034124D02*
X0134597Y0034124D01*
X0134289Y0033816D02*
X0135921Y0035448D01*
X0136804Y0037579D01*
X0136804Y0048287D01*
X0135921Y0050419D01*
X0134289Y0052050D01*
X0132158Y0052933D01*
X0129850Y0052933D01*
X0127718Y0052050D01*
X0126087Y0050419D01*
X0125204Y0048287D01*
X0125204Y0037579D01*
X0126087Y0035448D01*
X0127718Y0033816D01*
X0129850Y0032933D01*
X0132158Y0032933D01*
X0134289Y0033816D01*
X0135796Y0035323D02*
X0136886Y0035323D01*
X0136886Y0036521D02*
X0136366Y0036521D01*
X0136804Y0037720D02*
X0136886Y0037720D01*
X0136886Y0038918D02*
X0136804Y0038918D01*
X0136804Y0040117D02*
X0136886Y0040117D01*
X0136886Y0041315D02*
X0136804Y0041315D01*
X0136804Y0042514D02*
X0136886Y0042514D01*
X0136886Y0043712D02*
X0136804Y0043712D01*
X0136804Y0044911D02*
X0136886Y0044911D01*
X0136886Y0046109D02*
X0136804Y0046109D01*
X0136804Y0047308D02*
X0136886Y0047308D01*
X0136886Y0048506D02*
X0136713Y0048506D01*
X0136886Y0049705D02*
X0136217Y0049705D01*
X0136886Y0050903D02*
X0135436Y0050903D01*
X0134164Y0052102D02*
X0136886Y0052102D01*
X0127843Y0052102D02*
X0120385Y0052102D01*
X0120510Y0052050D02*
X0118378Y0052933D01*
X0116071Y0052933D01*
X0113939Y0052050D01*
X0112307Y0050419D01*
X0111424Y0048287D01*
X0111424Y0037579D01*
X0112307Y0035448D01*
X0113939Y0033816D01*
X0116071Y0032933D01*
X0118378Y0032933D01*
X0120510Y0033816D01*
X0122141Y0035448D01*
X0123024Y0037579D01*
X0123024Y0048287D01*
X0122141Y0050419D01*
X0120510Y0052050D01*
X0121657Y0050903D02*
X0126572Y0050903D01*
X0125791Y0049705D02*
X0122437Y0049705D01*
X0122933Y0048506D02*
X0125295Y0048506D01*
X0125204Y0047308D02*
X0123024Y0047308D01*
X0123024Y0046109D02*
X0125204Y0046109D01*
X0125204Y0044911D02*
X0123024Y0044911D01*
X0123024Y0043712D02*
X0125204Y0043712D01*
X0125204Y0042514D02*
X0123024Y0042514D01*
X0123024Y0041315D02*
X0125204Y0041315D01*
X0125204Y0040117D02*
X0123024Y0040117D01*
X0123024Y0038918D02*
X0125204Y0038918D01*
X0125204Y0037720D02*
X0123024Y0037720D01*
X0122586Y0036521D02*
X0125642Y0036521D01*
X0126212Y0035323D02*
X0122016Y0035323D01*
X0120818Y0034124D02*
X0127410Y0034124D01*
X0136886Y0031727D02*
X0074311Y0031727D01*
X0073199Y0030529D02*
X0136886Y0030529D01*
X0136886Y0029330D02*
X0071787Y0029330D01*
X0072433Y0029703D02*
X0072433Y0029703D01*
X0093259Y0034124D02*
X0099851Y0034124D01*
X0100159Y0033816D02*
X0102291Y0032933D01*
X0104599Y0032933D01*
X0106730Y0033816D01*
X0108362Y0035448D01*
X0109245Y0037579D01*
X0109245Y0048287D01*
X0108362Y0050419D01*
X0106730Y0052050D01*
X0104599Y0052933D01*
X0102291Y0052933D01*
X0100159Y0052050D01*
X0098528Y0050419D01*
X0097645Y0048287D01*
X0097645Y0037579D01*
X0098528Y0035448D01*
X0100159Y0033816D01*
X0098653Y0035323D02*
X0094457Y0035323D01*
X0095027Y0036521D02*
X0098083Y0036521D01*
X0097645Y0037720D02*
X0095465Y0037720D01*
X0095465Y0038918D02*
X0097645Y0038918D01*
X0097645Y0040117D02*
X0095465Y0040117D01*
X0095465Y0041315D02*
X0097645Y0041315D01*
X0097645Y0042514D02*
X0095465Y0042514D01*
X0095465Y0043712D02*
X0097645Y0043712D01*
X0097645Y0044911D02*
X0095465Y0044911D01*
X0095465Y0046109D02*
X0097645Y0046109D01*
X0097645Y0047308D02*
X0095465Y0047308D01*
X0095374Y0048506D02*
X0097736Y0048506D01*
X0098232Y0049705D02*
X0094878Y0049705D01*
X0094098Y0050903D02*
X0099013Y0050903D01*
X0100284Y0052102D02*
X0092826Y0052102D01*
X0090335Y0058933D02*
X0082335Y0066933D01*
X0082335Y0107933D01*
X0085281Y0109630D02*
X0094135Y0109630D01*
X0094135Y0108432D02*
X0085706Y0108432D01*
X0085694Y0107233D02*
X0094135Y0107233D01*
X0094135Y0106035D02*
X0085198Y0106035D01*
X0084535Y0104836D02*
X0094135Y0104836D01*
X0094135Y0103638D02*
X0084535Y0103638D01*
X0084535Y0102439D02*
X0094135Y0102439D01*
X0094135Y0101241D02*
X0084535Y0101241D01*
X0084535Y0100042D02*
X0094135Y0100042D01*
X0094135Y0098844D02*
X0084535Y0098844D01*
X0084535Y0097645D02*
X0094135Y0097645D01*
X0094135Y0096447D02*
X0084535Y0096447D01*
X0084535Y0095248D02*
X0094135Y0095248D01*
X0094135Y0094050D02*
X0084535Y0094050D01*
X0084535Y0092851D02*
X0094135Y0092851D01*
X0094135Y0091653D02*
X0084535Y0091653D01*
X0084535Y0090454D02*
X0094135Y0090454D01*
X0094135Y0089256D02*
X0084535Y0089256D01*
X0084535Y0088057D02*
X0094135Y0088057D01*
X0094135Y0086859D02*
X0084535Y0086859D01*
X0084535Y0085660D02*
X0094135Y0085660D01*
X0094135Y0084462D02*
X0084535Y0084462D01*
X0084535Y0083263D02*
X0094135Y0083263D01*
X0094135Y0082065D02*
X0084535Y0082065D01*
X0084535Y0080866D02*
X0094135Y0080866D01*
X0094135Y0079668D02*
X0084535Y0079668D01*
X0084535Y0078469D02*
X0094135Y0078469D01*
X0094135Y0077271D02*
X0084535Y0077271D01*
X0084535Y0076072D02*
X0094135Y0076072D01*
X0094135Y0074874D02*
X0084535Y0074874D01*
X0084535Y0073675D02*
X0094135Y0073675D01*
X0093963Y0072477D02*
X0084535Y0072477D01*
X0084535Y0071278D02*
X0093963Y0071278D01*
X0094453Y0070079D02*
X0084535Y0070079D01*
X0084535Y0068881D02*
X0095893Y0068881D01*
X0098777Y0068881D02*
X0109893Y0068881D01*
X0108453Y0070079D02*
X0100216Y0070079D01*
X0100706Y0071278D02*
X0107963Y0071278D01*
X0107963Y0072477D02*
X0100706Y0072477D01*
X0100263Y0073675D02*
X0108407Y0073675D01*
X0109135Y0074874D02*
X0099046Y0074874D01*
X0098535Y0076072D02*
X0109135Y0076072D01*
X0109135Y0077271D02*
X0098535Y0077271D01*
X0098535Y0078469D02*
X0109135Y0078469D01*
X0109135Y0079668D02*
X0098535Y0079668D01*
X0098535Y0080866D02*
X0109135Y0080866D01*
X0109135Y0082065D02*
X0098535Y0082065D01*
X0098535Y0083263D02*
X0109135Y0083263D01*
X0109135Y0084462D02*
X0098535Y0084462D01*
X0098535Y0085660D02*
X0109135Y0085660D01*
X0109135Y0086859D02*
X0098535Y0086859D01*
X0098535Y0088057D02*
X0109135Y0088057D01*
X0109135Y0089256D02*
X0098535Y0089256D01*
X0098535Y0090454D02*
X0109135Y0090454D01*
X0109135Y0091653D02*
X0098535Y0091653D01*
X0098535Y0092851D02*
X0109135Y0092851D01*
X0109135Y0094050D02*
X0098535Y0094050D01*
X0098535Y0095248D02*
X0109135Y0095248D01*
X0109135Y0096447D02*
X0098535Y0096447D01*
X0098535Y0097645D02*
X0109135Y0097645D01*
X0109135Y0098844D02*
X0098535Y0098844D01*
X0098535Y0100042D02*
X0109135Y0100042D01*
X0109135Y0101241D02*
X0098535Y0101241D01*
X0098535Y0102439D02*
X0109135Y0102439D01*
X0109135Y0103638D02*
X0098535Y0103638D01*
X0098535Y0104836D02*
X0109135Y0104836D01*
X0109135Y0106035D02*
X0098535Y0106035D01*
X0098535Y0107233D02*
X0109135Y0107233D01*
X0109135Y0108432D02*
X0098535Y0108432D01*
X0098535Y0109630D02*
X0109135Y0109630D01*
X0109135Y0110829D02*
X0098535Y0110829D01*
X0098535Y0112027D02*
X0109135Y0112027D01*
X0109135Y0113226D02*
X0098535Y0113226D01*
X0098535Y0114424D02*
X0109135Y0114424D01*
X0109135Y0115623D02*
X0098535Y0115623D01*
X0098535Y0116821D02*
X0109135Y0116821D01*
X0109135Y0118020D02*
X0098535Y0118020D01*
X0098535Y0119218D02*
X0109135Y0119218D01*
X0109135Y0120417D02*
X0098535Y0120417D01*
X0098535Y0121615D02*
X0109135Y0121615D01*
X0109135Y0122814D02*
X0098535Y0122814D01*
X0098535Y0124012D02*
X0109135Y0124012D01*
X0109135Y0125211D02*
X0098535Y0125211D01*
X0098535Y0126410D02*
X0109135Y0126410D01*
X0109135Y0127608D02*
X0098535Y0127608D01*
X0098535Y0128807D02*
X0109135Y0128807D01*
X0109135Y0130005D02*
X0098535Y0130005D01*
X0098535Y0131204D02*
X0109135Y0131204D01*
X0109135Y0132402D02*
X0098535Y0132402D01*
X0098535Y0133601D02*
X0109135Y0133601D01*
X0109135Y0134799D02*
X0098535Y0134799D01*
X0098535Y0135998D02*
X0109135Y0135998D01*
X0109135Y0137196D02*
X0098535Y0137196D01*
X0098535Y0138395D02*
X0109135Y0138395D01*
X0109135Y0139593D02*
X0098604Y0139593D01*
X0097650Y0140792D02*
X0109135Y0140792D01*
X0109135Y0141990D02*
X0096651Y0141990D01*
X0095652Y0143189D02*
X0107968Y0143189D01*
X0106769Y0144387D02*
X0094653Y0144387D01*
X0093655Y0145586D02*
X0099914Y0145586D01*
X0099161Y0146784D02*
X0092656Y0146784D01*
X0091335Y0144933D02*
X0096335Y0138933D01*
X0096335Y0072933D01*
X0097335Y0071933D01*
X0111335Y0071933D02*
X0111335Y0142933D01*
X0106335Y0147933D01*
X0102335Y0147933D01*
X0100335Y0149933D01*
X0074335Y0149933D01*
X0071335Y0146933D01*
X0071335Y0110933D01*
X0068335Y0107933D01*
X0058335Y0107933D01*
X0062985Y0103638D02*
X0074135Y0103638D01*
X0074135Y0104836D02*
X0064743Y0104836D01*
X0069548Y0106035D02*
X0074135Y0106035D01*
X0074135Y0107233D02*
X0070746Y0107233D01*
X0071945Y0108432D02*
X0074135Y0108432D01*
X0074135Y0109630D02*
X0073143Y0109630D01*
X0073535Y0110829D02*
X0074135Y0110829D01*
X0074135Y0112027D02*
X0073535Y0112027D01*
X0073535Y0113226D02*
X0074135Y0113226D01*
X0074135Y0114424D02*
X0073535Y0114424D01*
X0073535Y0115623D02*
X0074135Y0115623D01*
X0074135Y0116821D02*
X0073535Y0116821D01*
X0073535Y0118020D02*
X0074135Y0118020D01*
X0074135Y0119218D02*
X0073535Y0119218D01*
X0073535Y0120417D02*
X0074135Y0120417D01*
X0074135Y0121615D02*
X0073535Y0121615D01*
X0073535Y0122814D02*
X0074135Y0122814D01*
X0074135Y0124012D02*
X0073535Y0124012D01*
X0073535Y0125211D02*
X0074135Y0125211D01*
X0074135Y0126410D02*
X0073535Y0126410D01*
X0073535Y0127608D02*
X0074135Y0127608D01*
X0074135Y0128807D02*
X0073535Y0128807D01*
X0073535Y0130005D02*
X0074135Y0130005D01*
X0074135Y0131204D02*
X0073535Y0131204D01*
X0073535Y0132402D02*
X0074135Y0132402D01*
X0074135Y0133601D02*
X0073535Y0133601D01*
X0073535Y0134799D02*
X0074135Y0134799D01*
X0074135Y0135998D02*
X0073535Y0135998D01*
X0073535Y0137196D02*
X0074486Y0137196D01*
X0073535Y0138395D02*
X0075685Y0138395D01*
X0075963Y0139593D02*
X0073535Y0139593D01*
X0073535Y0140792D02*
X0076455Y0140792D01*
X0077629Y0141990D02*
X0073535Y0141990D01*
X0073535Y0143189D02*
X0076408Y0143189D01*
X0075963Y0144387D02*
X0073535Y0144387D01*
X0073535Y0145586D02*
X0075963Y0145586D01*
X0076452Y0146784D02*
X0074297Y0146784D01*
X0071670Y0150380D02*
X0047722Y0150380D01*
X0047722Y0151578D02*
X0072869Y0151578D01*
X0070472Y0149181D02*
X0065477Y0149181D01*
X0065020Y0149639D02*
X0063564Y0150242D01*
X0057263Y0150242D01*
X0055807Y0149639D01*
X0054692Y0148524D01*
X0054089Y0147068D01*
X0054089Y0145491D01*
X0054692Y0144035D01*
X0055807Y0142921D01*
X0057263Y0142317D01*
X0063564Y0142317D01*
X0065020Y0142921D01*
X0066135Y0144035D01*
X0066738Y0145491D01*
X0066738Y0147068D01*
X0066135Y0148524D01*
X0065020Y0149639D01*
X0066359Y0147983D02*
X0069273Y0147983D01*
X0069135Y0146784D02*
X0066738Y0146784D01*
X0066738Y0145586D02*
X0069135Y0145586D01*
X0069135Y0144387D02*
X0066280Y0144387D01*
X0065288Y0143189D02*
X0069135Y0143189D01*
X0069135Y0141990D02*
X0047722Y0141990D01*
X0047722Y0140792D02*
X0069135Y0140792D01*
X0069135Y0139593D02*
X0047722Y0139593D01*
X0047722Y0138395D02*
X0069135Y0138395D01*
X0069135Y0137196D02*
X0047722Y0137196D01*
X0047722Y0135998D02*
X0069135Y0135998D01*
X0069135Y0134799D02*
X0047722Y0134799D01*
X0047722Y0133601D02*
X0069135Y0133601D01*
X0069135Y0132402D02*
X0047722Y0132402D01*
X0047722Y0131204D02*
X0069135Y0131204D01*
X0069135Y0130005D02*
X0047722Y0130005D01*
X0047722Y0128807D02*
X0069135Y0128807D01*
X0069135Y0127608D02*
X0047722Y0127608D01*
X0047722Y0126410D02*
X0069135Y0126410D01*
X0069135Y0125211D02*
X0047722Y0125211D01*
X0047722Y0124012D02*
X0069135Y0124012D01*
X0069135Y0122814D02*
X0047722Y0122814D01*
X0047722Y0121615D02*
X0052512Y0121615D01*
X0052729Y0121833D02*
X0051435Y0120539D01*
X0050735Y0118848D01*
X0050735Y0117018D01*
X0051435Y0115327D01*
X0052729Y0114033D01*
X0054420Y0113333D01*
X0062250Y0113333D01*
X0063940Y0114033D01*
X0065234Y0115327D01*
X0065935Y0117018D01*
X0065935Y0118848D01*
X0065234Y0120539D01*
X0063940Y0121833D01*
X0062250Y0122533D01*
X0054420Y0122533D01*
X0052729Y0121833D01*
X0051385Y0120417D02*
X0047722Y0120417D01*
X0047722Y0119218D02*
X0050888Y0119218D01*
X0050735Y0118020D02*
X0047722Y0118020D01*
X0047722Y0116821D02*
X0050816Y0116821D01*
X0051313Y0115623D02*
X0047722Y0115623D01*
X0047722Y0114424D02*
X0052338Y0114424D01*
X0053199Y0112027D02*
X0047722Y0112027D01*
X0047722Y0110829D02*
X0051725Y0110829D01*
X0051059Y0109630D02*
X0047722Y0109630D01*
X0047722Y0108432D02*
X0050735Y0108432D01*
X0050735Y0107233D02*
X0047722Y0107233D01*
X0047722Y0106035D02*
X0051142Y0106035D01*
X0051926Y0104836D02*
X0047722Y0104836D01*
X0047722Y0103638D02*
X0053684Y0103638D01*
X0054420Y0097533D02*
X0052729Y0096833D01*
X0051435Y0095539D01*
X0050735Y0093848D01*
X0050735Y0092018D01*
X0051435Y0090327D01*
X0052729Y0089033D01*
X0054420Y0088333D01*
X0062250Y0088333D01*
X0063940Y0089033D01*
X0065234Y0090327D01*
X0065935Y0092018D01*
X0065935Y0093848D01*
X0065234Y0095539D01*
X0063940Y0096833D01*
X0062250Y0097533D01*
X0054420Y0097533D01*
X0052343Y0096447D02*
X0047722Y0096447D01*
X0047722Y0097645D02*
X0073936Y0097645D01*
X0074135Y0098844D02*
X0047722Y0098844D01*
X0047722Y0100042D02*
X0074135Y0100042D01*
X0074135Y0101241D02*
X0047722Y0101241D01*
X0047722Y0102439D02*
X0074135Y0102439D01*
X0078535Y0102439D02*
X0080135Y0102439D01*
X0080135Y0101241D02*
X0078535Y0101241D01*
X0078535Y0100042D02*
X0080135Y0100042D01*
X0080135Y0098844D02*
X0078535Y0098844D01*
X0078535Y0097645D02*
X0080135Y0097645D01*
X0080135Y0096447D02*
X0078535Y0096447D01*
X0077761Y0095248D02*
X0080135Y0095248D01*
X0080135Y0094050D02*
X0076563Y0094050D01*
X0075364Y0092851D02*
X0080135Y0092851D01*
X0080135Y0091653D02*
X0074166Y0091653D01*
X0072967Y0090454D02*
X0080135Y0090454D01*
X0080135Y0089256D02*
X0071769Y0089256D01*
X0070570Y0088057D02*
X0080135Y0088057D01*
X0080135Y0086859D02*
X0069371Y0086859D01*
X0068173Y0085660D02*
X0080135Y0085660D01*
X0080135Y0084462D02*
X0066974Y0084462D01*
X0065935Y0083263D02*
X0080135Y0083263D01*
X0080135Y0082065D02*
X0065935Y0082065D01*
X0065457Y0080866D02*
X0080135Y0080866D01*
X0080135Y0079668D02*
X0064575Y0079668D01*
X0062578Y0078469D02*
X0080135Y0078469D01*
X0080135Y0077271D02*
X0047722Y0077271D01*
X0047722Y0078469D02*
X0054091Y0078469D01*
X0052095Y0079668D02*
X0047722Y0079668D01*
X0047722Y0080866D02*
X0051212Y0080866D01*
X0050735Y0082065D02*
X0047722Y0082065D01*
X0047722Y0083263D02*
X0050735Y0083263D01*
X0050989Y0084462D02*
X0047722Y0084462D01*
X0047722Y0085660D02*
X0051556Y0085660D01*
X0052791Y0086859D02*
X0047722Y0086859D01*
X0047722Y0088057D02*
X0064347Y0088057D01*
X0064163Y0089256D02*
X0065546Y0089256D01*
X0065287Y0090454D02*
X0066744Y0090454D01*
X0065783Y0091653D02*
X0067943Y0091653D01*
X0069142Y0092851D02*
X0065935Y0092851D01*
X0065851Y0094050D02*
X0070340Y0094050D01*
X0071539Y0095248D02*
X0065355Y0095248D01*
X0064326Y0096447D02*
X0072737Y0096447D01*
X0076335Y0096933D02*
X0062335Y0082933D01*
X0058335Y0082933D01*
X0052507Y0089256D02*
X0047722Y0089256D01*
X0047722Y0090454D02*
X0051382Y0090454D01*
X0050886Y0091653D02*
X0047722Y0091653D01*
X0047722Y0092851D02*
X0050735Y0092851D01*
X0050818Y0094050D02*
X0047722Y0094050D01*
X0047722Y0095248D02*
X0051315Y0095248D01*
X0064944Y0110829D02*
X0068119Y0110829D01*
X0069135Y0112027D02*
X0063470Y0112027D01*
X0064331Y0114424D02*
X0069135Y0114424D01*
X0069135Y0113226D02*
X0047722Y0113226D01*
X0065357Y0115623D02*
X0069135Y0115623D01*
X0069135Y0116821D02*
X0065853Y0116821D01*
X0065935Y0118020D02*
X0069135Y0118020D01*
X0069135Y0119218D02*
X0065781Y0119218D01*
X0065285Y0120417D02*
X0069135Y0120417D01*
X0069135Y0121615D02*
X0064158Y0121615D01*
X0078535Y0121615D02*
X0094135Y0121615D01*
X0094135Y0120417D02*
X0078535Y0120417D01*
X0078535Y0119218D02*
X0094135Y0119218D01*
X0094135Y0118020D02*
X0078535Y0118020D01*
X0078535Y0116821D02*
X0094135Y0116821D01*
X0094135Y0115623D02*
X0078535Y0115623D01*
X0078535Y0114424D02*
X0094135Y0114424D01*
X0094135Y0113226D02*
X0078535Y0113226D01*
X0078535Y0112027D02*
X0094135Y0112027D01*
X0094135Y0110829D02*
X0084154Y0110829D01*
X0080515Y0110829D02*
X0078535Y0110829D01*
X0078535Y0109630D02*
X0079388Y0109630D01*
X0078963Y0108432D02*
X0078535Y0108432D01*
X0078535Y0107233D02*
X0078975Y0107233D01*
X0078535Y0106035D02*
X0079471Y0106035D01*
X0080135Y0104836D02*
X0078535Y0104836D01*
X0078535Y0103638D02*
X0080135Y0103638D01*
X0076335Y0096933D02*
X0076335Y0135933D01*
X0079335Y0138933D01*
X0081058Y0135998D02*
X0094135Y0135998D01*
X0094135Y0137196D02*
X0082265Y0137196D01*
X0082706Y0138395D02*
X0093920Y0138395D01*
X0092921Y0139593D02*
X0082706Y0139593D01*
X0082214Y0140792D02*
X0091922Y0140792D01*
X0090923Y0141990D02*
X0081040Y0141990D01*
X0079335Y0144933D02*
X0091335Y0144933D01*
X0094135Y0134799D02*
X0078535Y0134799D01*
X0078535Y0133601D02*
X0094135Y0133601D01*
X0094135Y0132402D02*
X0078535Y0132402D01*
X0078535Y0131204D02*
X0094135Y0131204D01*
X0094135Y0130005D02*
X0078535Y0130005D01*
X0078535Y0128807D02*
X0094135Y0128807D01*
X0094135Y0127608D02*
X0078535Y0127608D01*
X0078535Y0126410D02*
X0094135Y0126410D01*
X0094135Y0125211D02*
X0078535Y0125211D01*
X0078535Y0124012D02*
X0094135Y0124012D01*
X0094135Y0122814D02*
X0078535Y0122814D01*
X0055539Y0143189D02*
X0047722Y0143189D01*
X0047722Y0144387D02*
X0054546Y0144387D01*
X0054089Y0145586D02*
X0047722Y0145586D01*
X0047722Y0146784D02*
X0054089Y0146784D01*
X0054468Y0147983D02*
X0047722Y0147983D01*
X0047722Y0149181D02*
X0055349Y0149181D01*
X0056709Y0152777D02*
X0047722Y0152777D01*
X0047722Y0153975D02*
X0055081Y0153975D01*
X0055139Y0153889D02*
X0055661Y0153367D01*
X0056275Y0152957D01*
X0056957Y0152674D01*
X0057682Y0152530D01*
X0060226Y0152530D01*
X0060226Y0156092D01*
X0060601Y0156092D01*
X0060601Y0156467D01*
X0066525Y0156467D01*
X0066525Y0156649D01*
X0066381Y0157373D01*
X0066098Y0158056D01*
X0065688Y0158670D01*
X0065166Y0159192D01*
X0064552Y0159602D01*
X0063869Y0159885D01*
X0063145Y0160029D01*
X0060601Y0160029D01*
X0060601Y0156467D01*
X0060226Y0156467D01*
X0060226Y0160029D01*
X0057682Y0160029D01*
X0056957Y0159885D01*
X0056275Y0159602D01*
X0055661Y0159192D01*
X0055139Y0158670D01*
X0054728Y0158056D01*
X0054446Y0157373D01*
X0054302Y0156649D01*
X0054302Y0156467D01*
X0060226Y0156467D01*
X0060226Y0156092D01*
X0054302Y0156092D01*
X0054302Y0155910D01*
X0054446Y0155186D01*
X0054728Y0154503D01*
X0055139Y0153889D01*
X0054451Y0155174D02*
X0047722Y0155174D01*
X0047722Y0156372D02*
X0060226Y0156372D01*
X0060601Y0156372D02*
X0076281Y0156372D01*
X0075963Y0155174D02*
X0066376Y0155174D01*
X0066381Y0155186D02*
X0066525Y0155910D01*
X0066525Y0156092D01*
X0060601Y0156092D01*
X0060601Y0152530D01*
X0063145Y0152530D01*
X0063869Y0152674D01*
X0064552Y0152957D01*
X0065166Y0153367D01*
X0065688Y0153889D01*
X0066098Y0154503D01*
X0066381Y0155186D01*
X0065746Y0153975D02*
X0076082Y0153975D01*
X0076723Y0152777D02*
X0064117Y0152777D01*
X0060601Y0152777D02*
X0060226Y0152777D01*
X0060226Y0153975D02*
X0060601Y0153975D01*
X0060601Y0155174D02*
X0060226Y0155174D01*
X0060226Y0157571D02*
X0060601Y0157571D01*
X0060601Y0158769D02*
X0060226Y0158769D01*
X0060226Y0159968D02*
X0060601Y0159968D01*
X0063453Y0159968D02*
X0081258Y0159968D01*
X0080174Y0161166D02*
X0082457Y0161166D01*
X0081373Y0162365D02*
X0110963Y0162365D01*
X0110963Y0162262D02*
X0111476Y0161023D01*
X0112425Y0160075D01*
X0113664Y0159561D01*
X0115005Y0159561D01*
X0116245Y0160075D01*
X0117193Y0161023D01*
X0117706Y0162262D01*
X0117706Y0163604D01*
X0117193Y0164843D01*
X0116535Y0165501D01*
X0116535Y0171844D01*
X0115246Y0173133D01*
X0111246Y0177133D01*
X0095491Y0177133D01*
X0094744Y0177240D01*
X0094601Y0177133D01*
X0094423Y0177133D01*
X0093890Y0176599D01*
X0092107Y0175262D01*
X0092005Y0175305D01*
X0090664Y0175305D01*
X0089425Y0174791D01*
X0088476Y0173843D01*
X0087963Y0172604D01*
X0087963Y0171262D01*
X0088476Y0170023D01*
X0089425Y0169075D01*
X0090664Y0168561D01*
X0092005Y0168561D01*
X0093245Y0169075D01*
X0094193Y0170023D01*
X0094706Y0171262D01*
X0094706Y0171712D01*
X0096068Y0172733D01*
X0109423Y0172733D01*
X0112135Y0170022D01*
X0112135Y0165501D01*
X0111476Y0164843D01*
X0110963Y0163604D01*
X0110963Y0162262D01*
X0111417Y0161166D02*
X0109975Y0161166D01*
X0111174Y0159968D02*
X0112683Y0159968D01*
X0112373Y0158769D02*
X0132949Y0158769D01*
X0132949Y0157571D02*
X0113571Y0157571D01*
X0114770Y0156372D02*
X0132949Y0156372D01*
X0132949Y0155174D02*
X0115968Y0155174D01*
X0117167Y0153975D02*
X0132949Y0153975D01*
X0132949Y0152777D02*
X0118365Y0152777D01*
X0119564Y0151578D02*
X0132949Y0151578D01*
X0132949Y0150380D02*
X0120762Y0150380D01*
X0121971Y0149181D02*
X0132949Y0149181D01*
X0132949Y0147983D02*
X0123050Y0147983D01*
X0124128Y0146784D02*
X0132949Y0146784D01*
X0132949Y0145586D02*
X0125207Y0145586D01*
X0126286Y0144387D02*
X0132949Y0144387D01*
X0132949Y0143189D02*
X0127364Y0143189D01*
X0128443Y0141990D02*
X0132949Y0141990D01*
X0132949Y0140792D02*
X0129535Y0140792D01*
X0129535Y0139593D02*
X0132949Y0139593D01*
X0132949Y0138395D02*
X0129535Y0138395D01*
X0129535Y0137196D02*
X0132949Y0137196D01*
X0132949Y0135998D02*
X0129535Y0135998D01*
X0129535Y0134799D02*
X0132949Y0134799D01*
X0132949Y0133601D02*
X0129535Y0133601D01*
X0129535Y0132402D02*
X0132949Y0132402D01*
X0132949Y0131204D02*
X0129535Y0131204D01*
X0129535Y0130005D02*
X0132949Y0130005D01*
X0132949Y0128807D02*
X0129535Y0128807D01*
X0129535Y0127608D02*
X0132949Y0127608D01*
X0132949Y0126410D02*
X0129535Y0126410D01*
X0129535Y0125211D02*
X0132949Y0125211D01*
X0132949Y0124012D02*
X0129535Y0124012D01*
X0129535Y0122814D02*
X0132949Y0122814D01*
X0132949Y0121615D02*
X0129535Y0121615D01*
X0129535Y0120417D02*
X0133953Y0120417D01*
X0135152Y0119218D02*
X0129535Y0119218D01*
X0129535Y0118020D02*
X0136350Y0118020D01*
X0137549Y0116821D02*
X0129535Y0116821D01*
X0129535Y0115623D02*
X0138747Y0115623D01*
X0139946Y0114424D02*
X0129535Y0114424D01*
X0129535Y0113226D02*
X0141144Y0113226D01*
X0138994Y0112027D02*
X0129535Y0112027D01*
X0129535Y0110829D02*
X0137470Y0110829D01*
X0136974Y0109630D02*
X0129535Y0109630D01*
X0129535Y0108432D02*
X0136722Y0108432D01*
X0135524Y0107233D02*
X0129535Y0107233D01*
X0129535Y0106035D02*
X0134325Y0106035D01*
X0133127Y0104836D02*
X0129535Y0104836D01*
X0129535Y0103638D02*
X0132135Y0103638D01*
X0132135Y0102439D02*
X0129535Y0102439D01*
X0129535Y0101241D02*
X0132135Y0101241D01*
X0132135Y0100042D02*
X0129535Y0100042D01*
X0129535Y0098844D02*
X0132135Y0098844D01*
X0132135Y0097645D02*
X0129535Y0097645D01*
X0129535Y0096447D02*
X0132135Y0096447D01*
X0132135Y0095248D02*
X0129535Y0095248D01*
X0129535Y0094050D02*
X0132135Y0094050D01*
X0132135Y0092851D02*
X0129535Y0092851D01*
X0129535Y0091653D02*
X0132135Y0091653D01*
X0132135Y0090454D02*
X0129535Y0090454D01*
X0129535Y0089256D02*
X0132135Y0089256D01*
X0132135Y0088057D02*
X0129535Y0088057D01*
X0129535Y0086859D02*
X0132135Y0086859D01*
X0132135Y0085660D02*
X0129535Y0085660D01*
X0129535Y0084462D02*
X0132135Y0084462D01*
X0132135Y0083263D02*
X0129535Y0083263D01*
X0129535Y0082065D02*
X0132135Y0082065D01*
X0132135Y0080866D02*
X0129535Y0080866D01*
X0129535Y0079668D02*
X0132135Y0079668D01*
X0132135Y0078469D02*
X0129535Y0078469D01*
X0129535Y0077271D02*
X0132135Y0077271D01*
X0132135Y0076072D02*
X0129535Y0076072D01*
X0129535Y0074874D02*
X0132135Y0074874D01*
X0132135Y0073675D02*
X0130263Y0073675D01*
X0130706Y0072477D02*
X0132135Y0072477D01*
X0132135Y0071278D02*
X0130706Y0071278D01*
X0130216Y0070079D02*
X0132135Y0070079D01*
X0132135Y0068881D02*
X0128777Y0068881D01*
X0125893Y0068881D02*
X0122498Y0068881D01*
X0122216Y0070079D02*
X0124453Y0070079D01*
X0123963Y0071278D02*
X0122706Y0071278D01*
X0122706Y0072477D02*
X0123963Y0072477D01*
X0124407Y0073675D02*
X0122263Y0073675D01*
X0121046Y0074874D02*
X0125135Y0074874D01*
X0125135Y0076072D02*
X0113535Y0076072D01*
X0113535Y0077271D02*
X0125135Y0077271D01*
X0125135Y0078469D02*
X0113535Y0078469D01*
X0113535Y0079668D02*
X0125135Y0079668D01*
X0125135Y0080866D02*
X0113535Y0080866D01*
X0113535Y0082065D02*
X0125135Y0082065D01*
X0125135Y0083263D02*
X0113535Y0083263D01*
X0113535Y0084462D02*
X0125135Y0084462D01*
X0125135Y0085660D02*
X0113535Y0085660D01*
X0113535Y0086859D02*
X0125135Y0086859D01*
X0125135Y0088057D02*
X0113535Y0088057D01*
X0113535Y0089256D02*
X0125135Y0089256D01*
X0125135Y0090454D02*
X0113535Y0090454D01*
X0113535Y0091653D02*
X0125135Y0091653D01*
X0125135Y0092851D02*
X0113535Y0092851D01*
X0113535Y0094050D02*
X0125135Y0094050D01*
X0125135Y0095248D02*
X0113535Y0095248D01*
X0113535Y0096447D02*
X0125135Y0096447D01*
X0125135Y0097645D02*
X0113535Y0097645D01*
X0113535Y0098844D02*
X0125135Y0098844D01*
X0125135Y0100042D02*
X0113535Y0100042D01*
X0113535Y0101241D02*
X0125135Y0101241D01*
X0125135Y0102439D02*
X0113535Y0102439D01*
X0113535Y0103638D02*
X0125135Y0103638D01*
X0125135Y0104836D02*
X0113535Y0104836D01*
X0113535Y0106035D02*
X0125135Y0106035D01*
X0125135Y0107233D02*
X0113535Y0107233D01*
X0113535Y0108432D02*
X0125135Y0108432D01*
X0125135Y0109630D02*
X0113535Y0109630D01*
X0113535Y0110829D02*
X0125135Y0110829D01*
X0125135Y0112027D02*
X0113535Y0112027D01*
X0113535Y0113226D02*
X0125135Y0113226D01*
X0125135Y0114424D02*
X0113535Y0114424D01*
X0113535Y0115623D02*
X0125135Y0115623D01*
X0125135Y0116821D02*
X0113535Y0116821D01*
X0113535Y0118020D02*
X0125135Y0118020D01*
X0125135Y0119218D02*
X0113535Y0119218D01*
X0113535Y0120417D02*
X0125135Y0120417D01*
X0125135Y0121615D02*
X0113535Y0121615D01*
X0113535Y0122814D02*
X0125135Y0122814D01*
X0125135Y0124012D02*
X0113535Y0124012D01*
X0113535Y0125211D02*
X0125135Y0125211D01*
X0125135Y0126410D02*
X0113535Y0126410D01*
X0113535Y0127608D02*
X0125135Y0127608D01*
X0125135Y0128807D02*
X0113535Y0128807D01*
X0113535Y0130005D02*
X0125135Y0130005D01*
X0125135Y0131204D02*
X0113535Y0131204D01*
X0113535Y0132402D02*
X0125135Y0132402D01*
X0125135Y0133601D02*
X0116100Y0133601D01*
X0114569Y0133601D02*
X0113535Y0133601D01*
X0117969Y0134799D02*
X0125135Y0134799D01*
X0125135Y0135998D02*
X0118597Y0135998D01*
X0118706Y0137196D02*
X0125135Y0137196D01*
X0125135Y0138395D02*
X0118379Y0138395D01*
X0117632Y0139593D02*
X0124681Y0139593D01*
X0123602Y0140792D02*
X0117632Y0140792D01*
X0117632Y0141990D02*
X0122523Y0141990D01*
X0121445Y0143189D02*
X0117632Y0143189D01*
X0117632Y0144387D02*
X0120366Y0144387D01*
X0119287Y0145586D02*
X0117632Y0145586D01*
X0117632Y0146784D02*
X0118135Y0146784D01*
X0120469Y0147562D02*
X0108097Y0159933D01*
X0084335Y0159933D01*
X0079335Y0154933D01*
X0077204Y0157571D02*
X0066299Y0157571D01*
X0065589Y0158769D02*
X0080060Y0158769D01*
X0082571Y0163563D02*
X0110963Y0163563D01*
X0111443Y0164762D02*
X0083736Y0164762D01*
X0083736Y0165960D02*
X0112135Y0165960D01*
X0112135Y0167159D02*
X0083736Y0167159D01*
X0083736Y0168357D02*
X0112135Y0168357D01*
X0112135Y0169556D02*
X0093726Y0169556D01*
X0094496Y0170754D02*
X0111402Y0170754D01*
X0110203Y0171953D02*
X0095028Y0171953D01*
X0095335Y0174933D02*
X0110335Y0174933D01*
X0114335Y0170933D01*
X0114335Y0162933D01*
X0115986Y0159968D02*
X0132949Y0159968D01*
X0132949Y0161166D02*
X0117252Y0161166D01*
X0117706Y0162365D02*
X0132949Y0162365D01*
X0132949Y0163563D02*
X0117706Y0163563D01*
X0117227Y0164762D02*
X0132949Y0164762D01*
X0132949Y0165960D02*
X0116535Y0165960D01*
X0116535Y0167159D02*
X0132949Y0167159D01*
X0132949Y0168357D02*
X0116535Y0168357D01*
X0116535Y0169556D02*
X0132949Y0169556D01*
X0132949Y0170754D02*
X0116535Y0170754D01*
X0116426Y0171953D02*
X0132949Y0171953D01*
X0132949Y0173151D02*
X0115228Y0173151D01*
X0114029Y0174350D02*
X0132949Y0174350D01*
X0132949Y0175548D02*
X0112830Y0175548D01*
X0111632Y0176747D02*
X0132949Y0176747D01*
X0132949Y0177945D02*
X0083736Y0177945D01*
X0083736Y0176747D02*
X0094037Y0176747D01*
X0092489Y0175548D02*
X0083736Y0175548D01*
X0083736Y0174350D02*
X0088983Y0174350D01*
X0088190Y0173151D02*
X0083736Y0173151D01*
X0083736Y0171953D02*
X0087963Y0171953D01*
X0088173Y0170754D02*
X0083736Y0170754D01*
X0083736Y0169556D02*
X0088944Y0169556D01*
X0091335Y0171933D02*
X0095335Y0174933D01*
X0083736Y0179144D02*
X0132949Y0179144D01*
X0132949Y0180343D02*
X0083736Y0180343D01*
X0083736Y0181541D02*
X0132949Y0181541D01*
X0132949Y0182740D02*
X0083736Y0182740D01*
X0083736Y0183938D02*
X0132949Y0183938D01*
X0132949Y0185137D02*
X0083736Y0185137D01*
X0083736Y0186335D02*
X0132949Y0186335D01*
X0132949Y0187534D02*
X0083736Y0187534D01*
X0057374Y0159968D02*
X0047722Y0159968D01*
X0047722Y0158769D02*
X0055238Y0158769D01*
X0054528Y0157571D02*
X0047722Y0157571D01*
X0104755Y0145586D02*
X0105571Y0145586D01*
X0120469Y0147562D02*
X0127335Y0139933D01*
X0127335Y0071933D01*
X0123697Y0067682D02*
X0131973Y0067682D01*
X0114064Y0052102D02*
X0106605Y0052102D01*
X0107877Y0050903D02*
X0112792Y0050903D01*
X0112012Y0049705D02*
X0108658Y0049705D01*
X0109154Y0048506D02*
X0111515Y0048506D01*
X0111424Y0047308D02*
X0109245Y0047308D01*
X0109245Y0046109D02*
X0111424Y0046109D01*
X0111424Y0044911D02*
X0109245Y0044911D01*
X0109245Y0043712D02*
X0111424Y0043712D01*
X0111424Y0042514D02*
X0109245Y0042514D01*
X0109245Y0041315D02*
X0111424Y0041315D01*
X0111424Y0040117D02*
X0109245Y0040117D01*
X0109245Y0038918D02*
X0111424Y0038918D01*
X0111424Y0037720D02*
X0109245Y0037720D01*
X0108807Y0036521D02*
X0111863Y0036521D01*
X0112432Y0035323D02*
X0108237Y0035323D01*
X0107038Y0034124D02*
X0113631Y0034124D01*
X0085665Y0060491D02*
X0047722Y0060491D01*
X0047722Y0061690D02*
X0084467Y0061690D01*
X0083268Y0062888D02*
X0047722Y0062888D01*
X0047722Y0064087D02*
X0082070Y0064087D01*
X0080871Y0065285D02*
X0047722Y0065285D01*
X0047722Y0066484D02*
X0080135Y0066484D01*
X0080135Y0067682D02*
X0047722Y0067682D01*
X0047722Y0068881D02*
X0080135Y0068881D01*
X0080135Y0070079D02*
X0047722Y0070079D01*
X0047722Y0071278D02*
X0080135Y0071278D01*
X0080135Y0072477D02*
X0047722Y0072477D01*
X0047722Y0073675D02*
X0080135Y0073675D01*
X0080135Y0074874D02*
X0047722Y0074874D01*
X0047722Y0076072D02*
X0080135Y0076072D01*
X0063323Y0059235D02*
X0063323Y0059235D01*
X0184335Y0113933D02*
X0184335Y0133933D01*
X0201335Y0150933D01*
X0262335Y0150933D01*
X0267335Y0155933D01*
X0267335Y0168933D01*
X0270335Y0171933D01*
X0270335Y0190537D01*
X0267335Y0193537D01*
X0267335Y0216933D01*
X0265335Y0225933D02*
X0253335Y0213433D01*
X0241335Y0213433D01*
X0235335Y0207433D01*
X0235335Y0176933D01*
X0232335Y0174433D01*
X0197835Y0174433D01*
X0190335Y0181933D01*
X0197335Y0186933D02*
X0205335Y0186933D01*
X0210335Y0181933D01*
X0200335Y0191933D02*
X0213335Y0204933D01*
X0214335Y0204933D01*
X0211335Y0218933D02*
X0195335Y0234933D01*
X0195335Y0264933D01*
X0181335Y0278933D01*
X0172335Y0278933D01*
X0171335Y0277933D01*
X0098335Y0277933D01*
X0088335Y0287933D01*
X0088335Y0333933D01*
X0093335Y0338933D01*
X0093335Y0361933D01*
X0074335Y0380933D01*
X0071335Y0380933D01*
X0072335Y0367933D02*
X0078335Y0367933D01*
X0087335Y0358933D01*
X0134335Y0397933D02*
X0136335Y0395933D01*
X0136335Y0336933D01*
X0140335Y0332933D01*
X0140335Y0287933D01*
X0145335Y0282933D01*
X0182299Y0282933D01*
X0198335Y0266897D01*
X0198335Y0257933D01*
X0200335Y0256433D01*
X0200294Y0255974D01*
X0200135Y0255974D01*
X0205447Y0257582D02*
X0201335Y0261933D01*
X0201335Y0268933D01*
X0197335Y0272933D01*
X0197335Y0333933D01*
X0190335Y0340933D01*
X0155335Y0340933D01*
X0139335Y0356933D01*
X0139335Y0395933D01*
X0143335Y0399933D01*
X0147335Y0397933D02*
X0147335Y0401933D01*
X0145335Y0403933D01*
X0138335Y0403933D01*
X0147335Y0397933D02*
X0142335Y0392933D01*
X0142335Y0366933D01*
X0165335Y0343933D01*
X0192335Y0343933D01*
X0200335Y0335933D01*
X0200335Y0275933D01*
X0204335Y0271933D01*
X0204335Y0264933D01*
X0206335Y0262933D01*
X0205447Y0257582D02*
X0205447Y0229821D01*
X0213335Y0221933D01*
X0235335Y0221933D01*
X0240335Y0226933D01*
X0241335Y0233933D02*
X0232335Y0224933D01*
X0226335Y0224933D01*
X0218335Y0232933D01*
X0218335Y0242933D01*
X0220335Y0244933D01*
X0237335Y0244933D01*
X0240335Y0247933D01*
X0240335Y0254933D01*
X0238335Y0256933D01*
X0235335Y0256933D01*
X0232535Y0254133D01*
X0227135Y0254133D01*
X0216335Y0264933D01*
X0216335Y0277933D01*
X0211335Y0282933D01*
X0211335Y0284933D01*
X0214335Y0287433D01*
X0247835Y0287433D01*
X0253335Y0281933D01*
X0273335Y0281933D01*
X0275335Y0283933D01*
X0279335Y0282933D02*
X0291335Y0270933D01*
X0291335Y0265933D01*
X0295706Y0262305D02*
X0312335Y0278933D01*
X0308335Y0283933D02*
X0298335Y0272933D01*
X0294335Y0272933D01*
X0284335Y0282933D01*
X0284335Y0289656D01*
X0278335Y0296933D01*
X0233335Y0296933D01*
X0227335Y0290933D01*
X0210335Y0290933D01*
X0203335Y0283933D01*
X0203335Y0277933D01*
X0207335Y0273933D01*
X0207335Y0268933D01*
X0226335Y0249933D01*
X0233335Y0249933D01*
X0236335Y0252933D01*
X0230571Y0257933D02*
X0233335Y0260933D01*
X0237335Y0260933D01*
X0239335Y0262933D01*
X0250335Y0262933D01*
X0252706Y0260561D01*
X0283706Y0260561D01*
X0286706Y0257561D01*
X0293731Y0257561D01*
X0295706Y0259536D01*
X0295706Y0262305D01*
X0300335Y0254933D02*
X0309335Y0263933D01*
X0317335Y0263933D01*
X0322335Y0258933D01*
X0312335Y0258933D02*
X0305335Y0251933D01*
X0287335Y0251933D01*
X0273335Y0237933D01*
X0235335Y0237933D01*
X0230535Y0232733D01*
X0230535Y0229033D01*
X0226335Y0230933D02*
X0226335Y0234933D01*
X0232335Y0240933D01*
X0272335Y0240933D01*
X0286335Y0254933D01*
X0300335Y0254933D01*
X0308335Y0242933D02*
X0291335Y0242933D01*
X0303535Y0237733D02*
X0279135Y0237733D01*
X0272335Y0230933D01*
X0265335Y0229933D02*
X0265335Y0225933D01*
X0265335Y0229933D02*
X0261835Y0233933D01*
X0241335Y0233933D01*
X0254335Y0228933D02*
X0243335Y0218933D01*
X0211335Y0218933D01*
X0195335Y0229933D02*
X0195335Y0188933D01*
X0197335Y0186933D01*
X0186335Y0223933D02*
X0188335Y0225933D01*
X0188335Y0242933D01*
X0186335Y0244933D01*
X0178335Y0244933D01*
X0166335Y0232933D01*
X0141335Y0232933D01*
X0146335Y0251933D02*
X0146335Y0263933D01*
X0143335Y0266933D01*
X0103335Y0266933D01*
X0092335Y0255933D01*
X0091768Y0250063D01*
X0082575Y0255173D02*
X0097335Y0269933D01*
X0157335Y0269933D01*
X0137335Y0254933D02*
X0127335Y0254933D01*
X0092575Y0220173D01*
X0091768Y0220063D01*
X0082575Y0255173D02*
X0081768Y0255063D01*
X0190335Y0259610D02*
X0191935Y0258010D01*
X0191935Y0234333D01*
X0195335Y0229933D01*
X0190335Y0259610D02*
X0190335Y0259933D01*
X0216335Y0282933D02*
X0218335Y0284933D01*
X0245335Y0284933D01*
X0251335Y0278933D01*
X0278335Y0278933D01*
X0283335Y0273933D01*
X0283335Y0268933D01*
X0278335Y0263933D01*
X0295335Y0276933D02*
X0303335Y0284933D01*
X0303335Y0307933D01*
X0301335Y0309933D01*
X0301335Y0334933D01*
X0290335Y0345933D01*
X0242335Y0345933D01*
X0238335Y0349933D01*
X0247335Y0352933D02*
X0251335Y0348933D01*
X0278335Y0348933D01*
X0283335Y0353933D01*
X0280335Y0362933D02*
X0289335Y0362933D01*
X0294335Y0366933D01*
X0297335Y0366933D01*
X0301335Y0362933D01*
X0347335Y0362933D01*
X0366335Y0381933D01*
X0366335Y0410461D01*
X0366807Y0410933D01*
X0376650Y0410933D02*
X0376650Y0387248D01*
X0366335Y0376933D01*
X0366446Y0376933D01*
X0348246Y0358733D01*
X0298535Y0358733D01*
X0294335Y0361933D01*
X0294335Y0357933D02*
X0257335Y0357933D01*
X0250650Y0364618D01*
X0250650Y0410783D01*
X0247335Y0403933D02*
X0247335Y0352933D01*
X0255335Y0341933D02*
X0256335Y0341933D01*
X0261335Y0336933D01*
X0287335Y0336933D01*
X0297335Y0326933D01*
X0297335Y0315933D01*
X0287335Y0320933D02*
X0287335Y0305933D01*
X0300335Y0292933D01*
X0300335Y0286933D01*
X0295335Y0281933D01*
X0308335Y0283933D02*
X0317335Y0283933D01*
X0322335Y0288933D01*
X0287335Y0320933D02*
X0274335Y0333933D01*
X0241335Y0333933D01*
X0216335Y0358933D01*
X0207335Y0358933D02*
X0207335Y0361933D01*
X0230335Y0384933D01*
X0237335Y0384933D01*
X0238335Y0393933D02*
X0234335Y0397933D01*
X0177838Y0397933D01*
X0172484Y0392579D01*
X0158335Y0375933D01*
X0151335Y0375933D02*
X0176335Y0403933D01*
X0221335Y0403933D01*
X0240807Y0410461D02*
X0247335Y0403933D01*
X0240807Y0410461D02*
X0240807Y0410783D01*
X0277335Y0366933D02*
X0280335Y0362933D01*
X0288335Y0366933D02*
X0303807Y0382406D01*
X0303807Y0410783D01*
X0313650Y0410783D02*
X0313650Y0376248D01*
X0304335Y0366933D01*
X0294335Y0357933D02*
X0298335Y0353933D01*
X0273335Y0303933D02*
X0226335Y0303933D01*
X0223335Y0300933D01*
X0213335Y0300933D01*
X0208335Y0305933D01*
X0230335Y0257933D02*
X0230571Y0257933D01*
X0268335Y0288933D02*
X0269335Y0287933D01*
X0277335Y0287933D01*
X0279335Y0285933D01*
X0279335Y0282933D01*
X0308335Y0242933D02*
X0312335Y0238933D01*
X0316335Y0233933D02*
X0307335Y0233933D01*
X0303535Y0237733D01*
X0316335Y0233933D02*
X0321335Y0238933D01*
X0322335Y0238933D01*
X0281335Y0196933D02*
X0272335Y0205933D01*
X0272335Y0199933D02*
X0278335Y0193933D01*
X0278335Y0147933D01*
X0275335Y0144933D01*
X0249335Y0144933D01*
X0233335Y0137933D02*
X0284335Y0137933D01*
X0288335Y0141933D01*
X0288335Y0154933D01*
X0281335Y0161933D01*
X0281335Y0196933D01*
X0273335Y0192933D02*
X0273335Y0151933D01*
X0265835Y0173933D02*
X0267835Y0175933D01*
X0267835Y0188433D01*
X0263335Y0192933D01*
X0251335Y0205933D01*
X0246335Y0205933D01*
X0272335Y0193933D02*
X0273335Y0192933D01*
X0265835Y0173933D02*
X0263335Y0173933D01*
X0286077Y0085326D02*
X0286077Y0084213D01*
X0286077Y0081986D02*
X0286077Y0077533D01*
X0287190Y0077533D02*
X0284963Y0077533D01*
X0282356Y0078646D02*
X0281243Y0077533D01*
X0279017Y0077533D01*
X0277903Y0078646D01*
X0277903Y0080873D01*
X0279017Y0081986D01*
X0281243Y0081986D01*
X0282356Y0080873D01*
X0282356Y0078646D01*
X0286077Y0081986D02*
X0287190Y0081986D01*
X0289797Y0081986D02*
X0292023Y0081986D01*
X0290910Y0083100D02*
X0290910Y0078646D01*
X0289797Y0077533D01*
X0288779Y0074213D02*
X0293232Y0074213D01*
X0293232Y0067533D01*
X0293232Y0070873D02*
X0291005Y0070873D01*
X0285982Y0071986D02*
X0285982Y0067533D01*
X0285982Y0069760D02*
X0283755Y0071986D01*
X0282642Y0071986D01*
X0279940Y0070873D02*
X0279940Y0068646D01*
X0278826Y0067533D01*
X0276600Y0067533D01*
X0275486Y0068646D01*
X0275486Y0070873D01*
X0276600Y0071986D01*
X0278826Y0071986D01*
X0279940Y0070873D01*
X0272689Y0070873D02*
X0268236Y0070873D01*
X0268236Y0074213D02*
X0268236Y0067533D01*
X0272689Y0067533D02*
X0272689Y0074213D01*
X0270653Y0077533D02*
X0270653Y0080873D01*
X0271766Y0081986D01*
X0275106Y0081986D01*
X0275106Y0077533D01*
X0267856Y0077533D02*
X0264516Y0077533D01*
X0263403Y0078646D01*
X0264516Y0079760D01*
X0266743Y0079760D01*
X0267856Y0080873D01*
X0266743Y0081986D01*
X0263403Y0081986D01*
X0294821Y0081986D02*
X0294821Y0077533D01*
X0298160Y0077533D01*
X0299274Y0078646D01*
X0299274Y0081986D01*
X0302994Y0084213D02*
X0302994Y0077533D01*
X0304107Y0077533D02*
X0301881Y0077533D01*
X0303279Y0074213D02*
X0307732Y0067533D01*
X0308018Y0077533D02*
X0306904Y0078646D01*
X0306904Y0080873D01*
X0308018Y0081986D01*
X0310244Y0081986D01*
X0311358Y0080873D01*
X0311358Y0078646D01*
X0310244Y0077533D01*
X0308018Y0077533D01*
X0314155Y0078646D02*
X0315268Y0079760D01*
X0317495Y0079760D01*
X0318608Y0080873D01*
X0317495Y0081986D01*
X0314155Y0081986D01*
X0314155Y0078646D02*
X0315268Y0077533D01*
X0318608Y0077533D01*
X0317780Y0074213D02*
X0317780Y0073100D01*
X0322233Y0068646D01*
X0322233Y0067533D01*
X0325030Y0067533D02*
X0329483Y0067533D01*
X0327257Y0067533D02*
X0327257Y0074213D01*
X0329483Y0071986D01*
X0332280Y0073100D02*
X0336734Y0068646D01*
X0335620Y0067533D01*
X0333394Y0067533D01*
X0332280Y0068646D01*
X0332280Y0073100D01*
X0333394Y0074213D01*
X0335620Y0074213D01*
X0336734Y0073100D01*
X0336734Y0068646D01*
X0339531Y0067533D02*
X0343984Y0067533D01*
X0339531Y0071986D01*
X0339531Y0073100D01*
X0340644Y0074213D01*
X0342871Y0074213D01*
X0343984Y0073100D01*
X0346781Y0074213D02*
X0351234Y0067533D01*
X0354031Y0073100D02*
X0358484Y0068646D01*
X0358484Y0067533D01*
X0361281Y0068646D02*
X0362395Y0067533D01*
X0364621Y0067533D01*
X0365735Y0068646D01*
X0361281Y0073100D01*
X0361281Y0068646D01*
X0361281Y0073100D02*
X0362395Y0074213D01*
X0364621Y0074213D01*
X0365735Y0073100D01*
X0365735Y0068646D01*
X0365735Y0077533D02*
X0365735Y0081986D01*
X0362395Y0081986D01*
X0361281Y0080873D01*
X0361281Y0077533D01*
X0358484Y0074213D02*
X0354031Y0074213D01*
X0354031Y0073100D01*
X0349008Y0077533D02*
X0350121Y0078646D01*
X0350121Y0083100D01*
X0351234Y0081986D02*
X0349008Y0081986D01*
X0346401Y0081986D02*
X0346401Y0077533D01*
X0346401Y0079760D02*
X0344174Y0081986D01*
X0343061Y0081986D01*
X0340359Y0080873D02*
X0339245Y0081986D01*
X0337019Y0081986D01*
X0335905Y0080873D01*
X0335905Y0079760D01*
X0340359Y0079760D01*
X0340359Y0080873D02*
X0340359Y0078646D01*
X0339245Y0077533D01*
X0337019Y0077533D01*
X0333108Y0078646D02*
X0333108Y0080873D01*
X0331995Y0081986D01*
X0329769Y0081986D01*
X0328655Y0080873D01*
X0328655Y0079760D01*
X0333108Y0079760D01*
X0333108Y0078646D02*
X0331995Y0077533D01*
X0329769Y0077533D01*
X0322233Y0074213D02*
X0317780Y0074213D01*
X0304107Y0084213D02*
X0302994Y0084213D01*
X0354031Y0080873D02*
X0358484Y0080873D01*
X0392335Y0332933D02*
X0429335Y0332933D01*
X0434335Y0337933D01*
X0434335Y0346933D01*
X0392335Y0332933D02*
X0388985Y0336283D01*
X0388835Y0336283D01*
D11*
X0068185Y0228534D02*
X0066250Y0228534D01*
X0066733Y0227083D02*
X0066733Y0229986D01*
X0068185Y0228534D01*
D12*
X0081768Y0225063D03*
X0081768Y0235063D03*
X0081768Y0245063D03*
X0091768Y0250063D03*
X0081768Y0255063D03*
X0091768Y0240063D03*
X0091768Y0230063D03*
X0091768Y0220063D03*
D13*
X0068776Y0206559D03*
X0068776Y0268567D03*
D14*
X0110783Y0259079D03*
X0110783Y0249079D03*
X0110783Y0226047D03*
X0110783Y0216047D03*
D15*
X0270335Y0410783D03*
X0333335Y0410783D03*
X0396335Y0410933D03*
X0428335Y0067933D03*
D16*
X0428335Y0077776D03*
X0386492Y0410933D03*
X0376650Y0410933D03*
X0366807Y0410933D03*
X0356965Y0410933D03*
X0323492Y0410783D03*
X0313650Y0410783D03*
X0303807Y0410783D03*
X0293965Y0410783D03*
X0260492Y0410783D03*
X0250650Y0410783D03*
X0240807Y0410783D03*
X0230965Y0410783D03*
D17*
X0239555Y0047133D02*
X0239555Y0038733D01*
X0253335Y0038733D02*
X0253335Y0047133D01*
X0267114Y0047133D02*
X0267114Y0038733D01*
X0287555Y0038733D02*
X0287555Y0047133D01*
X0301335Y0047133D02*
X0301335Y0038733D01*
X0315114Y0038733D02*
X0315114Y0047133D01*
X0335555Y0047133D02*
X0335555Y0038733D01*
X0349335Y0038733D02*
X0349335Y0047133D01*
X0363114Y0047133D02*
X0363114Y0038733D01*
X0383445Y0038733D02*
X0383445Y0047133D01*
X0397224Y0047133D02*
X0397224Y0038733D01*
X0219783Y0038733D02*
X0219783Y0047133D01*
X0206004Y0047133D02*
X0206004Y0038733D01*
X0192224Y0038733D02*
X0192224Y0047133D01*
X0178445Y0047133D02*
X0178445Y0038733D01*
X0164665Y0038733D02*
X0164665Y0047133D01*
X0150886Y0047133D02*
X0150886Y0038733D01*
X0131004Y0038733D02*
X0131004Y0047133D01*
X0117224Y0047133D02*
X0117224Y0038733D01*
X0103445Y0038733D02*
X0103445Y0047133D01*
X0089665Y0047133D02*
X0089665Y0038733D01*
D18*
X0061335Y0082933D02*
X0055335Y0082933D01*
X0055335Y0092933D02*
X0061335Y0092933D01*
X0061335Y0107933D02*
X0055335Y0107933D01*
X0055335Y0117933D02*
X0061335Y0117933D01*
X0236335Y0120933D02*
X0242335Y0120933D01*
X0242335Y0110933D02*
X0236335Y0110933D01*
X0236335Y0100933D02*
X0242335Y0100933D01*
X0242335Y0090933D02*
X0236335Y0090933D01*
X0236335Y0080933D02*
X0242335Y0080933D01*
X0242335Y0070933D02*
X0236335Y0070933D01*
X0335335Y0129433D02*
X0341335Y0129433D01*
X0357335Y0130933D02*
X0363335Y0130933D01*
X0363335Y0140933D02*
X0357335Y0140933D01*
X0341335Y0144433D02*
X0335335Y0144433D01*
X0335335Y0159433D02*
X0341335Y0159433D01*
X0341335Y0174433D02*
X0335335Y0174433D01*
X0357335Y0169933D02*
X0363335Y0169933D01*
X0363335Y0159933D02*
X0357335Y0159933D01*
X0397335Y0196933D02*
X0397335Y0206933D01*
X0387335Y0102433D02*
X0387335Y0096433D01*
X0417335Y0095433D02*
X0417335Y0089433D01*
X0191335Y0293933D02*
X0191335Y0299933D01*
X0181335Y0299933D02*
X0181335Y0293933D01*
X0126335Y0368933D02*
X0120335Y0368933D01*
X0120335Y0378933D02*
X0126335Y0378933D01*
X0262335Y0390933D02*
X0262335Y0396933D01*
X0272335Y0396933D02*
X0272335Y0390933D01*
X0337335Y0391933D02*
X0337335Y0397933D01*
X0347335Y0397933D02*
X0347335Y0391933D01*
X0361335Y0391933D02*
X0361335Y0397933D01*
X0371335Y0397933D02*
X0371335Y0391933D01*
X0318335Y0316933D02*
X0318335Y0310933D01*
X0308335Y0310933D02*
X0308335Y0316933D01*
D19*
X0062776Y0176280D02*
X0058051Y0176280D01*
X0058051Y0166280D02*
X0062776Y0166280D01*
X0062776Y0156280D02*
X0058051Y0156280D01*
X0058051Y0146280D02*
X0062776Y0146280D01*
D20*
X0335485Y0199933D03*
X0345335Y0199933D03*
X0355185Y0199933D03*
X0388835Y0316583D03*
X0388835Y0326433D03*
X0388835Y0336283D03*
D21*
X0373785Y0167613D02*
X0373785Y0157613D01*
X0373785Y0128253D02*
X0373785Y0118253D01*
X0432885Y0118253D02*
X0432885Y0128253D01*
X0432885Y0157613D02*
X0432885Y0167613D01*
D22*
X0294335Y0201933D03*
D23*
X0294335Y0181933D03*
D24*
X0393366Y0075043D02*
X0393366Y0069138D01*
X0413366Y0068823D02*
X0413366Y0074728D01*
D25*
X0322335Y0228933D03*
X0322335Y0238933D03*
X0322335Y0248933D03*
X0322335Y0258933D03*
X0312335Y0258933D03*
X0312335Y0248933D03*
X0312335Y0238933D03*
X0312335Y0228933D03*
X0312335Y0268933D03*
X0322335Y0268933D03*
X0322335Y0278933D03*
X0322335Y0288933D03*
X0322335Y0298933D03*
X0312335Y0298933D03*
X0312335Y0288933D03*
X0312335Y0278933D03*
X0250335Y0191933D03*
X0250335Y0181933D03*
X0240335Y0181933D03*
X0240335Y0191933D03*
X0230335Y0191933D03*
X0230335Y0181933D03*
X0220335Y0181933D03*
X0220335Y0191933D03*
X0210335Y0191933D03*
X0210335Y0181933D03*
X0200335Y0181933D03*
X0200335Y0191933D03*
X0190335Y0191933D03*
X0190335Y0181933D03*
X0180335Y0181933D03*
X0180335Y0191933D03*
D26*
X0101643Y0298933D03*
D27*
X0166372Y0298933D03*
D28*
X0177335Y0308933D03*
X0192335Y0316933D03*
X0193335Y0324933D03*
X0174335Y0334933D03*
X0161335Y0354933D03*
X0170335Y0366933D03*
X0179335Y0373933D03*
X0192335Y0358933D03*
X0207335Y0358933D03*
X0216335Y0358933D03*
X0234335Y0364933D03*
X0238335Y0368933D03*
X0239335Y0358933D03*
X0235335Y0354933D03*
X0238335Y0349933D03*
X0230335Y0334933D03*
X0223335Y0329933D03*
X0219335Y0339933D03*
X0229335Y0314933D03*
X0229335Y0307933D03*
X0221335Y0304933D03*
X0227335Y0298933D03*
X0219335Y0294933D03*
X0216335Y0282933D03*
X0211335Y0277933D03*
X0206335Y0262933D03*
X0200335Y0256433D03*
X0199335Y0247933D03*
X0190335Y0259933D03*
X0187335Y0267933D03*
X0176335Y0265933D03*
X0172335Y0270933D03*
X0175335Y0274933D03*
X0168335Y0266933D03*
X0157335Y0269933D03*
X0139335Y0262933D03*
X0137335Y0254933D03*
X0146335Y0251933D03*
X0155335Y0248933D03*
X0163335Y0247933D03*
X0169335Y0251933D03*
X0183335Y0248933D03*
X0183335Y0240933D03*
X0186335Y0223933D03*
X0185335Y0199933D03*
X0172319Y0198193D03*
X0158335Y0188933D03*
X0142791Y0190319D03*
X0136886Y0204098D03*
X0130980Y0204098D03*
X0125075Y0204098D03*
X0119169Y0204098D03*
X0113264Y0204098D03*
X0107358Y0204098D03*
X0101453Y0204098D03*
X0095547Y0204098D03*
X0089642Y0204098D03*
X0083736Y0204098D03*
X0077831Y0204098D03*
X0093579Y0186382D03*
X0087673Y0184413D03*
X0087673Y0178508D03*
X0091335Y0171933D03*
X0103421Y0166697D03*
X0109327Y0166697D03*
X0114335Y0162933D03*
X0102335Y0153933D03*
X0102335Y0147933D03*
X0102421Y0141638D03*
X0102421Y0136547D03*
X0107327Y0136642D03*
X0115335Y0136933D03*
X0103421Y0125358D03*
X0101453Y0119453D03*
X0102921Y0109142D03*
X0102835Y0097433D03*
X0102921Y0088957D03*
X0086921Y0089457D03*
X0085835Y0102933D03*
X0082335Y0107933D03*
X0083736Y0117984D03*
X0083736Y0125358D03*
X0079335Y0138933D03*
X0079335Y0144933D03*
X0079335Y0154933D03*
X0069957Y0158823D03*
X0050272Y0156854D03*
X0050272Y0150949D03*
X0050272Y0145043D03*
X0050272Y0139138D03*
X0050272Y0123390D03*
X0050272Y0113547D03*
X0050272Y0099768D03*
X0050272Y0087957D03*
X0050272Y0076146D03*
X0050272Y0058429D03*
X0073894Y0058429D03*
X0079799Y0050555D03*
X0079799Y0038744D03*
X0081768Y0030870D03*
X0075862Y0030870D03*
X0087673Y0030870D03*
X0093579Y0030870D03*
X0099484Y0030870D03*
X0105390Y0030870D03*
X0111295Y0030870D03*
X0117201Y0030870D03*
X0125075Y0030870D03*
X0130980Y0030870D03*
X0146728Y0030870D03*
X0154602Y0030870D03*
X0172335Y0052933D03*
X0158835Y0057933D03*
X0152634Y0056461D03*
X0144823Y0063398D03*
X0142335Y0071933D03*
X0146260Y0079114D03*
X0138835Y0089433D03*
X0139335Y0097433D03*
X0147638Y0102425D03*
X0140335Y0108933D03*
X0132949Y0115516D03*
X0150102Y0116484D03*
X0154508Y0112047D03*
X0159413Y0107547D03*
X0159335Y0119933D03*
X0178335Y0113933D03*
X0184335Y0113933D03*
X0206335Y0113933D03*
X0233335Y0137933D03*
X0241335Y0143933D03*
X0249335Y0144933D03*
X0255335Y0125933D03*
X0264335Y0127933D03*
X0273335Y0115933D03*
X0261508Y0108831D03*
X0270335Y0105933D03*
X0255508Y0108831D03*
X0250508Y0108831D03*
X0283335Y0142933D03*
X0283335Y0151933D03*
X0273335Y0151933D03*
X0293335Y0142933D03*
X0303335Y0142933D03*
X0318335Y0128933D03*
X0303335Y0114933D03*
X0289335Y0114933D03*
X0327335Y0087933D03*
X0370335Y0087933D03*
X0357358Y0180476D03*
X0357358Y0186382D03*
X0357358Y0192287D03*
X0351453Y0192287D03*
X0345547Y0192287D03*
X0329799Y0192287D03*
X0335705Y0210004D03*
X0341610Y0210004D03*
X0351453Y0221815D03*
X0355390Y0217878D03*
X0359327Y0213941D03*
X0365232Y0210004D03*
X0371138Y0210004D03*
X0377043Y0210004D03*
X0382949Y0210004D03*
X0388854Y0210004D03*
X0406571Y0210004D03*
X0412476Y0210004D03*
X0418382Y0210004D03*
X0424287Y0210004D03*
X0430193Y0210004D03*
X0436098Y0211972D03*
X0436098Y0217878D03*
X0436098Y0223783D03*
X0436098Y0229689D03*
X0436098Y0235594D03*
X0436098Y0241500D03*
X0436098Y0247406D03*
X0436098Y0253311D03*
X0436098Y0259217D03*
X0436098Y0265122D03*
X0436098Y0271028D03*
X0436098Y0276933D03*
X0436098Y0282839D03*
X0436098Y0288744D03*
X0436098Y0294650D03*
X0436098Y0300555D03*
X0430193Y0300555D03*
X0430193Y0294650D03*
X0424287Y0294650D03*
X0424287Y0300555D03*
X0424287Y0288744D03*
X0418382Y0288744D03*
X0412476Y0288744D03*
X0406571Y0288744D03*
X0400665Y0288744D03*
X0394760Y0288744D03*
X0388854Y0288744D03*
X0394760Y0310398D03*
X0394760Y0322209D03*
X0380980Y0320240D03*
X0375075Y0320240D03*
X0369169Y0320240D03*
X0375075Y0314335D03*
X0380980Y0314335D03*
X0399835Y0339433D03*
X0409335Y0347933D03*
X0409335Y0352933D03*
X0409335Y0357933D03*
X0409335Y0362933D03*
X0420335Y0343933D03*
X0420335Y0336933D03*
X0434335Y0346933D03*
X0414445Y0312366D03*
X0430193Y0288744D03*
X0430193Y0257248D03*
X0424287Y0257248D03*
X0418382Y0257248D03*
X0412476Y0257248D03*
X0406571Y0257248D03*
X0400665Y0257248D03*
X0394760Y0257248D03*
X0388854Y0257248D03*
X0382949Y0257248D03*
X0377043Y0257248D03*
X0377043Y0263154D03*
X0361295Y0255280D03*
X0357358Y0259217D03*
X0361295Y0249374D03*
X0361295Y0243469D03*
X0363264Y0233626D03*
X0369169Y0233626D03*
X0375075Y0233626D03*
X0390823Y0233626D03*
X0388854Y0192287D03*
X0384835Y0183933D03*
X0296335Y0211433D03*
X0292335Y0211433D03*
X0279335Y0224933D03*
X0272335Y0230933D03*
X0260335Y0228933D03*
X0254335Y0228933D03*
X0240335Y0226933D03*
X0230535Y0229033D03*
X0226335Y0230933D03*
X0222535Y0234933D03*
X0223335Y0239933D03*
X0218335Y0226933D03*
X0214335Y0204933D03*
X0224335Y0204933D03*
X0246335Y0205933D03*
X0263335Y0197933D03*
X0272335Y0199933D03*
X0272335Y0205933D03*
X0267335Y0216933D03*
X0272335Y0193933D03*
X0263335Y0179433D03*
X0263335Y0173933D03*
X0210335Y0166933D03*
X0205335Y0159933D03*
X0187335Y0157933D03*
X0178335Y0172933D03*
X0160335Y0164933D03*
X0159335Y0142933D03*
X0116732Y0107142D03*
X0121335Y0097433D03*
X0121138Y0089020D03*
X0119335Y0071933D03*
X0127335Y0071933D03*
X0111335Y0071933D03*
X0097335Y0071933D03*
X0066835Y0097433D03*
X0136386Y0054961D03*
X0160335Y0074933D03*
X0180335Y0074933D03*
X0200335Y0074933D03*
X0193335Y0054933D03*
X0229335Y0052933D03*
X0233335Y0060933D03*
X0160508Y0095831D03*
X0101453Y0186382D03*
X0141335Y0224933D03*
X0141335Y0232933D03*
X0151335Y0222933D03*
X0156835Y0223433D03*
X0133335Y0286933D03*
X0118335Y0285933D03*
X0102335Y0307933D03*
X0102335Y0312433D03*
X0102335Y0319933D03*
X0102335Y0327933D03*
X0102335Y0332933D03*
X0088335Y0350933D03*
X0087335Y0358933D03*
X0099335Y0356933D03*
X0107335Y0356433D03*
X0125335Y0350933D03*
X0142335Y0345933D03*
X0143335Y0359933D03*
X0151335Y0375933D03*
X0158335Y0375933D03*
X0149335Y0391933D03*
X0143335Y0399933D03*
X0138335Y0403933D03*
X0134335Y0397933D03*
X0128335Y0404933D03*
X0132335Y0380933D03*
X0098335Y0373933D03*
X0090335Y0380933D03*
X0073894Y0389138D03*
X0071335Y0380933D03*
X0066020Y0385201D03*
X0056177Y0385201D03*
X0050272Y0389138D03*
X0072335Y0367933D03*
X0070335Y0350933D03*
X0050272Y0334020D03*
X0050272Y0328114D03*
X0050272Y0322209D03*
X0050272Y0316303D03*
X0050272Y0310398D03*
X0050272Y0304492D03*
X0050272Y0280870D03*
X0050272Y0274965D03*
X0050272Y0269059D03*
X0050272Y0249374D03*
X0050272Y0243469D03*
X0050272Y0237563D03*
X0050272Y0231657D03*
X0050272Y0225752D03*
X0050272Y0206067D03*
X0050272Y0182445D03*
X0150335Y0288933D03*
X0154335Y0292933D03*
X0152335Y0308933D03*
X0132335Y0313933D03*
X0133335Y0323933D03*
X0134335Y0330933D03*
X0096335Y0307933D03*
X0087835Y0408933D03*
X0077831Y0416697D03*
X0152634Y0416697D03*
X0158539Y0416697D03*
X0164445Y0416697D03*
X0170350Y0416697D03*
X0210335Y0379933D03*
X0220335Y0385933D03*
X0226335Y0392933D03*
X0238335Y0393933D03*
X0237335Y0384933D03*
X0221335Y0403933D03*
X0221531Y0416697D03*
X0227437Y0416697D03*
X0235311Y0416697D03*
X0245154Y0416697D03*
X0254996Y0416697D03*
X0277650Y0416697D03*
X0283555Y0416697D03*
X0289461Y0416697D03*
X0298303Y0416697D03*
X0308146Y0416697D03*
X0317988Y0416697D03*
X0340610Y0416697D03*
X0346516Y0416697D03*
X0352421Y0416697D03*
X0361295Y0416697D03*
X0371138Y0416697D03*
X0380980Y0416697D03*
X0408539Y0416697D03*
X0436098Y0389138D03*
X0436098Y0381264D03*
X0386335Y0343933D03*
X0381335Y0343933D03*
X0376335Y0348933D03*
X0376335Y0353933D03*
X0376335Y0369433D03*
X0376335Y0374933D03*
X0354335Y0384933D03*
X0321335Y0351933D03*
X0322335Y0346933D03*
X0323335Y0337933D03*
X0298335Y0353933D03*
X0294335Y0361933D03*
X0288335Y0366933D03*
X0277335Y0366933D03*
X0273335Y0363933D03*
X0269335Y0366933D03*
X0259335Y0362933D03*
X0262335Y0352933D03*
X0268835Y0353933D03*
X0283335Y0353933D03*
X0304335Y0366933D03*
X0288335Y0387933D03*
X0282335Y0387933D03*
X0255335Y0341933D03*
X0276335Y0319933D03*
X0272335Y0308933D03*
X0273335Y0303933D03*
X0283335Y0305933D03*
X0282835Y0297433D03*
X0287335Y0294933D03*
X0290335Y0287933D03*
X0295335Y0287933D03*
X0290335Y0282933D03*
X0295335Y0281933D03*
X0295335Y0276933D03*
X0291335Y0265933D03*
X0291335Y0260933D03*
X0299335Y0259933D03*
X0295335Y0247933D03*
X0291335Y0242933D03*
X0296335Y0230933D03*
X0277335Y0251933D03*
X0273335Y0254433D03*
X0277335Y0256933D03*
X0278335Y0263933D03*
X0272535Y0269833D03*
X0274835Y0273933D03*
X0279335Y0272933D03*
X0267835Y0270933D03*
X0259335Y0274933D03*
X0252335Y0273933D03*
X0251335Y0268933D03*
X0245335Y0267933D03*
X0242335Y0271933D03*
X0237335Y0268933D03*
X0233335Y0264933D03*
X0230335Y0257933D03*
X0236335Y0252933D03*
X0244335Y0252933D03*
X0242335Y0258305D03*
X0248335Y0257933D03*
X0257335Y0264933D03*
X0263335Y0253933D03*
X0265335Y0244933D03*
X0260335Y0244933D03*
X0255335Y0244933D03*
X0231335Y0275933D03*
X0236335Y0277933D03*
X0244335Y0280933D03*
X0254335Y0286933D03*
X0259335Y0285933D03*
X0257835Y0290933D03*
X0264835Y0292933D03*
X0268335Y0288933D03*
X0271835Y0291933D03*
X0276335Y0292933D03*
X0279835Y0289933D03*
X0275335Y0283933D03*
X0293335Y0306933D03*
X0293335Y0312933D03*
X0297335Y0315933D03*
X0299335Y0305933D03*
X0242335Y0312933D03*
X0234335Y0290933D03*
X0208335Y0305933D03*
X0203835Y0303933D03*
D29*
X0203335Y0308105D02*
X0203335Y0336530D01*
X0202878Y0337632D01*
X0194878Y0345632D01*
X0194034Y0346476D01*
X0192931Y0346933D01*
X0166577Y0346933D01*
X0162578Y0350933D01*
X0163698Y0351397D01*
X0164871Y0352570D01*
X0165506Y0354103D01*
X0165506Y0355763D01*
X0164871Y0357296D01*
X0163698Y0358470D01*
X0162164Y0359105D01*
X0160505Y0359105D01*
X0158972Y0358470D01*
X0157798Y0357296D01*
X0157334Y0356176D01*
X0145335Y0368176D01*
X0145335Y0390689D01*
X0145798Y0389570D01*
X0146972Y0388397D01*
X0148505Y0387761D01*
X0150164Y0387761D01*
X0151698Y0388397D01*
X0152871Y0389570D01*
X0153506Y0391103D01*
X0153506Y0392763D01*
X0152871Y0394296D01*
X0151698Y0395470D01*
X0150164Y0396105D01*
X0149749Y0396105D01*
X0149878Y0396234D01*
X0150335Y0397336D01*
X0150335Y0402530D01*
X0149878Y0403632D01*
X0147878Y0405632D01*
X0147878Y0405632D01*
X0147034Y0406476D01*
X0145931Y0406933D01*
X0141234Y0406933D01*
X0140698Y0407470D01*
X0139164Y0408105D01*
X0137505Y0408105D01*
X0135972Y0407470D01*
X0134798Y0406296D01*
X0134163Y0404763D01*
X0134163Y0403103D01*
X0134577Y0402105D01*
X0133505Y0402105D01*
X0131972Y0401470D01*
X0130798Y0400296D01*
X0130163Y0398763D01*
X0130163Y0397103D01*
X0130798Y0395570D01*
X0131972Y0394397D01*
X0133335Y0393832D01*
X0133335Y0385034D01*
X0133164Y0385105D01*
X0131505Y0385105D01*
X0129972Y0384470D01*
X0129124Y0383622D01*
X0127409Y0384333D01*
X0119261Y0384333D01*
X0117276Y0383511D01*
X0115757Y0381992D01*
X0114935Y0380007D01*
X0114935Y0377859D01*
X0115757Y0375874D01*
X0117276Y0374355D01*
X0118295Y0373933D01*
X0117276Y0373511D01*
X0115757Y0371992D01*
X0114935Y0370007D01*
X0114935Y0367859D01*
X0115757Y0365874D01*
X0117276Y0364355D01*
X0119261Y0363533D01*
X0127409Y0363533D01*
X0129393Y0364355D01*
X0130913Y0365874D01*
X0131735Y0367859D01*
X0131735Y0370007D01*
X0130913Y0371992D01*
X0129393Y0373511D01*
X0128374Y0373933D01*
X0129393Y0374355D01*
X0130913Y0375874D01*
X0131313Y0376841D01*
X0131505Y0376761D01*
X0133164Y0376761D01*
X0133335Y0376832D01*
X0133335Y0336336D01*
X0133791Y0335234D01*
X0133920Y0335105D01*
X0133505Y0335105D01*
X0131972Y0334470D01*
X0130798Y0333296D01*
X0130163Y0331763D01*
X0130163Y0330103D01*
X0130798Y0328570D01*
X0131972Y0327397D01*
X0133505Y0326761D01*
X0135164Y0326761D01*
X0136698Y0327397D01*
X0137335Y0328033D01*
X0137335Y0288177D01*
X0136871Y0289296D01*
X0135698Y0290470D01*
X0134164Y0291105D01*
X0132505Y0291105D01*
X0130972Y0290470D01*
X0129798Y0289296D01*
X0129163Y0287763D01*
X0129163Y0286103D01*
X0129798Y0284570D01*
X0130972Y0283397D01*
X0132505Y0282761D01*
X0134164Y0282761D01*
X0135698Y0283397D01*
X0136871Y0284570D01*
X0137506Y0286103D01*
X0137506Y0286922D01*
X0137791Y0286234D01*
X0138635Y0285390D01*
X0142791Y0281234D01*
X0143092Y0280933D01*
X0099577Y0280933D01*
X0091335Y0289176D01*
X0091335Y0293623D01*
X0091588Y0293185D01*
X0091958Y0292815D01*
X0092411Y0292554D01*
X0092916Y0292418D01*
X0100579Y0292418D01*
X0100579Y0297869D01*
X0102706Y0297869D01*
X0102706Y0292418D01*
X0110369Y0292418D01*
X0110874Y0292554D01*
X0111327Y0292815D01*
X0111697Y0293185D01*
X0111959Y0293638D01*
X0112094Y0294144D01*
X0112094Y0297869D01*
X0102706Y0297869D01*
X0102706Y0299997D01*
X0112094Y0299997D01*
X0112094Y0303722D01*
X0111959Y0304228D01*
X0111697Y0304681D01*
X0111327Y0305051D01*
X0110874Y0305313D01*
X0110369Y0305448D01*
X0105749Y0305448D01*
X0105871Y0305570D01*
X0106506Y0307103D01*
X0106506Y0308763D01*
X0105918Y0310183D01*
X0106506Y0311603D01*
X0106506Y0313263D01*
X0105871Y0314796D01*
X0104698Y0315970D01*
X0104182Y0316183D01*
X0104698Y0316397D01*
X0105871Y0317570D01*
X0106506Y0319103D01*
X0106506Y0320763D01*
X0105871Y0322296D01*
X0104698Y0323470D01*
X0103579Y0323933D01*
X0104698Y0324397D01*
X0105871Y0325570D01*
X0106506Y0327103D01*
X0106506Y0328763D01*
X0105871Y0330296D01*
X0105734Y0330433D01*
X0105871Y0330570D01*
X0106506Y0332103D01*
X0106506Y0333763D01*
X0105871Y0335296D01*
X0104698Y0336470D01*
X0103164Y0337105D01*
X0101505Y0337105D01*
X0099972Y0336470D01*
X0098798Y0335296D01*
X0098163Y0333763D01*
X0098163Y0332103D01*
X0098798Y0330570D01*
X0098935Y0330433D01*
X0098798Y0330296D01*
X0098163Y0328763D01*
X0098163Y0327103D01*
X0098798Y0325570D01*
X0099972Y0324397D01*
X0101090Y0323933D01*
X0099972Y0323470D01*
X0098798Y0322296D01*
X0098163Y0320763D01*
X0098163Y0319103D01*
X0098798Y0317570D01*
X0099972Y0316397D01*
X0100487Y0316183D01*
X0099972Y0315970D01*
X0098798Y0314796D01*
X0098163Y0313263D01*
X0098163Y0311691D01*
X0097164Y0312105D01*
X0095505Y0312105D01*
X0093972Y0311470D01*
X0092798Y0310296D01*
X0092163Y0308763D01*
X0092163Y0307103D01*
X0092798Y0305570D01*
X0092920Y0305448D01*
X0092916Y0305448D01*
X0092411Y0305313D01*
X0091958Y0305051D01*
X0091588Y0304681D01*
X0091335Y0304243D01*
X0091335Y0332690D01*
X0095034Y0336390D01*
X0095878Y0337234D01*
X0096335Y0338336D01*
X0096335Y0354033D01*
X0096972Y0353397D01*
X0098505Y0352761D01*
X0100164Y0352761D01*
X0101698Y0353397D01*
X0102871Y0354570D01*
X0103231Y0355439D01*
X0103798Y0354070D01*
X0104972Y0352897D01*
X0106505Y0352261D01*
X0108164Y0352261D01*
X0109698Y0352897D01*
X0110871Y0354070D01*
X0111506Y0355603D01*
X0111506Y0357263D01*
X0110871Y0358796D01*
X0109698Y0359970D01*
X0108164Y0360605D01*
X0106505Y0360605D01*
X0104972Y0359970D01*
X0103798Y0358796D01*
X0103438Y0357927D01*
X0102871Y0359296D01*
X0101698Y0360470D01*
X0100164Y0361105D01*
X0098505Y0361105D01*
X0096972Y0360470D01*
X0096335Y0359833D01*
X0096335Y0362530D01*
X0095878Y0363632D01*
X0095034Y0364476D01*
X0076878Y0382632D01*
X0076034Y0383476D01*
X0074931Y0383933D01*
X0074234Y0383933D01*
X0073698Y0384470D01*
X0072164Y0385105D01*
X0070505Y0385105D01*
X0068972Y0384470D01*
X0067798Y0383296D01*
X0067163Y0381763D01*
X0067163Y0380103D01*
X0067798Y0378570D01*
X0068972Y0377397D01*
X0070505Y0376761D01*
X0072164Y0376761D01*
X0073649Y0377376D01*
X0087920Y0363105D01*
X0087406Y0363105D01*
X0080034Y0370476D01*
X0078931Y0370933D01*
X0075234Y0370933D01*
X0074698Y0371470D01*
X0073164Y0372105D01*
X0071505Y0372105D01*
X0069972Y0371470D01*
X0068798Y0370296D01*
X0068163Y0368763D01*
X0068163Y0367103D01*
X0068798Y0365570D01*
X0069972Y0364397D01*
X0071505Y0363761D01*
X0073164Y0363761D01*
X0074698Y0364397D01*
X0075234Y0364933D01*
X0077092Y0364933D01*
X0083163Y0358862D01*
X0083163Y0358103D01*
X0083798Y0356570D01*
X0084972Y0355397D01*
X0086505Y0354761D01*
X0086676Y0354761D01*
X0085972Y0354470D01*
X0084798Y0353296D01*
X0084163Y0351763D01*
X0084163Y0350103D01*
X0084798Y0348570D01*
X0085972Y0347397D01*
X0087505Y0346761D01*
X0089164Y0346761D01*
X0090335Y0347246D01*
X0090335Y0340176D01*
X0085791Y0335632D01*
X0085335Y0334530D01*
X0085335Y0287336D01*
X0085791Y0286234D01*
X0086635Y0285390D01*
X0095791Y0276234D01*
X0096635Y0275390D01*
X0097738Y0274933D01*
X0171090Y0274933D01*
X0169972Y0274470D01*
X0168798Y0273296D01*
X0168163Y0271763D01*
X0168163Y0271105D01*
X0167505Y0271105D01*
X0165972Y0270470D01*
X0164798Y0269296D01*
X0164163Y0267763D01*
X0164163Y0266103D01*
X0164798Y0264570D01*
X0165972Y0263397D01*
X0167505Y0262761D01*
X0169164Y0262761D01*
X0170698Y0263397D01*
X0171871Y0264570D01*
X0172163Y0265275D01*
X0172163Y0265103D01*
X0172798Y0263570D01*
X0173972Y0262397D01*
X0175505Y0261761D01*
X0177164Y0261761D01*
X0178698Y0262397D01*
X0179871Y0263570D01*
X0180506Y0265103D01*
X0180506Y0266763D01*
X0179871Y0268296D01*
X0178698Y0269470D01*
X0177164Y0270105D01*
X0176506Y0270105D01*
X0176506Y0271763D01*
X0175871Y0273296D01*
X0174698Y0274470D01*
X0173164Y0275105D01*
X0172346Y0275105D01*
X0173034Y0275390D01*
X0173577Y0275933D01*
X0180092Y0275933D01*
X0184764Y0271262D01*
X0183798Y0270296D01*
X0183163Y0268763D01*
X0183163Y0267103D01*
X0183798Y0265570D01*
X0184972Y0264397D01*
X0186505Y0263761D01*
X0188164Y0263761D01*
X0189698Y0264397D01*
X0190663Y0265362D01*
X0192335Y0263690D01*
X0192335Y0263620D01*
X0191164Y0264105D01*
X0189505Y0264105D01*
X0187972Y0263470D01*
X0186798Y0262296D01*
X0186163Y0260763D01*
X0186163Y0259103D01*
X0186798Y0257570D01*
X0187972Y0256397D01*
X0188935Y0255998D01*
X0188935Y0246576D01*
X0188034Y0247476D01*
X0187362Y0247755D01*
X0187506Y0248103D01*
X0187506Y0249763D01*
X0186871Y0251296D01*
X0185698Y0252470D01*
X0184164Y0253105D01*
X0182505Y0253105D01*
X0180972Y0252470D01*
X0179798Y0251296D01*
X0179163Y0249763D01*
X0179163Y0248103D01*
X0179234Y0247933D01*
X0177738Y0247933D01*
X0176635Y0247476D01*
X0175791Y0246632D01*
X0165092Y0235933D01*
X0144234Y0235933D01*
X0143698Y0236470D01*
X0142164Y0237105D01*
X0140505Y0237105D01*
X0138972Y0236470D01*
X0137798Y0235296D01*
X0137163Y0233763D01*
X0137163Y0232103D01*
X0137798Y0230570D01*
X0138972Y0229397D01*
X0140090Y0228933D01*
X0138972Y0228470D01*
X0137798Y0227296D01*
X0137163Y0225763D01*
X0137163Y0224103D01*
X0137798Y0222570D01*
X0138972Y0221397D01*
X0140505Y0220761D01*
X0142164Y0220761D01*
X0143698Y0221397D01*
X0144871Y0222570D01*
X0145506Y0224103D01*
X0145506Y0225763D01*
X0144871Y0227296D01*
X0143698Y0228470D01*
X0142579Y0228933D01*
X0143698Y0229397D01*
X0144234Y0229933D01*
X0166931Y0229933D01*
X0168034Y0230390D01*
X0179163Y0241519D01*
X0179163Y0241287D01*
X0157231Y0219354D01*
X0153576Y0219346D01*
X0153698Y0219397D01*
X0154871Y0220570D01*
X0155506Y0222103D01*
X0155506Y0223763D01*
X0154871Y0225296D01*
X0153698Y0226470D01*
X0152164Y0227105D01*
X0150505Y0227105D01*
X0148972Y0226470D01*
X0147798Y0225296D01*
X0147163Y0223763D01*
X0147163Y0222103D01*
X0147798Y0220570D01*
X0148972Y0219397D01*
X0149118Y0219336D01*
X0115143Y0219257D01*
X0113816Y0220585D01*
X0112700Y0221047D01*
X0113816Y0221509D01*
X0115321Y0223015D01*
X0116136Y0224983D01*
X0116136Y0227112D01*
X0115321Y0229079D01*
X0113816Y0230585D01*
X0111848Y0231400D01*
X0109719Y0231400D01*
X0107751Y0230585D01*
X0106246Y0229079D01*
X0105431Y0227112D01*
X0105431Y0224983D01*
X0106246Y0223015D01*
X0107751Y0221509D01*
X0108867Y0221047D01*
X0107751Y0220585D01*
X0106246Y0219079D01*
X0105431Y0217112D01*
X0105431Y0214983D01*
X0106246Y0213015D01*
X0107751Y0211509D01*
X0109719Y0210694D01*
X0111848Y0210694D01*
X0113816Y0211509D01*
X0115163Y0212857D01*
X0158563Y0212957D01*
X0159196Y0212957D01*
X0159199Y0212959D01*
X0159203Y0212959D01*
X0159786Y0213202D01*
X0160372Y0213445D01*
X0160374Y0213447D01*
X0160378Y0213449D01*
X0160823Y0213896D01*
X0183688Y0236761D01*
X0184164Y0236761D01*
X0185335Y0237246D01*
X0185335Y0228034D01*
X0183972Y0227470D01*
X0182798Y0226296D01*
X0182163Y0224763D01*
X0182163Y0223103D01*
X0182798Y0221570D01*
X0183972Y0220397D01*
X0185505Y0219761D01*
X0187164Y0219761D01*
X0188698Y0220397D01*
X0189871Y0221570D01*
X0190506Y0223103D01*
X0190506Y0223862D01*
X0190878Y0224234D01*
X0191335Y0225336D01*
X0191335Y0230203D01*
X0192335Y0228909D01*
X0192335Y0197333D01*
X0188634Y0197333D01*
X0188871Y0197570D01*
X0189506Y0199103D01*
X0189506Y0200763D01*
X0188871Y0202296D01*
X0187698Y0203470D01*
X0186164Y0204105D01*
X0184505Y0204105D01*
X0182972Y0203470D01*
X0181798Y0202296D01*
X0181163Y0200763D01*
X0181163Y0199103D01*
X0181798Y0197570D01*
X0182972Y0196397D01*
X0184505Y0195761D01*
X0186164Y0195761D01*
X0186782Y0196017D01*
X0185043Y0194278D01*
X0182400Y0196920D01*
X0180335Y0196920D01*
X0180335Y0191933D01*
X0180335Y0186946D01*
X0182400Y0186946D01*
X0185043Y0189588D01*
X0187698Y0186933D01*
X0185043Y0184278D01*
X0182400Y0186920D01*
X0180335Y0186920D01*
X0180335Y0181933D01*
X0180335Y0176946D01*
X0182400Y0176946D01*
X0185043Y0179588D01*
X0188098Y0176533D01*
X0191492Y0176533D01*
X0196135Y0171890D01*
X0197238Y0171433D01*
X0232199Y0171433D01*
X0232657Y0171391D01*
X0232791Y0171433D01*
X0232931Y0171433D01*
X0233357Y0171609D01*
X0233797Y0171746D01*
X0233904Y0171836D01*
X0234034Y0171890D01*
X0234360Y0172216D01*
X0236904Y0174336D01*
X0237034Y0174390D01*
X0237360Y0174716D01*
X0237714Y0175010D01*
X0237779Y0175135D01*
X0237878Y0175234D01*
X0238054Y0175659D01*
X0238268Y0176067D01*
X0238281Y0176207D01*
X0238335Y0176336D01*
X0238335Y0176533D01*
X0242571Y0176533D01*
X0245335Y0179296D01*
X0248098Y0176533D01*
X0252571Y0176533D01*
X0255735Y0179696D01*
X0255735Y0184170D01*
X0252971Y0186933D01*
X0255735Y0189696D01*
X0255735Y0194170D01*
X0252571Y0197333D01*
X0248098Y0197333D01*
X0245335Y0194570D01*
X0242571Y0197333D01*
X0238335Y0197333D01*
X0238335Y0206190D01*
X0242577Y0210433D01*
X0252770Y0210433D01*
X0252799Y0210422D01*
X0253365Y0210433D01*
X0253931Y0210433D01*
X0253961Y0210445D01*
X0253992Y0210446D01*
X0254511Y0210673D01*
X0255034Y0210890D01*
X0255056Y0210912D01*
X0255086Y0210925D01*
X0255477Y0211333D01*
X0255878Y0211734D01*
X0255890Y0211763D01*
X0267477Y0223833D01*
X0267878Y0224234D01*
X0267890Y0224263D01*
X0267912Y0224286D01*
X0268118Y0224813D01*
X0268335Y0225336D01*
X0268335Y0225368D01*
X0268346Y0225398D01*
X0268335Y0225964D01*
X0268335Y0229689D01*
X0268798Y0228570D01*
X0269972Y0227397D01*
X0271505Y0226761D01*
X0273164Y0226761D01*
X0274698Y0227397D01*
X0275871Y0228570D01*
X0276506Y0230103D01*
X0276506Y0230862D01*
X0280377Y0234733D01*
X0294608Y0234733D01*
X0293972Y0234470D01*
X0292798Y0233296D01*
X0292163Y0231763D01*
X0292163Y0230103D01*
X0292335Y0229689D01*
X0292335Y0222933D01*
X0286991Y0222933D01*
X0283043Y0226882D01*
X0282871Y0227296D01*
X0281698Y0228470D01*
X0280164Y0229105D01*
X0278505Y0229105D01*
X0276972Y0228470D01*
X0275798Y0227296D01*
X0275163Y0225763D01*
X0275163Y0224103D01*
X0275798Y0222570D01*
X0276972Y0221397D01*
X0277386Y0221225D01*
X0283069Y0215542D01*
X0284539Y0214933D01*
X0317130Y0214933D01*
X0318600Y0215542D01*
X0319726Y0216667D01*
X0319726Y0216667D01*
X0325726Y0222667D01*
X0325862Y0222997D01*
X0325862Y0215909D01*
X0319957Y0210004D01*
X0319957Y0132777D01*
X0319164Y0133105D01*
X0317505Y0133105D01*
X0315972Y0132470D01*
X0314798Y0131296D01*
X0314163Y0129763D01*
X0314163Y0128103D01*
X0314798Y0126570D01*
X0315972Y0125397D01*
X0317505Y0124761D01*
X0319164Y0124761D01*
X0319957Y0125090D01*
X0319957Y0105673D01*
X0274506Y0105673D01*
X0274506Y0106763D01*
X0273871Y0108296D01*
X0272698Y0109470D01*
X0271164Y0110105D01*
X0269505Y0110105D01*
X0267972Y0109470D01*
X0266798Y0108296D01*
X0266163Y0106763D01*
X0266163Y0105673D01*
X0249091Y0105673D01*
X0249091Y0059933D01*
X0237436Y0059933D01*
X0237506Y0060103D01*
X0237506Y0061763D01*
X0236871Y0063296D01*
X0235698Y0064470D01*
X0234164Y0065105D01*
X0232505Y0065105D01*
X0230972Y0064470D01*
X0229798Y0063296D01*
X0229163Y0061763D01*
X0229163Y0060103D01*
X0229798Y0058570D01*
X0229939Y0058429D01*
X0223783Y0058429D01*
X0223783Y0070725D01*
X0229991Y0076933D01*
X0232698Y0076933D01*
X0233276Y0076355D01*
X0234295Y0075933D01*
X0233276Y0075511D01*
X0231757Y0073992D01*
X0230935Y0072007D01*
X0230935Y0069859D01*
X0231757Y0067874D01*
X0233276Y0066355D01*
X0235261Y0065533D01*
X0243409Y0065533D01*
X0245393Y0066355D01*
X0246913Y0067874D01*
X0247735Y0069859D01*
X0247735Y0072007D01*
X0246913Y0073992D01*
X0245393Y0075511D01*
X0244374Y0075933D01*
X0245393Y0076355D01*
X0246913Y0077874D01*
X0247735Y0079859D01*
X0247735Y0082007D01*
X0246913Y0083992D01*
X0245393Y0085511D01*
X0244374Y0085933D01*
X0245393Y0086355D01*
X0246913Y0087874D01*
X0247735Y0089859D01*
X0247735Y0092007D01*
X0246913Y0093992D01*
X0245393Y0095511D01*
X0244374Y0095933D01*
X0245393Y0096355D01*
X0246913Y0097874D01*
X0247735Y0099859D01*
X0247735Y0102007D01*
X0246913Y0103992D01*
X0245393Y0105511D01*
X0244374Y0105933D01*
X0245393Y0106355D01*
X0246913Y0107874D01*
X0247735Y0109859D01*
X0247735Y0112007D01*
X0246913Y0113992D01*
X0245393Y0115511D01*
X0243808Y0116168D01*
X0244249Y0116311D01*
X0244949Y0116667D01*
X0245584Y0117129D01*
X0246139Y0117684D01*
X0246600Y0118319D01*
X0246957Y0119019D01*
X0247199Y0119765D01*
X0247322Y0120541D01*
X0247322Y0120933D01*
X0239335Y0120933D01*
X0239335Y0120933D01*
X0247322Y0120933D01*
X0247322Y0121326D01*
X0247222Y0121954D01*
X0252295Y0116881D01*
X0253619Y0116333D01*
X0262051Y0116333D01*
X0263374Y0116881D01*
X0264387Y0117894D01*
X0267387Y0120894D01*
X0267935Y0122217D01*
X0267935Y0125723D01*
X0268506Y0127103D01*
X0268506Y0128763D01*
X0267871Y0130296D01*
X0266698Y0131470D01*
X0265164Y0132105D01*
X0263505Y0132105D01*
X0261972Y0131470D01*
X0260798Y0130296D01*
X0260163Y0128763D01*
X0260163Y0127103D01*
X0260735Y0125723D01*
X0260735Y0124424D01*
X0259843Y0123533D01*
X0258834Y0123533D01*
X0258871Y0123570D01*
X0259506Y0125103D01*
X0259506Y0126763D01*
X0258871Y0128296D01*
X0257698Y0129470D01*
X0256318Y0130041D01*
X0251426Y0134933D01*
X0284931Y0134933D01*
X0286034Y0135390D01*
X0286878Y0136234D01*
X0290034Y0139390D01*
X0290506Y0139862D01*
X0290972Y0139397D01*
X0292505Y0138761D01*
X0294164Y0138761D01*
X0295698Y0139397D01*
X0296871Y0140570D01*
X0297506Y0142103D01*
X0297506Y0143763D01*
X0296871Y0145296D01*
X0295698Y0146470D01*
X0294164Y0147105D01*
X0292505Y0147105D01*
X0291335Y0146620D01*
X0291335Y0155530D01*
X0290878Y0156632D01*
X0284335Y0163176D01*
X0284335Y0197530D01*
X0283878Y0198632D01*
X0276506Y0206004D01*
X0276506Y0206763D01*
X0275871Y0208296D01*
X0274698Y0209470D01*
X0273164Y0210105D01*
X0271505Y0210105D01*
X0270335Y0209620D01*
X0270335Y0214033D01*
X0270871Y0214570D01*
X0271506Y0216103D01*
X0271506Y0217763D01*
X0270871Y0219296D01*
X0269698Y0220470D01*
X0268164Y0221105D01*
X0266505Y0221105D01*
X0264972Y0220470D01*
X0263798Y0219296D01*
X0263163Y0217763D01*
X0263163Y0216103D01*
X0263798Y0214570D01*
X0264335Y0214033D01*
X0264335Y0202034D01*
X0264164Y0202105D01*
X0262505Y0202105D01*
X0260972Y0201470D01*
X0260226Y0200724D01*
X0253902Y0207575D01*
X0253878Y0207632D01*
X0253498Y0208012D01*
X0253134Y0208406D01*
X0253078Y0208432D01*
X0253034Y0208476D01*
X0252538Y0208682D01*
X0252051Y0208907D01*
X0251989Y0208909D01*
X0251931Y0208933D01*
X0251395Y0208933D01*
X0250858Y0208955D01*
X0250800Y0208933D01*
X0249234Y0208933D01*
X0248698Y0209470D01*
X0247164Y0210105D01*
X0245505Y0210105D01*
X0243972Y0209470D01*
X0242798Y0208296D01*
X0242163Y0206763D01*
X0242163Y0205103D01*
X0242798Y0203570D01*
X0243972Y0202397D01*
X0245505Y0201761D01*
X0247164Y0201761D01*
X0248698Y0202397D01*
X0249234Y0202933D01*
X0250021Y0202933D01*
X0260768Y0191291D01*
X0260791Y0191234D01*
X0261171Y0190854D01*
X0261535Y0190460D01*
X0261591Y0190434D01*
X0264835Y0187190D01*
X0264835Y0177827D01*
X0264164Y0178105D01*
X0262505Y0178105D01*
X0260972Y0177470D01*
X0259798Y0176296D01*
X0259163Y0174763D01*
X0259163Y0173103D01*
X0259798Y0171570D01*
X0260972Y0170397D01*
X0262505Y0169761D01*
X0264164Y0169761D01*
X0264486Y0169895D01*
X0264335Y0169530D01*
X0264335Y0157176D01*
X0261092Y0153933D01*
X0200738Y0153933D01*
X0199635Y0153476D01*
X0181791Y0135632D01*
X0181535Y0135013D01*
X0181535Y0170233D01*
X0181871Y0170570D01*
X0182506Y0172103D01*
X0182506Y0173763D01*
X0181871Y0175296D01*
X0180698Y0176470D01*
X0179548Y0176946D01*
X0180335Y0176946D01*
X0180335Y0181933D01*
X0180335Y0181933D01*
X0180335Y0181933D01*
X0180335Y0186920D01*
X0178269Y0186920D01*
X0175347Y0183999D01*
X0175347Y0181933D01*
X0175347Y0179867D01*
X0178110Y0177105D01*
X0177505Y0177105D01*
X0175972Y0176470D01*
X0174798Y0175296D01*
X0174163Y0173763D01*
X0174163Y0172103D01*
X0174798Y0170570D01*
X0175135Y0170233D01*
X0175135Y0116633D01*
X0174798Y0116296D01*
X0174163Y0114763D01*
X0174163Y0113103D01*
X0174798Y0111570D01*
X0175972Y0110397D01*
X0177505Y0109761D01*
X0179164Y0109761D01*
X0180698Y0110397D01*
X0181335Y0111033D01*
X0181972Y0110397D01*
X0183505Y0109761D01*
X0185164Y0109761D01*
X0185735Y0109998D01*
X0185735Y0107906D01*
X0167295Y0089467D01*
X0166283Y0088454D01*
X0165735Y0087131D01*
X0165735Y0069031D01*
X0158080Y0062105D01*
X0158005Y0062105D01*
X0156472Y0061470D01*
X0155298Y0060296D01*
X0154663Y0058763D01*
X0154663Y0057103D01*
X0155298Y0055570D01*
X0156472Y0054397D01*
X0157508Y0053967D01*
X0157508Y0029333D01*
X0144760Y0029333D01*
X0144760Y0037858D01*
X0144851Y0037284D01*
X0145152Y0036358D01*
X0145594Y0035490D01*
X0146166Y0034702D01*
X0146855Y0034014D01*
X0147643Y0033441D01*
X0148511Y0032999D01*
X0149437Y0032698D01*
X0150399Y0032546D01*
X0150686Y0032546D01*
X0150686Y0042733D01*
X0151086Y0042733D01*
X0151086Y0043133D01*
X0157073Y0043133D01*
X0157073Y0047620D01*
X0156921Y0048582D01*
X0156620Y0049508D01*
X0156178Y0050376D01*
X0155605Y0051164D01*
X0154917Y0051853D01*
X0154129Y0052425D01*
X0153261Y0052867D01*
X0152335Y0053168D01*
X0151373Y0053320D01*
X0151086Y0053320D01*
X0151086Y0043133D01*
X0150686Y0043133D01*
X0150686Y0053320D01*
X0150399Y0053320D01*
X0149437Y0053168D01*
X0148511Y0052867D01*
X0147643Y0052425D01*
X0146855Y0051853D01*
X0146166Y0051164D01*
X0145594Y0050376D01*
X0145152Y0049508D01*
X0144851Y0048582D01*
X0144760Y0048008D01*
X0144760Y0050555D01*
X0154602Y0060398D01*
X0154602Y0074177D01*
X0156163Y0075738D01*
X0156163Y0074103D01*
X0156798Y0072570D01*
X0157972Y0071397D01*
X0159505Y0070761D01*
X0161164Y0070761D01*
X0162698Y0071397D01*
X0163871Y0072570D01*
X0164506Y0074103D01*
X0164506Y0075763D01*
X0163871Y0077296D01*
X0162698Y0078470D01*
X0161164Y0079105D01*
X0159505Y0079105D01*
X0158539Y0078705D01*
X0158539Y0106705D01*
X0140823Y0124421D01*
X0140823Y0196224D01*
X0075862Y0196224D01*
X0075862Y0172602D01*
X0065114Y0172602D01*
X0065609Y0172962D01*
X0066093Y0173446D01*
X0066496Y0174000D01*
X0066807Y0174610D01*
X0067018Y0175261D01*
X0067125Y0175937D01*
X0067125Y0176279D01*
X0060414Y0176279D01*
X0060414Y0176280D01*
X0067125Y0176280D01*
X0067125Y0176622D01*
X0067018Y0177298D01*
X0066807Y0177949D01*
X0066496Y0178559D01*
X0066093Y0179113D01*
X0065609Y0179597D01*
X0065055Y0180000D01*
X0064445Y0180310D01*
X0063794Y0180522D01*
X0063118Y0180629D01*
X0060413Y0180629D01*
X0057709Y0180629D01*
X0057033Y0180522D01*
X0056382Y0180310D01*
X0055771Y0180000D01*
X0055218Y0179597D01*
X0054733Y0179113D01*
X0054331Y0178559D01*
X0054020Y0177949D01*
X0053809Y0177298D01*
X0053702Y0176622D01*
X0053702Y0176280D01*
X0060413Y0176280D01*
X0060413Y0180629D01*
X0060413Y0176280D01*
X0060413Y0176280D01*
X0060413Y0176279D01*
X0053702Y0176279D01*
X0053702Y0175937D01*
X0053809Y0175261D01*
X0054020Y0174610D01*
X0054331Y0174000D01*
X0054733Y0173446D01*
X0055218Y0172962D01*
X0055712Y0172602D01*
X0048735Y0172602D01*
X0048735Y0211210D01*
X0049226Y0210024D01*
X0051728Y0207521D01*
X0054998Y0206167D01*
X0058537Y0206167D01*
X0061651Y0207457D01*
X0061651Y0205142D01*
X0062736Y0202523D01*
X0064740Y0200519D01*
X0067358Y0199435D01*
X0070193Y0199435D01*
X0072811Y0200519D01*
X0074815Y0202523D01*
X0075900Y0205142D01*
X0075900Y0207976D01*
X0074815Y0210595D01*
X0072811Y0212599D01*
X0070193Y0213683D01*
X0067358Y0213683D01*
X0065508Y0212917D01*
X0065664Y0213293D01*
X0065664Y0216833D01*
X0064309Y0220102D01*
X0061807Y0222605D01*
X0058537Y0223959D01*
X0054998Y0223959D01*
X0051728Y0222605D01*
X0049226Y0220102D01*
X0048735Y0218916D01*
X0048735Y0256210D01*
X0049226Y0255024D01*
X0051728Y0252521D01*
X0054998Y0251167D01*
X0058537Y0251167D01*
X0061807Y0252521D01*
X0064309Y0255024D01*
X0065664Y0258293D01*
X0065664Y0261833D01*
X0065508Y0262209D01*
X0067358Y0261443D01*
X0070193Y0261443D01*
X0072811Y0262527D01*
X0074815Y0264531D01*
X0075900Y0267150D01*
X0075900Y0269984D01*
X0074815Y0272603D01*
X0072811Y0274607D01*
X0070193Y0275691D01*
X0067358Y0275691D01*
X0064740Y0274607D01*
X0062736Y0272603D01*
X0061651Y0269984D01*
X0061651Y0267669D01*
X0058537Y0268959D01*
X0054998Y0268959D01*
X0051728Y0267605D01*
X0049226Y0265102D01*
X0048735Y0263916D01*
X0048735Y0392479D01*
X0050033Y0390980D01*
X0050033Y0390980D01*
X0054439Y0388149D01*
X0054439Y0388149D01*
X0059464Y0386673D01*
X0064701Y0386673D01*
X0069726Y0388149D01*
X0069726Y0388149D01*
X0074132Y0390980D01*
X0074132Y0390980D01*
X0077562Y0394938D01*
X0079737Y0399702D01*
X0080483Y0404886D01*
X0079737Y0410070D01*
X0077562Y0414834D01*
X0074615Y0418234D01*
X0411755Y0418234D01*
X0408808Y0414834D01*
X0406633Y0410070D01*
X0405887Y0404886D01*
X0406633Y0399702D01*
X0408808Y0394938D01*
X0412238Y0390980D01*
X0416644Y0388149D01*
X0421669Y0386673D01*
X0426906Y0386673D01*
X0431931Y0388149D01*
X0436337Y0390980D01*
X0437635Y0392479D01*
X0437635Y0349532D01*
X0436698Y0350470D01*
X0435164Y0351105D01*
X0433505Y0351105D01*
X0431972Y0350470D01*
X0430798Y0349296D01*
X0430163Y0347763D01*
X0430163Y0346103D01*
X0430798Y0344570D01*
X0431335Y0344033D01*
X0431335Y0339176D01*
X0428092Y0335933D01*
X0394535Y0335933D01*
X0394535Y0337417D01*
X0393667Y0339512D01*
X0392063Y0341115D01*
X0390031Y0341957D01*
X0390506Y0343103D01*
X0390506Y0344763D01*
X0389871Y0346296D01*
X0388698Y0347470D01*
X0387164Y0348105D01*
X0385505Y0348105D01*
X0383972Y0347470D01*
X0383835Y0347333D01*
X0383698Y0347470D01*
X0382164Y0348105D01*
X0380506Y0348105D01*
X0380506Y0349763D01*
X0379871Y0351296D01*
X0379734Y0351433D01*
X0379871Y0351570D01*
X0380506Y0353103D01*
X0380506Y0354763D01*
X0379871Y0356296D01*
X0378698Y0357470D01*
X0377164Y0358105D01*
X0375505Y0358105D01*
X0373972Y0357470D01*
X0372798Y0356296D01*
X0372163Y0354763D01*
X0372163Y0353103D01*
X0372798Y0351570D01*
X0372935Y0351433D01*
X0372798Y0351296D01*
X0372163Y0349763D01*
X0372163Y0348103D01*
X0372798Y0346570D01*
X0373972Y0345397D01*
X0375505Y0344761D01*
X0377163Y0344761D01*
X0377163Y0343103D01*
X0377798Y0341570D01*
X0378972Y0340397D01*
X0380505Y0339761D01*
X0382164Y0339761D01*
X0383698Y0340397D01*
X0383835Y0340533D01*
X0383972Y0340397D01*
X0384619Y0340128D01*
X0384002Y0339512D01*
X0383135Y0337417D01*
X0383135Y0335149D01*
X0384002Y0333054D01*
X0385006Y0332051D01*
X0329799Y0332051D01*
X0325862Y0328114D01*
X0325862Y0302459D01*
X0324400Y0303920D01*
X0322335Y0303920D01*
X0322335Y0298933D01*
X0322335Y0298933D01*
X0322335Y0303920D01*
X0320269Y0303920D01*
X0317626Y0301278D01*
X0314571Y0304333D01*
X0310098Y0304333D01*
X0306935Y0301170D01*
X0306935Y0296696D01*
X0309698Y0293933D01*
X0306935Y0291170D01*
X0306935Y0286696D01*
X0307003Y0286628D01*
X0306635Y0286476D01*
X0306583Y0286424D01*
X0306516Y0286393D01*
X0306335Y0286193D01*
X0306335Y0305917D01*
X0307261Y0305533D01*
X0309409Y0305533D01*
X0311393Y0306355D01*
X0312913Y0307874D01*
X0313335Y0308893D01*
X0313757Y0307874D01*
X0315276Y0306355D01*
X0317261Y0305533D01*
X0319409Y0305533D01*
X0321393Y0306355D01*
X0322913Y0307874D01*
X0323735Y0309859D01*
X0323735Y0318007D01*
X0322913Y0319992D01*
X0321535Y0321370D01*
X0321535Y0331608D01*
X0323688Y0333761D01*
X0324164Y0333761D01*
X0325698Y0334397D01*
X0326871Y0335570D01*
X0327506Y0337103D01*
X0327506Y0338763D01*
X0326871Y0340296D01*
X0325698Y0341470D01*
X0324164Y0342105D01*
X0322505Y0342105D01*
X0320972Y0341470D01*
X0319798Y0340296D01*
X0319163Y0338763D01*
X0319163Y0338287D01*
X0315622Y0334746D01*
X0315135Y0333570D01*
X0315135Y0321370D01*
X0313757Y0319992D01*
X0313335Y0318973D01*
X0312913Y0319992D01*
X0311393Y0321511D01*
X0309409Y0322333D01*
X0307261Y0322333D01*
X0305276Y0321511D01*
X0304335Y0320570D01*
X0304335Y0335530D01*
X0303878Y0336632D01*
X0292878Y0347632D01*
X0292034Y0348476D01*
X0290931Y0348933D01*
X0282577Y0348933D01*
X0283406Y0349761D01*
X0284164Y0349761D01*
X0285698Y0350397D01*
X0286871Y0351570D01*
X0287506Y0353103D01*
X0287506Y0354763D01*
X0287436Y0354933D01*
X0293092Y0354933D01*
X0294163Y0353862D01*
X0294163Y0353103D01*
X0294798Y0351570D01*
X0295972Y0350397D01*
X0297505Y0349761D01*
X0299164Y0349761D01*
X0300698Y0350397D01*
X0301871Y0351570D01*
X0302506Y0353103D01*
X0302506Y0354763D01*
X0302104Y0355733D01*
X0319608Y0355733D01*
X0318972Y0355470D01*
X0317798Y0354296D01*
X0317163Y0352763D01*
X0317163Y0351103D01*
X0317798Y0349570D01*
X0318585Y0348783D01*
X0318163Y0347763D01*
X0318163Y0346103D01*
X0318798Y0344570D01*
X0319972Y0343397D01*
X0321505Y0342761D01*
X0323164Y0342761D01*
X0324698Y0343397D01*
X0325871Y0344570D01*
X0326506Y0346103D01*
X0326506Y0347763D01*
X0325871Y0349296D01*
X0325084Y0350083D01*
X0325506Y0351103D01*
X0325506Y0352763D01*
X0324871Y0354296D01*
X0323698Y0355470D01*
X0323062Y0355733D01*
X0348843Y0355733D01*
X0349945Y0356190D01*
X0350789Y0357034D01*
X0368989Y0375234D01*
X0369068Y0375424D01*
X0379193Y0385549D01*
X0379650Y0386651D01*
X0379650Y0405790D01*
X0379992Y0405931D01*
X0381571Y0407510D01*
X0383150Y0405931D01*
X0385319Y0405033D01*
X0387666Y0405033D01*
X0389834Y0405931D01*
X0390559Y0406656D01*
X0390800Y0406074D01*
X0391475Y0405398D01*
X0392357Y0405033D01*
X0400312Y0405033D01*
X0401194Y0405398D01*
X0401869Y0406074D01*
X0402235Y0406956D01*
X0402235Y0414910D01*
X0401869Y0415793D01*
X0401194Y0416468D01*
X0400312Y0416833D01*
X0392357Y0416833D01*
X0391475Y0416468D01*
X0390800Y0415793D01*
X0390559Y0415210D01*
X0389834Y0415935D01*
X0387666Y0416833D01*
X0385319Y0416833D01*
X0383150Y0415935D01*
X0381571Y0414356D01*
X0379992Y0415935D01*
X0377823Y0416833D01*
X0375476Y0416833D01*
X0373308Y0415935D01*
X0371728Y0414356D01*
X0370149Y0415935D01*
X0367981Y0416833D01*
X0365633Y0416833D01*
X0363465Y0415935D01*
X0361805Y0414275D01*
X0361629Y0413849D01*
X0361150Y0414508D01*
X0360539Y0415119D01*
X0359841Y0415626D01*
X0359071Y0416018D01*
X0358250Y0416285D01*
X0357396Y0416420D01*
X0356965Y0416420D01*
X0356965Y0410933D01*
X0356965Y0405446D01*
X0357396Y0405446D01*
X0358250Y0405581D01*
X0359071Y0405848D01*
X0359841Y0406240D01*
X0360539Y0406748D01*
X0361150Y0407358D01*
X0361629Y0408017D01*
X0361805Y0407591D01*
X0363335Y0406062D01*
X0363335Y0402511D01*
X0363249Y0402555D01*
X0362503Y0402798D01*
X0361727Y0402920D01*
X0361335Y0402920D01*
X0361335Y0394933D01*
X0361335Y0386946D01*
X0361727Y0386946D01*
X0362503Y0387068D01*
X0363249Y0387311D01*
X0363335Y0387355D01*
X0363335Y0383176D01*
X0346092Y0365933D01*
X0308436Y0365933D01*
X0308506Y0366103D01*
X0308506Y0366862D01*
X0316193Y0374549D01*
X0316650Y0375651D01*
X0316650Y0405640D01*
X0316992Y0405782D01*
X0318571Y0407361D01*
X0320150Y0405782D01*
X0322319Y0404883D01*
X0324666Y0404883D01*
X0326834Y0405782D01*
X0327559Y0406506D01*
X0327800Y0405924D01*
X0328475Y0405249D01*
X0329357Y0404883D01*
X0337312Y0404883D01*
X0338194Y0405249D01*
X0338869Y0405924D01*
X0339235Y0406806D01*
X0339235Y0414761D01*
X0338869Y0415643D01*
X0338194Y0416318D01*
X0337312Y0416683D01*
X0329357Y0416683D01*
X0328475Y0416318D01*
X0327800Y0415643D01*
X0327559Y0415061D01*
X0326834Y0415785D01*
X0324666Y0416683D01*
X0322319Y0416683D01*
X0320150Y0415785D01*
X0318571Y0414206D01*
X0316992Y0415785D01*
X0314823Y0416683D01*
X0312476Y0416683D01*
X0310308Y0415785D01*
X0308728Y0414206D01*
X0307149Y0415785D01*
X0304981Y0416683D01*
X0302633Y0416683D01*
X0300465Y0415785D01*
X0298805Y0414126D01*
X0298629Y0413699D01*
X0298150Y0414358D01*
X0297539Y0414969D01*
X0296841Y0415477D01*
X0296071Y0415869D01*
X0295250Y0416136D01*
X0294396Y0416271D01*
X0293965Y0416271D01*
X0293965Y0410784D01*
X0293964Y0410784D01*
X0293964Y0416271D01*
X0293533Y0416271D01*
X0292680Y0416136D01*
X0291858Y0415869D01*
X0291089Y0415477D01*
X0290390Y0414969D01*
X0289779Y0414358D01*
X0289271Y0413659D01*
X0288879Y0412890D01*
X0288612Y0412068D01*
X0288477Y0411215D01*
X0288477Y0410784D01*
X0293964Y0410784D01*
X0293964Y0410783D01*
X0288477Y0410783D01*
X0288477Y0410352D01*
X0288612Y0409498D01*
X0288879Y0408677D01*
X0289271Y0407907D01*
X0289779Y0407209D01*
X0290390Y0406598D01*
X0291089Y0406090D01*
X0291858Y0405698D01*
X0292680Y0405431D01*
X0293533Y0405296D01*
X0293964Y0405296D01*
X0293964Y0410783D01*
X0293965Y0410783D01*
X0293965Y0405296D01*
X0294396Y0405296D01*
X0295250Y0405431D01*
X0296071Y0405698D01*
X0296841Y0406090D01*
X0297539Y0406598D01*
X0298150Y0407209D01*
X0298629Y0407868D01*
X0298805Y0407441D01*
X0300465Y0405782D01*
X0300807Y0405640D01*
X0300807Y0383648D01*
X0288264Y0371105D01*
X0287505Y0371105D01*
X0285972Y0370470D01*
X0284798Y0369296D01*
X0284163Y0367763D01*
X0284163Y0366103D01*
X0284234Y0365933D01*
X0281835Y0365933D01*
X0281506Y0366371D01*
X0281506Y0367763D01*
X0280871Y0369296D01*
X0279698Y0370470D01*
X0278164Y0371105D01*
X0276505Y0371105D01*
X0274972Y0370470D01*
X0273798Y0369296D01*
X0273335Y0368177D01*
X0272871Y0369296D01*
X0271698Y0370470D01*
X0270164Y0371105D01*
X0268505Y0371105D01*
X0266972Y0370470D01*
X0265798Y0369296D01*
X0265163Y0367763D01*
X0265163Y0366103D01*
X0265798Y0364570D01*
X0266972Y0363397D01*
X0268505Y0362761D01*
X0269305Y0362761D01*
X0269798Y0361570D01*
X0270435Y0360933D01*
X0263022Y0360933D01*
X0263506Y0362103D01*
X0263506Y0363763D01*
X0262871Y0365296D01*
X0261698Y0366470D01*
X0260164Y0367105D01*
X0258505Y0367105D01*
X0256972Y0366470D01*
X0255798Y0365296D01*
X0255334Y0364176D01*
X0253650Y0365861D01*
X0253650Y0405640D01*
X0253992Y0405782D01*
X0255571Y0407361D01*
X0257150Y0405782D01*
X0259319Y0404883D01*
X0261666Y0404883D01*
X0263834Y0405782D01*
X0264559Y0406506D01*
X0264800Y0405924D01*
X0265475Y0405249D01*
X0266357Y0404883D01*
X0274312Y0404883D01*
X0275194Y0405249D01*
X0275869Y0405924D01*
X0276235Y0406806D01*
X0276235Y0414761D01*
X0275869Y0415643D01*
X0275194Y0416318D01*
X0274312Y0416683D01*
X0266357Y0416683D01*
X0265475Y0416318D01*
X0264800Y0415643D01*
X0264559Y0415061D01*
X0263834Y0415785D01*
X0261666Y0416683D01*
X0259319Y0416683D01*
X0257150Y0415785D01*
X0255571Y0414206D01*
X0253992Y0415785D01*
X0251823Y0416683D01*
X0249476Y0416683D01*
X0247308Y0415785D01*
X0245728Y0414206D01*
X0244149Y0415785D01*
X0241981Y0416683D01*
X0239633Y0416683D01*
X0237465Y0415785D01*
X0235805Y0414126D01*
X0235629Y0413699D01*
X0235150Y0414358D01*
X0234539Y0414969D01*
X0233841Y0415477D01*
X0233071Y0415869D01*
X0232250Y0416136D01*
X0231396Y0416271D01*
X0230965Y0416271D01*
X0230965Y0410784D01*
X0230964Y0410784D01*
X0230964Y0416271D01*
X0230533Y0416271D01*
X0229680Y0416136D01*
X0228858Y0415869D01*
X0228089Y0415477D01*
X0227390Y0414969D01*
X0226779Y0414358D01*
X0226271Y0413659D01*
X0225879Y0412890D01*
X0225612Y0412068D01*
X0225477Y0411215D01*
X0225477Y0410784D01*
X0230964Y0410784D01*
X0230964Y0410783D01*
X0225477Y0410783D01*
X0225477Y0410352D01*
X0225612Y0409498D01*
X0225879Y0408677D01*
X0226271Y0407907D01*
X0226779Y0407209D01*
X0227390Y0406598D01*
X0228089Y0406090D01*
X0228858Y0405698D01*
X0229680Y0405431D01*
X0230533Y0405296D01*
X0230964Y0405296D01*
X0230964Y0410783D01*
X0230965Y0410783D01*
X0230965Y0405296D01*
X0231396Y0405296D01*
X0232250Y0405431D01*
X0233071Y0405698D01*
X0233841Y0406090D01*
X0234539Y0406598D01*
X0235150Y0407209D01*
X0235629Y0407868D01*
X0235805Y0407441D01*
X0237465Y0405782D01*
X0239633Y0404883D01*
X0241981Y0404883D01*
X0242094Y0404931D01*
X0244335Y0402690D01*
X0244335Y0352336D01*
X0244791Y0351234D01*
X0247092Y0348933D01*
X0243577Y0348933D01*
X0242506Y0350004D01*
X0242506Y0350763D01*
X0241871Y0352296D01*
X0240698Y0353470D01*
X0239457Y0353984D01*
X0239506Y0354103D01*
X0239506Y0354761D01*
X0240164Y0354761D01*
X0241698Y0355397D01*
X0242871Y0356570D01*
X0243506Y0358103D01*
X0243506Y0359763D01*
X0242871Y0361296D01*
X0241698Y0362470D01*
X0240164Y0363105D01*
X0238505Y0363105D01*
X0238007Y0362899D01*
X0238506Y0364103D01*
X0238506Y0364761D01*
X0239164Y0364761D01*
X0240698Y0365397D01*
X0241871Y0366570D01*
X0242506Y0368103D01*
X0242506Y0369763D01*
X0241871Y0371296D01*
X0240698Y0372470D01*
X0239164Y0373105D01*
X0237505Y0373105D01*
X0235972Y0372470D01*
X0234798Y0371296D01*
X0234163Y0369763D01*
X0234163Y0369105D01*
X0233505Y0369105D01*
X0231972Y0368470D01*
X0230798Y0367296D01*
X0230163Y0365763D01*
X0230163Y0364103D01*
X0230798Y0362570D01*
X0231972Y0361397D01*
X0233505Y0360761D01*
X0235164Y0360761D01*
X0235662Y0360968D01*
X0235163Y0359763D01*
X0235163Y0359105D01*
X0234505Y0359105D01*
X0232972Y0358470D01*
X0231798Y0357296D01*
X0231163Y0355763D01*
X0231163Y0354103D01*
X0231798Y0352570D01*
X0232972Y0351397D01*
X0234213Y0350882D01*
X0234163Y0350763D01*
X0234163Y0349103D01*
X0234798Y0347570D01*
X0235972Y0346397D01*
X0237505Y0345761D01*
X0238264Y0345761D01*
X0240635Y0343390D01*
X0241738Y0342933D01*
X0251234Y0342933D01*
X0251163Y0342763D01*
X0251163Y0341103D01*
X0251798Y0339570D01*
X0252972Y0338397D01*
X0254505Y0337761D01*
X0256164Y0337761D01*
X0256235Y0337790D01*
X0257092Y0336933D01*
X0242577Y0336933D01*
X0220506Y0359004D01*
X0220506Y0359763D01*
X0219871Y0361296D01*
X0218698Y0362470D01*
X0217164Y0363105D01*
X0215505Y0363105D01*
X0213972Y0362470D01*
X0212798Y0361296D01*
X0212163Y0359763D01*
X0212163Y0358103D01*
X0212798Y0356570D01*
X0213972Y0355397D01*
X0215505Y0354761D01*
X0216264Y0354761D01*
X0232455Y0338570D01*
X0231164Y0339105D01*
X0229505Y0339105D01*
X0227972Y0338470D01*
X0226798Y0337296D01*
X0226163Y0335763D01*
X0226163Y0334103D01*
X0226399Y0333533D01*
X0225545Y0333533D01*
X0224164Y0334105D01*
X0222505Y0334105D01*
X0220972Y0333470D01*
X0219798Y0332296D01*
X0219163Y0330763D01*
X0219163Y0329103D01*
X0219798Y0327570D01*
X0220972Y0326397D01*
X0222505Y0325761D01*
X0224164Y0325761D01*
X0225545Y0326333D01*
X0251737Y0326333D01*
X0268163Y0308178D01*
X0268163Y0308103D01*
X0268648Y0306933D01*
X0233436Y0306933D01*
X0233506Y0307103D01*
X0233506Y0308763D01*
X0232871Y0310296D01*
X0231734Y0311433D01*
X0232871Y0312570D01*
X0233506Y0314103D01*
X0233506Y0315763D01*
X0232871Y0317296D01*
X0231698Y0318470D01*
X0230164Y0319105D01*
X0228505Y0319105D01*
X0226972Y0318470D01*
X0225798Y0317296D01*
X0225163Y0315763D01*
X0225163Y0314103D01*
X0225798Y0312570D01*
X0226935Y0311433D01*
X0225798Y0310296D01*
X0225163Y0308763D01*
X0225163Y0307103D01*
X0225307Y0306755D01*
X0225126Y0306680D01*
X0224871Y0307296D01*
X0223698Y0308470D01*
X0222164Y0309105D01*
X0220505Y0309105D01*
X0218972Y0308470D01*
X0217798Y0307296D01*
X0217163Y0305763D01*
X0217163Y0304103D01*
X0217234Y0303933D01*
X0214577Y0303933D01*
X0212506Y0306004D01*
X0212506Y0306763D01*
X0211871Y0308296D01*
X0210698Y0309470D01*
X0209164Y0310105D01*
X0207505Y0310105D01*
X0205972Y0309470D01*
X0204798Y0308296D01*
X0204711Y0308085D01*
X0204664Y0308105D01*
X0203335Y0308105D01*
X0203335Y0309957D02*
X0207149Y0309957D01*
X0209520Y0309957D02*
X0225658Y0309957D01*
X0226012Y0312356D02*
X0203335Y0312356D01*
X0203335Y0314754D02*
X0225163Y0314754D01*
X0225739Y0317153D02*
X0203335Y0317153D01*
X0203335Y0319551D02*
X0257873Y0319551D01*
X0260043Y0317153D02*
X0232931Y0317153D01*
X0233506Y0314754D02*
X0238574Y0314754D01*
X0238798Y0315296D02*
X0238163Y0313763D01*
X0238163Y0312103D01*
X0238798Y0310570D01*
X0239972Y0309397D01*
X0241505Y0308761D01*
X0243164Y0308761D01*
X0244698Y0309397D01*
X0245871Y0310570D01*
X0246506Y0312103D01*
X0246506Y0313763D01*
X0245871Y0315296D01*
X0244698Y0316470D01*
X0243164Y0317105D01*
X0241505Y0317105D01*
X0239972Y0316470D01*
X0238798Y0315296D01*
X0238163Y0312356D02*
X0232657Y0312356D01*
X0233012Y0309957D02*
X0239411Y0309957D01*
X0245259Y0309957D02*
X0266553Y0309957D01*
X0268388Y0307559D02*
X0233506Y0307559D01*
X0225163Y0307559D02*
X0224608Y0307559D01*
X0218061Y0307559D02*
X0212177Y0307559D01*
X0213350Y0305160D02*
X0217163Y0305160D01*
X0203335Y0321950D02*
X0255703Y0321950D01*
X0253533Y0324348D02*
X0203335Y0324348D01*
X0203335Y0326747D02*
X0220621Y0326747D01*
X0219163Y0329145D02*
X0203335Y0329145D01*
X0203335Y0331544D02*
X0219487Y0331544D01*
X0222113Y0333943D02*
X0203335Y0333943D01*
X0203335Y0336341D02*
X0217106Y0336341D01*
X0216972Y0336397D02*
X0218505Y0335761D01*
X0220164Y0335761D01*
X0221698Y0336397D01*
X0222871Y0337570D01*
X0223506Y0339103D01*
X0223506Y0340763D01*
X0222871Y0342296D01*
X0221698Y0343470D01*
X0220164Y0344105D01*
X0218505Y0344105D01*
X0216972Y0343470D01*
X0215798Y0342296D01*
X0215163Y0340763D01*
X0215163Y0339103D01*
X0215798Y0337570D01*
X0216972Y0336397D01*
X0215314Y0338740D02*
X0201771Y0338740D01*
X0199372Y0341138D02*
X0215318Y0341138D01*
X0217133Y0343537D02*
X0196974Y0343537D01*
X0194575Y0345935D02*
X0225090Y0345935D01*
X0227488Y0343537D02*
X0221536Y0343537D01*
X0223351Y0341138D02*
X0229887Y0341138D01*
X0228623Y0338740D02*
X0223356Y0338740D01*
X0221564Y0336341D02*
X0226402Y0336341D01*
X0226230Y0333943D02*
X0224556Y0333943D01*
X0223335Y0329933D02*
X0253335Y0329933D01*
X0272335Y0308933D01*
X0264383Y0312356D02*
X0246506Y0312356D01*
X0246096Y0314754D02*
X0262213Y0314754D01*
X0284846Y0293751D02*
X0285198Y0293897D01*
X0286371Y0295070D01*
X0287006Y0296603D01*
X0287006Y0296736D01*
X0291972Y0291770D01*
X0291164Y0292105D01*
X0289505Y0292105D01*
X0287972Y0291470D01*
X0287165Y0290663D01*
X0287161Y0290671D01*
X0287029Y0291104D01*
X0286935Y0291218D01*
X0286878Y0291355D01*
X0286558Y0291676D01*
X0284846Y0293751D01*
X0285327Y0293168D02*
X0290574Y0293168D01*
X0288176Y0295566D02*
X0286577Y0295566D01*
X0287131Y0290769D02*
X0287271Y0290769D01*
X0281335Y0288579D02*
X0279773Y0290472D01*
X0279406Y0290105D01*
X0281034Y0288476D01*
X0281335Y0288176D01*
X0281335Y0288579D01*
X0281335Y0288371D02*
X0281140Y0288371D01*
X0271148Y0275933D02*
X0270663Y0274763D01*
X0270663Y0274004D01*
X0270198Y0274470D01*
X0268664Y0275105D01*
X0267005Y0275105D01*
X0265472Y0274470D01*
X0264298Y0273296D01*
X0263663Y0271763D01*
X0263663Y0270103D01*
X0264298Y0268570D01*
X0265472Y0267397D01*
X0267005Y0266761D01*
X0268664Y0266761D01*
X0270198Y0267397D01*
X0271371Y0268570D01*
X0272006Y0270103D01*
X0272006Y0270862D01*
X0272472Y0270397D01*
X0274005Y0269761D01*
X0275664Y0269761D01*
X0276331Y0270037D01*
X0276972Y0269397D01*
X0278505Y0268761D01*
X0278920Y0268761D01*
X0278264Y0268105D01*
X0277505Y0268105D01*
X0275972Y0267470D01*
X0274798Y0266296D01*
X0274163Y0264763D01*
X0274163Y0263561D01*
X0261282Y0263561D01*
X0261506Y0264103D01*
X0261506Y0265763D01*
X0260871Y0267296D01*
X0259698Y0268470D01*
X0258164Y0269105D01*
X0256505Y0269105D01*
X0255506Y0268691D01*
X0255506Y0269763D01*
X0255084Y0270783D01*
X0255871Y0271570D01*
X0256143Y0272225D01*
X0256972Y0271397D01*
X0258505Y0270761D01*
X0260164Y0270761D01*
X0261698Y0271397D01*
X0262871Y0272570D01*
X0263506Y0274103D01*
X0263506Y0275763D01*
X0263436Y0275933D01*
X0271148Y0275933D01*
X0264982Y0273980D02*
X0263455Y0273980D01*
X0263663Y0271581D02*
X0261882Y0271581D01*
X0264044Y0269183D02*
X0255506Y0269183D01*
X0255876Y0271581D02*
X0256787Y0271581D01*
X0261083Y0266784D02*
X0266950Y0266784D01*
X0268719Y0266784D02*
X0275286Y0266784D01*
X0274163Y0264386D02*
X0261506Y0264386D01*
X0271625Y0269183D02*
X0277488Y0269183D01*
X0306335Y0288371D02*
X0306935Y0288371D01*
X0306935Y0290769D02*
X0306335Y0290769D01*
X0306335Y0293168D02*
X0308933Y0293168D01*
X0308065Y0295566D02*
X0306335Y0295566D01*
X0306335Y0297965D02*
X0306935Y0297965D01*
X0306935Y0300363D02*
X0306335Y0300363D01*
X0306335Y0302762D02*
X0308527Y0302762D01*
X0306335Y0305160D02*
X0325862Y0305160D01*
X0325862Y0302762D02*
X0325559Y0302762D01*
X0322335Y0302762D02*
X0322335Y0302762D01*
X0322335Y0300363D02*
X0322335Y0300363D01*
X0319110Y0302762D02*
X0316143Y0302762D01*
X0314072Y0307559D02*
X0312597Y0307559D01*
X0322597Y0307559D02*
X0325862Y0307559D01*
X0325862Y0309957D02*
X0323735Y0309957D01*
X0323735Y0312356D02*
X0325862Y0312356D01*
X0325862Y0314754D02*
X0323735Y0314754D01*
X0323735Y0317153D02*
X0325862Y0317153D01*
X0325862Y0319551D02*
X0323095Y0319551D01*
X0321535Y0321950D02*
X0325862Y0321950D01*
X0325862Y0324348D02*
X0321535Y0324348D01*
X0321535Y0326747D02*
X0325862Y0326747D01*
X0326894Y0329145D02*
X0321535Y0329145D01*
X0321535Y0331544D02*
X0329292Y0331544D01*
X0327191Y0336341D02*
X0383135Y0336341D01*
X0383634Y0333943D02*
X0324602Y0333943D01*
X0327506Y0338740D02*
X0383683Y0338740D01*
X0378230Y0341138D02*
X0326029Y0341138D01*
X0324838Y0343537D02*
X0377163Y0343537D01*
X0373433Y0345935D02*
X0326437Y0345935D01*
X0326270Y0348334D02*
X0372163Y0348334D01*
X0372564Y0350732D02*
X0325353Y0350732D01*
X0325354Y0353131D02*
X0372163Y0353131D01*
X0372480Y0355529D02*
X0323554Y0355529D01*
X0319115Y0355529D02*
X0302189Y0355529D01*
X0302506Y0353131D02*
X0317315Y0353131D01*
X0317317Y0350732D02*
X0301033Y0350732D01*
X0295636Y0350732D02*
X0286033Y0350732D01*
X0287506Y0353131D02*
X0294163Y0353131D01*
X0292177Y0348334D02*
X0318399Y0348334D01*
X0318233Y0345935D02*
X0294575Y0345935D01*
X0296974Y0343537D02*
X0319832Y0343537D01*
X0320640Y0341138D02*
X0299372Y0341138D01*
X0301771Y0338740D02*
X0319163Y0338740D01*
X0317217Y0336341D02*
X0303999Y0336341D01*
X0304335Y0333943D02*
X0315289Y0333943D01*
X0315135Y0331544D02*
X0304335Y0331544D01*
X0304335Y0329145D02*
X0315135Y0329145D01*
X0315135Y0326747D02*
X0304335Y0326747D01*
X0304335Y0324348D02*
X0315135Y0324348D01*
X0315135Y0321950D02*
X0310334Y0321950D01*
X0313095Y0319551D02*
X0313574Y0319551D01*
X0306336Y0321950D02*
X0304335Y0321950D01*
X0269320Y0362725D02*
X0263506Y0362725D01*
X0262943Y0365123D02*
X0265569Y0365123D01*
X0265163Y0367522D02*
X0253650Y0367522D01*
X0253650Y0369920D02*
X0266422Y0369920D01*
X0272247Y0369920D02*
X0274422Y0369920D01*
X0280247Y0369920D02*
X0285422Y0369920D01*
X0284163Y0367522D02*
X0281506Y0367522D01*
X0289478Y0372319D02*
X0253650Y0372319D01*
X0253650Y0374717D02*
X0291876Y0374717D01*
X0294275Y0377116D02*
X0253650Y0377116D01*
X0253650Y0379514D02*
X0296673Y0379514D01*
X0299072Y0381913D02*
X0253650Y0381913D01*
X0253650Y0384311D02*
X0280177Y0384311D01*
X0279972Y0384397D02*
X0281505Y0383761D01*
X0283164Y0383761D01*
X0284698Y0384397D01*
X0285335Y0385033D01*
X0285972Y0384397D01*
X0287505Y0383761D01*
X0289164Y0383761D01*
X0290698Y0384397D01*
X0291871Y0385570D01*
X0292506Y0387103D01*
X0292506Y0388763D01*
X0291871Y0390296D01*
X0290698Y0391470D01*
X0289164Y0392105D01*
X0287505Y0392105D01*
X0285972Y0391470D01*
X0285335Y0390833D01*
X0284698Y0391470D01*
X0283164Y0392105D01*
X0281505Y0392105D01*
X0279972Y0391470D01*
X0278798Y0390296D01*
X0278163Y0388763D01*
X0278163Y0387103D01*
X0278798Y0385570D01*
X0279972Y0384397D01*
X0278326Y0386710D02*
X0275007Y0386710D01*
X0274949Y0386667D02*
X0275584Y0387129D01*
X0276139Y0387684D01*
X0276600Y0388319D01*
X0276957Y0389019D01*
X0277199Y0389765D01*
X0277322Y0390541D01*
X0277322Y0393933D01*
X0272335Y0393933D01*
X0272335Y0393933D01*
X0277322Y0393933D01*
X0277322Y0397326D01*
X0277199Y0398101D01*
X0276957Y0398848D01*
X0276600Y0399547D01*
X0276139Y0400182D01*
X0275584Y0400737D01*
X0274949Y0401199D01*
X0274249Y0401555D01*
X0273503Y0401798D01*
X0272727Y0401920D01*
X0272335Y0401920D01*
X0272335Y0393933D01*
X0272335Y0385946D01*
X0272727Y0385946D01*
X0273503Y0386068D01*
X0274249Y0386311D01*
X0274949Y0386667D01*
X0272335Y0386710D02*
X0272335Y0386710D01*
X0272335Y0385946D02*
X0272335Y0393933D01*
X0272335Y0393933D01*
X0272335Y0393933D01*
X0272335Y0401920D01*
X0271942Y0401920D01*
X0271167Y0401798D01*
X0270420Y0401555D01*
X0269721Y0401199D01*
X0269086Y0400737D01*
X0268530Y0400182D01*
X0268069Y0399547D01*
X0267713Y0398848D01*
X0267569Y0398406D01*
X0266913Y0399992D01*
X0265393Y0401511D01*
X0263409Y0402333D01*
X0261261Y0402333D01*
X0259276Y0401511D01*
X0257757Y0399992D01*
X0256935Y0398007D01*
X0256935Y0389859D01*
X0257757Y0387874D01*
X0259276Y0386355D01*
X0261261Y0385533D01*
X0263409Y0385533D01*
X0265393Y0386355D01*
X0266913Y0387874D01*
X0267569Y0389460D01*
X0267713Y0389019D01*
X0268069Y0388319D01*
X0268530Y0387684D01*
X0269086Y0387129D01*
X0269721Y0386667D01*
X0270420Y0386311D01*
X0271167Y0386068D01*
X0271942Y0385946D01*
X0272335Y0385946D01*
X0269662Y0386710D02*
X0265748Y0386710D01*
X0267424Y0389108D02*
X0267683Y0389108D01*
X0272335Y0389108D02*
X0272335Y0389108D01*
X0272335Y0391507D02*
X0272335Y0391507D01*
X0272335Y0393905D02*
X0272335Y0393905D01*
X0272335Y0396304D02*
X0272335Y0396304D01*
X0272335Y0398702D02*
X0272335Y0398702D01*
X0272335Y0401101D02*
X0272335Y0401101D01*
X0275083Y0401101D02*
X0300807Y0401101D01*
X0300807Y0403499D02*
X0253650Y0403499D01*
X0253650Y0401101D02*
X0258866Y0401101D01*
X0257223Y0398702D02*
X0253650Y0398702D01*
X0253650Y0396304D02*
X0256935Y0396304D01*
X0256935Y0393905D02*
X0253650Y0393905D01*
X0253650Y0391507D02*
X0256935Y0391507D01*
X0257246Y0389108D02*
X0253650Y0389108D01*
X0253650Y0386710D02*
X0258921Y0386710D01*
X0244335Y0386710D02*
X0241114Y0386710D01*
X0240871Y0387296D02*
X0239698Y0388470D01*
X0238164Y0389105D01*
X0236505Y0389105D01*
X0234972Y0388470D01*
X0234435Y0387933D01*
X0229738Y0387933D01*
X0228635Y0387476D01*
X0227791Y0386632D01*
X0204791Y0363632D01*
X0204335Y0362530D01*
X0204335Y0361833D01*
X0203798Y0361296D01*
X0203163Y0359763D01*
X0203163Y0358103D01*
X0203798Y0356570D01*
X0204972Y0355397D01*
X0206505Y0354761D01*
X0208164Y0354761D01*
X0209698Y0355397D01*
X0210871Y0356570D01*
X0211506Y0358103D01*
X0211506Y0359763D01*
X0210891Y0361247D01*
X0231577Y0381933D01*
X0234435Y0381933D01*
X0234972Y0381397D01*
X0236505Y0380761D01*
X0238164Y0380761D01*
X0239698Y0381397D01*
X0240871Y0382570D01*
X0241506Y0384103D01*
X0241506Y0385763D01*
X0240871Y0387296D01*
X0239164Y0389761D02*
X0240698Y0390397D01*
X0241871Y0391570D01*
X0242506Y0393103D01*
X0242506Y0394763D01*
X0241871Y0396296D01*
X0240698Y0397470D01*
X0239164Y0398105D01*
X0238406Y0398105D01*
X0236878Y0399632D01*
X0236034Y0400476D01*
X0234931Y0400933D01*
X0224234Y0400933D01*
X0224871Y0401570D01*
X0225506Y0403103D01*
X0225506Y0404763D01*
X0224871Y0406296D01*
X0223698Y0407470D01*
X0222164Y0408105D01*
X0220505Y0408105D01*
X0218972Y0407470D01*
X0218435Y0406933D01*
X0176844Y0406933D01*
X0176761Y0406962D01*
X0176250Y0406933D01*
X0175738Y0406933D01*
X0175657Y0406899D01*
X0175569Y0406895D01*
X0175108Y0406672D01*
X0174635Y0406476D01*
X0174573Y0406414D01*
X0174494Y0406376D01*
X0174153Y0405994D01*
X0173791Y0405632D01*
X0173758Y0405551D01*
X0151038Y0380105D01*
X0150505Y0380105D01*
X0148972Y0379470D01*
X0147798Y0378296D01*
X0147163Y0376763D01*
X0147163Y0375103D01*
X0147798Y0373570D01*
X0148972Y0372397D01*
X0150505Y0371761D01*
X0152164Y0371761D01*
X0153698Y0372397D01*
X0154835Y0373533D01*
X0155972Y0372397D01*
X0157505Y0371761D01*
X0159164Y0371761D01*
X0160698Y0372397D01*
X0161871Y0373570D01*
X0162506Y0375103D01*
X0162506Y0376209D01*
X0174691Y0390544D01*
X0179080Y0394933D01*
X0222648Y0394933D01*
X0222163Y0393763D01*
X0222163Y0392103D01*
X0222798Y0390570D01*
X0223972Y0389397D01*
X0225505Y0388761D01*
X0227164Y0388761D01*
X0228698Y0389397D01*
X0229871Y0390570D01*
X0230506Y0392103D01*
X0230506Y0393763D01*
X0230022Y0394933D01*
X0233092Y0394933D01*
X0234163Y0393862D01*
X0234163Y0393103D01*
X0234798Y0391570D01*
X0235972Y0390397D01*
X0237505Y0389761D01*
X0239164Y0389761D01*
X0241808Y0391507D02*
X0244335Y0391507D01*
X0244335Y0393905D02*
X0242506Y0393905D01*
X0241863Y0396304D02*
X0244335Y0396304D01*
X0244335Y0398702D02*
X0237808Y0398702D01*
X0234120Y0393905D02*
X0230447Y0393905D01*
X0230259Y0391507D02*
X0234861Y0391507D01*
X0228002Y0389108D02*
X0244335Y0389108D01*
X0244335Y0384311D02*
X0241506Y0384311D01*
X0240214Y0381913D02*
X0244335Y0381913D01*
X0244335Y0379514D02*
X0229158Y0379514D01*
X0226760Y0377116D02*
X0244335Y0377116D01*
X0244335Y0374717D02*
X0224361Y0374717D01*
X0221963Y0372319D02*
X0235821Y0372319D01*
X0234228Y0369920D02*
X0219564Y0369920D01*
X0217166Y0367522D02*
X0231024Y0367522D01*
X0230163Y0365123D02*
X0214767Y0365123D01*
X0214587Y0362725D02*
X0212369Y0362725D01*
X0212396Y0360326D02*
X0211273Y0360326D01*
X0211434Y0357928D02*
X0212236Y0357928D01*
X0213839Y0355529D02*
X0209830Y0355529D01*
X0204839Y0355529D02*
X0194830Y0355529D01*
X0194698Y0355397D02*
X0195871Y0356570D01*
X0196506Y0358103D01*
X0196506Y0359763D01*
X0195871Y0361296D01*
X0194698Y0362470D01*
X0193164Y0363105D01*
X0191505Y0363105D01*
X0189972Y0362470D01*
X0188798Y0361296D01*
X0188163Y0359763D01*
X0188163Y0358103D01*
X0188798Y0356570D01*
X0189972Y0355397D01*
X0191505Y0354761D01*
X0193164Y0354761D01*
X0194698Y0355397D01*
X0196434Y0357928D02*
X0203236Y0357928D01*
X0203396Y0360326D02*
X0196273Y0360326D01*
X0194082Y0362725D02*
X0204415Y0362725D01*
X0206282Y0365123D02*
X0174100Y0365123D01*
X0173871Y0364570D02*
X0174506Y0366103D01*
X0174506Y0367763D01*
X0173871Y0369296D01*
X0172698Y0370470D01*
X0171164Y0371105D01*
X0169505Y0371105D01*
X0167972Y0370470D01*
X0166798Y0369296D01*
X0166163Y0367763D01*
X0166163Y0366103D01*
X0166798Y0364570D01*
X0167972Y0363397D01*
X0169505Y0362761D01*
X0171164Y0362761D01*
X0172698Y0363397D01*
X0173871Y0364570D01*
X0174506Y0367522D02*
X0208681Y0367522D01*
X0211079Y0369920D02*
X0180548Y0369920D01*
X0180164Y0369761D02*
X0181698Y0370397D01*
X0182871Y0371570D01*
X0183506Y0373103D01*
X0183506Y0374763D01*
X0182871Y0376296D01*
X0181698Y0377470D01*
X0180164Y0378105D01*
X0178505Y0378105D01*
X0176972Y0377470D01*
X0175798Y0376296D01*
X0175163Y0374763D01*
X0175163Y0373103D01*
X0175798Y0371570D01*
X0176972Y0370397D01*
X0178505Y0369761D01*
X0180164Y0369761D01*
X0178122Y0369920D02*
X0173247Y0369920D01*
X0175488Y0372319D02*
X0160510Y0372319D01*
X0162346Y0374717D02*
X0175163Y0374717D01*
X0176618Y0377116D02*
X0163277Y0377116D01*
X0165316Y0379514D02*
X0206163Y0379514D01*
X0206163Y0379103D02*
X0206798Y0377570D01*
X0207972Y0376397D01*
X0209505Y0375761D01*
X0211164Y0375761D01*
X0212698Y0376397D01*
X0213871Y0377570D01*
X0214506Y0379103D01*
X0214506Y0380763D01*
X0213871Y0382296D01*
X0212698Y0383470D01*
X0211164Y0384105D01*
X0209505Y0384105D01*
X0207972Y0383470D01*
X0206798Y0382296D01*
X0206163Y0380763D01*
X0206163Y0379103D01*
X0207252Y0377116D02*
X0182052Y0377116D01*
X0183506Y0374717D02*
X0215876Y0374717D01*
X0213478Y0372319D02*
X0183181Y0372319D01*
X0190587Y0362725D02*
X0150786Y0362725D01*
X0148387Y0365123D02*
X0166569Y0365123D01*
X0166163Y0367522D02*
X0145989Y0367522D01*
X0145335Y0369920D02*
X0167422Y0369920D01*
X0156159Y0372319D02*
X0153510Y0372319D01*
X0149159Y0372319D02*
X0145335Y0372319D01*
X0145335Y0374717D02*
X0147323Y0374717D01*
X0147309Y0377116D02*
X0145335Y0377116D01*
X0145335Y0379514D02*
X0149079Y0379514D01*
X0152652Y0381913D02*
X0145335Y0381913D01*
X0145335Y0384311D02*
X0154793Y0384311D01*
X0156935Y0386710D02*
X0145335Y0386710D01*
X0145335Y0389108D02*
X0146260Y0389108D01*
X0152409Y0389108D02*
X0159076Y0389108D01*
X0161218Y0391507D02*
X0153506Y0391507D01*
X0153033Y0393905D02*
X0163360Y0393905D01*
X0165501Y0396304D02*
X0149907Y0396304D01*
X0150335Y0398702D02*
X0167643Y0398702D01*
X0169784Y0401101D02*
X0150335Y0401101D01*
X0149933Y0403499D02*
X0171926Y0403499D01*
X0174057Y0405898D02*
X0147612Y0405898D01*
X0134633Y0405898D02*
X0090699Y0405898D01*
X0090198Y0405397D02*
X0091371Y0406570D01*
X0092006Y0408103D01*
X0092006Y0409763D01*
X0091371Y0411296D01*
X0090198Y0412470D01*
X0088664Y0413105D01*
X0087005Y0413105D01*
X0085472Y0412470D01*
X0084298Y0411296D01*
X0083663Y0409763D01*
X0083663Y0408103D01*
X0084298Y0406570D01*
X0085472Y0405397D01*
X0087005Y0404761D01*
X0088664Y0404761D01*
X0090198Y0405397D01*
X0092006Y0408296D02*
X0226073Y0408296D01*
X0225477Y0410695D02*
X0091620Y0410695D01*
X0088692Y0413093D02*
X0225983Y0413093D01*
X0228118Y0415492D02*
X0076991Y0415492D01*
X0077562Y0414834D02*
X0077562Y0414834D01*
X0078356Y0413093D02*
X0086978Y0413093D01*
X0084049Y0410695D02*
X0079452Y0410695D01*
X0079737Y0410070D02*
X0079737Y0410070D01*
X0079992Y0408296D02*
X0083663Y0408296D01*
X0084970Y0405898D02*
X0080337Y0405898D01*
X0080283Y0403499D02*
X0134163Y0403499D01*
X0131603Y0401101D02*
X0079938Y0401101D01*
X0079737Y0399702D02*
X0079737Y0399702D01*
X0079281Y0398702D02*
X0130163Y0398702D01*
X0130494Y0396304D02*
X0078185Y0396304D01*
X0077562Y0394938D02*
X0077562Y0394938D01*
X0076667Y0393905D02*
X0133157Y0393905D01*
X0133335Y0391507D02*
X0074589Y0391507D01*
X0074132Y0390980D02*
X0074132Y0390980D01*
X0071220Y0389108D02*
X0133335Y0389108D01*
X0133335Y0386710D02*
X0064826Y0386710D01*
X0068813Y0384311D02*
X0048735Y0384311D01*
X0048735Y0381913D02*
X0067225Y0381913D01*
X0067407Y0379514D02*
X0048735Y0379514D01*
X0048735Y0377116D02*
X0069649Y0377116D01*
X0073020Y0377116D02*
X0073909Y0377116D01*
X0076308Y0374717D02*
X0048735Y0374717D01*
X0048735Y0372319D02*
X0078706Y0372319D01*
X0080590Y0369920D02*
X0081105Y0369920D01*
X0082989Y0367522D02*
X0083503Y0367522D01*
X0085387Y0365123D02*
X0085902Y0365123D01*
X0089590Y0369920D02*
X0114935Y0369920D01*
X0115074Y0367522D02*
X0091989Y0367522D01*
X0094387Y0365123D02*
X0116508Y0365123D01*
X0116084Y0372319D02*
X0087192Y0372319D01*
X0084793Y0374717D02*
X0116914Y0374717D01*
X0115242Y0377116D02*
X0092020Y0377116D01*
X0092698Y0377397D02*
X0093871Y0378570D01*
X0094506Y0380103D01*
X0094506Y0381763D01*
X0093871Y0383296D01*
X0092698Y0384470D01*
X0091164Y0385105D01*
X0089505Y0385105D01*
X0087972Y0384470D01*
X0086798Y0383296D01*
X0086163Y0381763D01*
X0086163Y0380103D01*
X0086798Y0378570D01*
X0087972Y0377397D01*
X0089505Y0376761D01*
X0091164Y0376761D01*
X0092698Y0377397D01*
X0094262Y0379514D02*
X0114935Y0379514D01*
X0115724Y0381913D02*
X0094444Y0381913D01*
X0092856Y0384311D02*
X0119208Y0384311D01*
X0127461Y0384311D02*
X0129813Y0384311D01*
X0129756Y0374717D02*
X0133335Y0374717D01*
X0133335Y0372319D02*
X0130586Y0372319D01*
X0131735Y0369920D02*
X0133335Y0369920D01*
X0133335Y0367522D02*
X0131595Y0367522D01*
X0130161Y0365123D02*
X0133335Y0365123D01*
X0133335Y0362725D02*
X0096254Y0362725D01*
X0096335Y0360326D02*
X0096828Y0360326D01*
X0096335Y0353131D02*
X0097614Y0353131D01*
X0096335Y0350732D02*
X0121163Y0350732D01*
X0121163Y0350103D02*
X0121798Y0348570D01*
X0122972Y0347397D01*
X0124505Y0346761D01*
X0126164Y0346761D01*
X0127698Y0347397D01*
X0128871Y0348570D01*
X0129506Y0350103D01*
X0129506Y0351763D01*
X0128871Y0353296D01*
X0127698Y0354470D01*
X0126164Y0355105D01*
X0124505Y0355105D01*
X0122972Y0354470D01*
X0121798Y0353296D01*
X0121163Y0351763D01*
X0121163Y0350103D01*
X0122035Y0348334D02*
X0096335Y0348334D01*
X0096335Y0345935D02*
X0133335Y0345935D01*
X0133335Y0343537D02*
X0096335Y0343537D01*
X0096335Y0341138D02*
X0133335Y0341138D01*
X0133335Y0338740D02*
X0096335Y0338740D01*
X0094985Y0336341D02*
X0099843Y0336341D01*
X0098237Y0333943D02*
X0092587Y0333943D01*
X0091335Y0331544D02*
X0098395Y0331544D01*
X0098321Y0329145D02*
X0091335Y0329145D01*
X0091335Y0326747D02*
X0098311Y0326747D01*
X0100088Y0324348D02*
X0091335Y0324348D01*
X0091335Y0321950D02*
X0098655Y0321950D01*
X0098163Y0319551D02*
X0091335Y0319551D01*
X0091335Y0317153D02*
X0099215Y0317153D01*
X0098781Y0314754D02*
X0091335Y0314754D01*
X0091335Y0312356D02*
X0098163Y0312356D01*
X0092658Y0309957D02*
X0091335Y0309957D01*
X0091335Y0307559D02*
X0092163Y0307559D01*
X0092147Y0305160D02*
X0091335Y0305160D01*
X0085335Y0305160D02*
X0048735Y0305160D01*
X0048735Y0302762D02*
X0085335Y0302762D01*
X0085335Y0300363D02*
X0048735Y0300363D01*
X0048735Y0297965D02*
X0085335Y0297965D01*
X0085335Y0295566D02*
X0048735Y0295566D01*
X0048735Y0293168D02*
X0085335Y0293168D01*
X0085335Y0290769D02*
X0048735Y0290769D01*
X0048735Y0288371D02*
X0085335Y0288371D01*
X0086053Y0285972D02*
X0048735Y0285972D01*
X0048735Y0283574D02*
X0088451Y0283574D01*
X0090850Y0281175D02*
X0048735Y0281175D01*
X0048735Y0278777D02*
X0093248Y0278777D01*
X0095647Y0276378D02*
X0048735Y0276378D01*
X0048735Y0273980D02*
X0064113Y0273980D01*
X0062313Y0271581D02*
X0048735Y0271581D01*
X0048735Y0269183D02*
X0061651Y0269183D01*
X0065600Y0261987D02*
X0066044Y0261987D01*
X0065664Y0259589D02*
X0079478Y0259589D01*
X0078903Y0259351D02*
X0077480Y0257928D01*
X0076710Y0256069D01*
X0076710Y0254057D01*
X0077480Y0252198D01*
X0078903Y0250775D01*
X0080623Y0250063D01*
X0078903Y0249351D01*
X0077480Y0247928D01*
X0076710Y0246069D01*
X0076710Y0244057D01*
X0077480Y0242198D01*
X0078903Y0240775D01*
X0080762Y0240006D01*
X0082774Y0240006D01*
X0084633Y0240775D01*
X0086055Y0242198D01*
X0086825Y0244057D01*
X0086825Y0246069D01*
X0086055Y0247928D01*
X0084633Y0249351D01*
X0082912Y0250063D01*
X0084633Y0250775D01*
X0086055Y0252198D01*
X0086825Y0254057D01*
X0086825Y0255181D01*
X0098577Y0266933D01*
X0099092Y0266933D01*
X0090315Y0258157D01*
X0089967Y0257869D01*
X0089897Y0257738D01*
X0089791Y0257632D01*
X0089618Y0257215D01*
X0089406Y0256815D01*
X0089392Y0256667D01*
X0089335Y0256530D01*
X0089335Y0256078D01*
X0089179Y0254465D01*
X0088903Y0254351D01*
X0087480Y0252928D01*
X0086710Y0251069D01*
X0086710Y0249057D01*
X0087480Y0247198D01*
X0088903Y0245775D01*
X0090762Y0245006D01*
X0092774Y0245006D01*
X0094633Y0245775D01*
X0096055Y0247198D01*
X0096825Y0249057D01*
X0096825Y0251069D01*
X0096055Y0252928D01*
X0095146Y0253837D01*
X0095217Y0254573D01*
X0104577Y0263933D01*
X0108515Y0263933D01*
X0107751Y0263617D01*
X0106246Y0262111D01*
X0105431Y0260143D01*
X0105431Y0258014D01*
X0106246Y0256047D01*
X0107751Y0254541D01*
X0108867Y0254079D01*
X0107751Y0253617D01*
X0106246Y0252111D01*
X0105431Y0250143D01*
X0105431Y0248014D01*
X0106246Y0246047D01*
X0107751Y0244541D01*
X0109719Y0243726D01*
X0111848Y0243726D01*
X0111911Y0243752D01*
X0096549Y0228390D01*
X0096825Y0229057D01*
X0096825Y0231069D01*
X0096055Y0232928D01*
X0094633Y0234351D01*
X0092774Y0235120D01*
X0090762Y0235120D01*
X0088903Y0234351D01*
X0087480Y0232928D01*
X0086710Y0231069D01*
X0086710Y0229057D01*
X0087480Y0227198D01*
X0088903Y0225775D01*
X0090623Y0225063D01*
X0088903Y0224351D01*
X0087480Y0222928D01*
X0086710Y0221069D01*
X0086710Y0219057D01*
X0087480Y0217198D01*
X0088903Y0215775D01*
X0090762Y0215006D01*
X0092774Y0215006D01*
X0094633Y0215775D01*
X0096055Y0217198D01*
X0096825Y0219057D01*
X0096825Y0220181D01*
X0128577Y0251933D01*
X0134435Y0251933D01*
X0134972Y0251397D01*
X0136505Y0250761D01*
X0138164Y0250761D01*
X0139698Y0251397D01*
X0140871Y0252570D01*
X0141506Y0254103D01*
X0141506Y0255763D01*
X0140871Y0257296D01*
X0139698Y0258470D01*
X0138164Y0259105D01*
X0136505Y0259105D01*
X0134972Y0258470D01*
X0134435Y0257933D01*
X0126738Y0257933D01*
X0125635Y0257476D01*
X0124791Y0256632D01*
X0116110Y0247951D01*
X0116136Y0248014D01*
X0116136Y0250143D01*
X0115321Y0252111D01*
X0113816Y0253617D01*
X0112700Y0254079D01*
X0113816Y0254541D01*
X0115321Y0256047D01*
X0116136Y0258014D01*
X0116136Y0260143D01*
X0115321Y0262111D01*
X0113816Y0263617D01*
X0113051Y0263933D01*
X0142092Y0263933D01*
X0143335Y0262690D01*
X0143335Y0254833D01*
X0142798Y0254296D01*
X0142163Y0252763D01*
X0142163Y0251103D01*
X0142798Y0249570D01*
X0143972Y0248397D01*
X0145505Y0247761D01*
X0147164Y0247761D01*
X0148698Y0248397D01*
X0149871Y0249570D01*
X0150506Y0251103D01*
X0150506Y0252763D01*
X0149871Y0254296D01*
X0149335Y0254833D01*
X0149335Y0264530D01*
X0148878Y0265632D01*
X0148034Y0266476D01*
X0147577Y0266933D01*
X0154435Y0266933D01*
X0154972Y0266397D01*
X0156505Y0265761D01*
X0158164Y0265761D01*
X0159698Y0266397D01*
X0160871Y0267570D01*
X0161506Y0269103D01*
X0161506Y0270763D01*
X0160871Y0272296D01*
X0159698Y0273470D01*
X0158164Y0274105D01*
X0156505Y0274105D01*
X0154972Y0273470D01*
X0154435Y0272933D01*
X0096738Y0272933D01*
X0095635Y0272476D01*
X0094791Y0271632D01*
X0083131Y0259972D01*
X0082774Y0260120D01*
X0080762Y0260120D01*
X0078903Y0259351D01*
X0077175Y0257190D02*
X0065207Y0257190D01*
X0064077Y0254792D02*
X0076710Y0254792D01*
X0077399Y0252393D02*
X0071320Y0252393D01*
X0070862Y0252583D02*
X0063808Y0252583D01*
X0062834Y0252180D01*
X0062088Y0251434D01*
X0061685Y0250460D01*
X0061685Y0225406D01*
X0062088Y0224432D01*
X0062834Y0223687D01*
X0063808Y0223283D01*
X0070862Y0223283D01*
X0071836Y0223687D01*
X0072581Y0224432D01*
X0072985Y0225406D01*
X0072985Y0244460D01*
X0072985Y0250460D01*
X0072581Y0251434D01*
X0071836Y0252180D01*
X0070862Y0252583D01*
X0072985Y0249995D02*
X0080458Y0249995D01*
X0083077Y0249995D02*
X0086710Y0249995D01*
X0086193Y0247596D02*
X0087315Y0247596D01*
X0086825Y0245198D02*
X0090298Y0245198D01*
X0090680Y0244593D02*
X0089985Y0244368D01*
X0089333Y0244036D01*
X0088742Y0243606D01*
X0088225Y0243089D01*
X0087795Y0242497D01*
X0087463Y0241846D01*
X0087237Y0241151D01*
X0087123Y0240429D01*
X0087123Y0240063D01*
X0091768Y0240063D01*
X0096413Y0240063D01*
X0096413Y0240429D01*
X0096298Y0241151D01*
X0096072Y0241846D01*
X0095740Y0242497D01*
X0095311Y0243089D01*
X0094794Y0243606D01*
X0094202Y0244036D01*
X0093551Y0244368D01*
X0092855Y0244593D01*
X0092133Y0244708D01*
X0091768Y0244708D01*
X0091768Y0240063D01*
X0091768Y0240063D01*
X0096413Y0240063D01*
X0096413Y0239697D01*
X0096298Y0238975D01*
X0096072Y0238280D01*
X0095740Y0237629D01*
X0095311Y0237037D01*
X0094794Y0236520D01*
X0094202Y0236090D01*
X0093551Y0235758D01*
X0092855Y0235532D01*
X0092133Y0235418D01*
X0091768Y0235418D01*
X0091768Y0240063D01*
X0091768Y0240063D01*
X0091768Y0240063D01*
X0091768Y0244708D01*
X0091402Y0244708D01*
X0090680Y0244593D01*
X0091768Y0242799D02*
X0091768Y0242799D01*
X0091768Y0240401D02*
X0091768Y0240401D01*
X0091768Y0240063D02*
X0091768Y0240063D01*
X0091768Y0235418D01*
X0091402Y0235418D01*
X0090680Y0235532D01*
X0089985Y0235758D01*
X0089333Y0236090D01*
X0088742Y0236520D01*
X0088225Y0237037D01*
X0087795Y0237629D01*
X0087463Y0238280D01*
X0087237Y0238975D01*
X0087123Y0239697D01*
X0087123Y0240063D01*
X0091768Y0240063D01*
X0091768Y0238002D02*
X0091768Y0238002D01*
X0091768Y0235604D02*
X0091768Y0235604D01*
X0093074Y0235604D02*
X0103762Y0235604D01*
X0101364Y0233205D02*
X0095778Y0233205D01*
X0096825Y0230807D02*
X0098965Y0230807D01*
X0096567Y0228408D02*
X0096556Y0228408D01*
X0100255Y0223611D02*
X0105999Y0223611D01*
X0105431Y0226010D02*
X0102654Y0226010D01*
X0105052Y0228408D02*
X0105968Y0228408D01*
X0107451Y0230807D02*
X0108286Y0230807D01*
X0109849Y0233205D02*
X0137163Y0233205D01*
X0137700Y0230807D02*
X0113281Y0230807D01*
X0115599Y0228408D02*
X0138910Y0228408D01*
X0137265Y0226010D02*
X0116136Y0226010D01*
X0115568Y0223611D02*
X0137367Y0223611D01*
X0139416Y0221212D02*
X0113099Y0221212D01*
X0108468Y0221212D02*
X0097857Y0221212D01*
X0096725Y0218814D02*
X0106136Y0218814D01*
X0105431Y0216415D02*
X0095273Y0216415D01*
X0088263Y0216415D02*
X0065664Y0216415D01*
X0065664Y0214017D02*
X0105831Y0214017D01*
X0107642Y0211618D02*
X0073792Y0211618D01*
X0075385Y0209220D02*
X0192335Y0209220D01*
X0192335Y0211618D02*
X0113925Y0211618D01*
X0112248Y0235604D02*
X0138106Y0235604D01*
X0143759Y0228408D02*
X0166284Y0228408D01*
X0168451Y0230807D02*
X0168683Y0230807D01*
X0170849Y0233205D02*
X0171081Y0233205D01*
X0173248Y0235604D02*
X0173480Y0235604D01*
X0175646Y0238002D02*
X0175878Y0238002D01*
X0178045Y0240401D02*
X0178277Y0240401D01*
X0174357Y0245198D02*
X0166499Y0245198D01*
X0166871Y0245570D02*
X0165698Y0244397D01*
X0164164Y0243761D01*
X0162505Y0243761D01*
X0160972Y0244397D01*
X0159798Y0245570D01*
X0159163Y0247103D01*
X0159163Y0247274D01*
X0158871Y0246570D01*
X0157698Y0245397D01*
X0156164Y0244761D01*
X0154505Y0244761D01*
X0152972Y0245397D01*
X0151798Y0246570D01*
X0151163Y0248103D01*
X0151163Y0249763D01*
X0151798Y0251296D01*
X0152972Y0252470D01*
X0154505Y0253105D01*
X0156164Y0253105D01*
X0157698Y0252470D01*
X0158871Y0251296D01*
X0159506Y0249763D01*
X0159506Y0249592D01*
X0159798Y0250296D01*
X0160972Y0251470D01*
X0162505Y0252105D01*
X0164164Y0252105D01*
X0165163Y0251691D01*
X0165163Y0252763D01*
X0165798Y0254296D01*
X0166972Y0255470D01*
X0168505Y0256105D01*
X0170164Y0256105D01*
X0171698Y0255470D01*
X0172871Y0254296D01*
X0173506Y0252763D01*
X0173506Y0251103D01*
X0172871Y0249570D01*
X0171698Y0248397D01*
X0170164Y0247761D01*
X0168505Y0247761D01*
X0167506Y0248175D01*
X0167506Y0247103D01*
X0166871Y0245570D01*
X0167506Y0247596D02*
X0176924Y0247596D01*
X0179259Y0249995D02*
X0173047Y0249995D01*
X0173506Y0252393D02*
X0180895Y0252393D01*
X0185774Y0252393D02*
X0188935Y0252393D01*
X0188935Y0249995D02*
X0187410Y0249995D01*
X0187745Y0247596D02*
X0188935Y0247596D01*
X0188935Y0254792D02*
X0172376Y0254792D01*
X0166294Y0254792D02*
X0149376Y0254792D01*
X0149335Y0257190D02*
X0187178Y0257190D01*
X0186163Y0259589D02*
X0149335Y0259589D01*
X0149335Y0261987D02*
X0174960Y0261987D01*
X0177709Y0261987D02*
X0186670Y0261987D01*
X0184998Y0264386D02*
X0180209Y0264386D01*
X0180497Y0266784D02*
X0183295Y0266784D01*
X0183337Y0269183D02*
X0178985Y0269183D01*
X0176506Y0271581D02*
X0184444Y0271581D01*
X0182045Y0273980D02*
X0175188Y0273980D01*
X0169482Y0273980D02*
X0158466Y0273980D01*
X0156203Y0273980D02*
X0073438Y0273980D01*
X0075238Y0271581D02*
X0094740Y0271581D01*
X0092342Y0269183D02*
X0075900Y0269183D01*
X0075749Y0266784D02*
X0089943Y0266784D01*
X0087545Y0264386D02*
X0074670Y0264386D01*
X0071508Y0261987D02*
X0085146Y0261987D01*
X0088834Y0257190D02*
X0089605Y0257190D01*
X0089210Y0254792D02*
X0086825Y0254792D01*
X0087259Y0252393D02*
X0086136Y0252393D01*
X0091233Y0259589D02*
X0091748Y0259589D01*
X0093631Y0261987D02*
X0094146Y0261987D01*
X0096030Y0264386D02*
X0096545Y0264386D01*
X0098428Y0266784D02*
X0098943Y0266784D01*
X0102631Y0261987D02*
X0106194Y0261987D01*
X0105431Y0259589D02*
X0100233Y0259589D01*
X0097834Y0257190D02*
X0105772Y0257190D01*
X0107501Y0254792D02*
X0095436Y0254792D01*
X0096277Y0252393D02*
X0106528Y0252393D01*
X0105431Y0249995D02*
X0096825Y0249995D01*
X0096220Y0247596D02*
X0105604Y0247596D01*
X0107095Y0245198D02*
X0093237Y0245198D01*
X0095521Y0242799D02*
X0110958Y0242799D01*
X0108560Y0240401D02*
X0096413Y0240401D01*
X0095931Y0238002D02*
X0106161Y0238002D01*
X0114646Y0238002D02*
X0167161Y0238002D01*
X0169560Y0240401D02*
X0117045Y0240401D01*
X0119443Y0242799D02*
X0171958Y0242799D01*
X0165163Y0252393D02*
X0157774Y0252393D01*
X0159410Y0249995D02*
X0159673Y0249995D01*
X0160170Y0245198D02*
X0157217Y0245198D01*
X0153452Y0245198D02*
X0121842Y0245198D01*
X0124240Y0247596D02*
X0151373Y0247596D01*
X0151259Y0249995D02*
X0150047Y0249995D01*
X0150506Y0252393D02*
X0152895Y0252393D01*
X0143294Y0254792D02*
X0141506Y0254792D01*
X0140915Y0257190D02*
X0143335Y0257190D01*
X0143335Y0259589D02*
X0116136Y0259589D01*
X0115795Y0257190D02*
X0125349Y0257190D01*
X0122951Y0254792D02*
X0114066Y0254792D01*
X0115039Y0252393D02*
X0120552Y0252393D01*
X0118154Y0249995D02*
X0116136Y0249995D01*
X0126639Y0249995D02*
X0142622Y0249995D01*
X0142163Y0252393D02*
X0140694Y0252393D01*
X0143335Y0261987D02*
X0115373Y0261987D01*
X0117505Y0281761D02*
X0115972Y0282397D01*
X0114798Y0283570D01*
X0114163Y0285103D01*
X0114163Y0286763D01*
X0114798Y0288296D01*
X0115972Y0289470D01*
X0117505Y0290105D01*
X0119164Y0290105D01*
X0120698Y0289470D01*
X0121871Y0288296D01*
X0122506Y0286763D01*
X0122506Y0285103D01*
X0121871Y0283570D01*
X0120698Y0282397D01*
X0119164Y0281761D01*
X0117505Y0281761D01*
X0114797Y0283574D02*
X0096937Y0283574D01*
X0099335Y0281175D02*
X0142850Y0281175D01*
X0140451Y0283574D02*
X0135875Y0283574D01*
X0137452Y0285972D02*
X0138053Y0285972D01*
X0137335Y0288371D02*
X0137254Y0288371D01*
X0137335Y0290769D02*
X0134974Y0290769D01*
X0131695Y0290769D02*
X0091335Y0290769D01*
X0091335Y0293168D02*
X0091605Y0293168D01*
X0092140Y0288371D02*
X0114873Y0288371D01*
X0114163Y0285972D02*
X0094538Y0285972D01*
X0100579Y0293168D02*
X0102706Y0293168D01*
X0102706Y0295566D02*
X0100579Y0295566D01*
X0102706Y0297965D02*
X0115606Y0297965D01*
X0115565Y0298064D02*
X0116230Y0296459D01*
X0117459Y0295230D01*
X0119064Y0294565D01*
X0120802Y0294565D01*
X0122408Y0295230D01*
X0123637Y0296459D01*
X0124302Y0298064D01*
X0124302Y0299802D01*
X0123637Y0301408D01*
X0122408Y0302637D01*
X0120802Y0303302D01*
X0119064Y0303302D01*
X0117459Y0302637D01*
X0116230Y0301408D01*
X0115565Y0299802D01*
X0115565Y0298064D01*
X0115797Y0300363D02*
X0112094Y0300363D01*
X0112094Y0302762D02*
X0117761Y0302762D01*
X0122105Y0302762D02*
X0137335Y0302762D01*
X0137335Y0305160D02*
X0111138Y0305160D01*
X0106506Y0307559D02*
X0137335Y0307559D01*
X0137335Y0309957D02*
X0133638Y0309957D01*
X0133164Y0309761D02*
X0134698Y0310397D01*
X0135871Y0311570D01*
X0136506Y0313103D01*
X0136506Y0314763D01*
X0135871Y0316296D01*
X0134698Y0317470D01*
X0133164Y0318105D01*
X0131505Y0318105D01*
X0129972Y0317470D01*
X0128798Y0316296D01*
X0128163Y0314763D01*
X0128163Y0313103D01*
X0128798Y0311570D01*
X0129972Y0310397D01*
X0131505Y0309761D01*
X0133164Y0309761D01*
X0131032Y0309957D02*
X0106011Y0309957D01*
X0106506Y0312356D02*
X0128473Y0312356D01*
X0128163Y0314754D02*
X0105888Y0314754D01*
X0105454Y0317153D02*
X0129655Y0317153D01*
X0135014Y0317153D02*
X0137335Y0317153D01*
X0137335Y0319551D02*
X0106506Y0319551D01*
X0106015Y0321950D02*
X0137335Y0321950D01*
X0137335Y0324348D02*
X0104582Y0324348D01*
X0106359Y0326747D02*
X0137335Y0326747D01*
X0143335Y0326747D02*
X0169057Y0326747D01*
X0169283Y0326972D02*
X0163320Y0321010D01*
X0162772Y0319687D01*
X0162772Y0305861D01*
X0158690Y0305861D01*
X0157808Y0305495D01*
X0157133Y0304820D01*
X0156767Y0303938D01*
X0156767Y0296400D01*
X0156698Y0296470D01*
X0155164Y0297105D01*
X0154071Y0297105D01*
X0154420Y0297947D01*
X0154420Y0299919D01*
X0153665Y0301742D01*
X0152270Y0303137D01*
X0150447Y0303892D01*
X0148474Y0303892D01*
X0146652Y0303137D01*
X0145257Y0301742D01*
X0144502Y0299919D01*
X0144502Y0297947D01*
X0145257Y0296124D01*
X0146652Y0294729D01*
X0148474Y0293974D01*
X0150250Y0293974D01*
X0150163Y0293763D01*
X0150163Y0293105D01*
X0149505Y0293105D01*
X0147972Y0292470D01*
X0146798Y0291296D01*
X0146163Y0289763D01*
X0146163Y0288103D01*
X0146798Y0286570D01*
X0147435Y0285933D01*
X0146577Y0285933D01*
X0143335Y0289176D01*
X0143335Y0333530D01*
X0142878Y0334632D01*
X0142034Y0335476D01*
X0139335Y0338176D01*
X0139335Y0343033D01*
X0139972Y0342397D01*
X0141505Y0341761D01*
X0143164Y0341761D01*
X0144698Y0342397D01*
X0145871Y0343570D01*
X0146506Y0345103D01*
X0146506Y0345519D01*
X0152791Y0339234D01*
X0152791Y0339234D01*
X0153635Y0338390D01*
X0154738Y0337933D01*
X0189092Y0337933D01*
X0194335Y0332690D01*
X0194335Y0329034D01*
X0194164Y0329105D01*
X0192505Y0329105D01*
X0191125Y0328533D01*
X0171619Y0328533D01*
X0170295Y0327985D01*
X0169283Y0326972D01*
X0172335Y0324933D02*
X0193335Y0324933D01*
X0194335Y0329145D02*
X0143335Y0329145D01*
X0143335Y0331544D02*
X0194335Y0331544D01*
X0193083Y0333943D02*
X0143164Y0333943D01*
X0141169Y0336341D02*
X0190684Y0336341D01*
X0189839Y0355529D02*
X0165506Y0355529D01*
X0165103Y0353131D02*
X0217894Y0353131D01*
X0220293Y0350732D02*
X0162778Y0350732D01*
X0165177Y0348334D02*
X0222691Y0348334D01*
X0226380Y0353131D02*
X0231566Y0353131D01*
X0231163Y0355529D02*
X0223981Y0355529D01*
X0221583Y0357928D02*
X0232430Y0357928D01*
X0235396Y0360326D02*
X0220273Y0360326D01*
X0218082Y0362725D02*
X0230734Y0362725D01*
X0240038Y0365123D02*
X0244335Y0365123D01*
X0244335Y0362725D02*
X0241082Y0362725D01*
X0243273Y0360326D02*
X0244335Y0360326D01*
X0244335Y0357928D02*
X0243434Y0357928D01*
X0244335Y0355529D02*
X0241830Y0355529D01*
X0241037Y0353131D02*
X0244335Y0353131D01*
X0245293Y0350732D02*
X0242506Y0350732D01*
X0240488Y0343537D02*
X0235974Y0343537D01*
X0237086Y0345935D02*
X0233575Y0345935D01*
X0234482Y0348334D02*
X0231177Y0348334D01*
X0228778Y0350732D02*
X0234163Y0350732D01*
X0238372Y0341138D02*
X0251163Y0341138D01*
X0252629Y0338740D02*
X0240771Y0338740D01*
X0232286Y0338740D02*
X0232046Y0338740D01*
X0254387Y0365123D02*
X0255726Y0365123D01*
X0244335Y0367522D02*
X0242265Y0367522D01*
X0242441Y0369920D02*
X0244335Y0369920D01*
X0244335Y0372319D02*
X0240849Y0372319D01*
X0234455Y0381913D02*
X0231557Y0381913D01*
X0227869Y0386710D02*
X0224506Y0386710D01*
X0224506Y0386763D02*
X0223871Y0388296D01*
X0222698Y0389470D01*
X0221164Y0390105D01*
X0219505Y0390105D01*
X0217972Y0389470D01*
X0216798Y0388296D01*
X0216163Y0386763D01*
X0216163Y0385103D01*
X0216798Y0383570D01*
X0217972Y0382397D01*
X0219505Y0381761D01*
X0221164Y0381761D01*
X0222698Y0382397D01*
X0223871Y0383570D01*
X0224506Y0385103D01*
X0224506Y0386763D01*
X0224667Y0389108D02*
X0223059Y0389108D01*
X0222410Y0391507D02*
X0175654Y0391507D01*
X0173471Y0389108D02*
X0217610Y0389108D01*
X0216163Y0386710D02*
X0171432Y0386710D01*
X0169393Y0384311D02*
X0216491Y0384311D01*
X0214030Y0381913D02*
X0219139Y0381913D01*
X0221530Y0381913D02*
X0223072Y0381913D01*
X0224178Y0384311D02*
X0225470Y0384311D01*
X0220673Y0379514D02*
X0214506Y0379514D01*
X0213417Y0377116D02*
X0218275Y0377116D01*
X0206639Y0381913D02*
X0167355Y0381913D01*
X0178053Y0393905D02*
X0222222Y0393905D01*
X0224402Y0401101D02*
X0244335Y0401101D01*
X0243526Y0403499D02*
X0225506Y0403499D01*
X0225036Y0405898D02*
X0228466Y0405898D01*
X0230964Y0405898D02*
X0230965Y0405898D01*
X0230964Y0408296D02*
X0230965Y0408296D01*
X0230964Y0410695D02*
X0230965Y0410695D01*
X0230964Y0413093D02*
X0230965Y0413093D01*
X0230964Y0415492D02*
X0230965Y0415492D01*
X0233811Y0415492D02*
X0237172Y0415492D01*
X0244442Y0415492D02*
X0247014Y0415492D01*
X0254285Y0415492D02*
X0256857Y0415492D01*
X0264128Y0415492D02*
X0264737Y0415492D01*
X0264826Y0405898D02*
X0263950Y0405898D01*
X0265804Y0401101D02*
X0269586Y0401101D01*
X0267665Y0398702D02*
X0267447Y0398702D01*
X0275843Y0405898D02*
X0291466Y0405898D01*
X0293964Y0405898D02*
X0293965Y0405898D01*
X0293964Y0408296D02*
X0293965Y0408296D01*
X0293964Y0410695D02*
X0293965Y0410695D01*
X0293964Y0413093D02*
X0293965Y0413093D01*
X0293964Y0415492D02*
X0293965Y0415492D01*
X0296811Y0415492D02*
X0300172Y0415492D01*
X0291118Y0415492D02*
X0275932Y0415492D01*
X0276235Y0413093D02*
X0288983Y0413093D01*
X0288477Y0410695D02*
X0276235Y0410695D01*
X0276235Y0408296D02*
X0289073Y0408296D01*
X0296463Y0405898D02*
X0300349Y0405898D01*
X0300807Y0398702D02*
X0277004Y0398702D01*
X0277322Y0396304D02*
X0300807Y0396304D01*
X0300807Y0393905D02*
X0277322Y0393905D01*
X0277322Y0391507D02*
X0280061Y0391507D01*
X0278306Y0389108D02*
X0276986Y0389108D01*
X0284608Y0391507D02*
X0286061Y0391507D01*
X0290608Y0391507D02*
X0300807Y0391507D01*
X0300807Y0389108D02*
X0292363Y0389108D01*
X0292343Y0386710D02*
X0300807Y0386710D01*
X0300807Y0384311D02*
X0290492Y0384311D01*
X0286177Y0384311D02*
X0284492Y0384311D01*
X0309166Y0367522D02*
X0347681Y0367522D01*
X0350079Y0369920D02*
X0311564Y0369920D01*
X0313963Y0372319D02*
X0352478Y0372319D01*
X0354876Y0374717D02*
X0316263Y0374717D01*
X0316650Y0377116D02*
X0357275Y0377116D01*
X0359673Y0379514D02*
X0316650Y0379514D01*
X0316650Y0381913D02*
X0351455Y0381913D01*
X0351972Y0381397D02*
X0353505Y0380761D01*
X0355164Y0380761D01*
X0356698Y0381397D01*
X0357871Y0382570D01*
X0358506Y0384103D01*
X0358506Y0385763D01*
X0357871Y0387296D01*
X0356698Y0388470D01*
X0355164Y0389105D01*
X0353505Y0389105D01*
X0351972Y0388470D01*
X0350798Y0387296D01*
X0350163Y0385763D01*
X0350163Y0384103D01*
X0350798Y0382570D01*
X0351972Y0381397D01*
X0350163Y0384311D02*
X0316650Y0384311D01*
X0316650Y0386710D02*
X0335834Y0386710D01*
X0336261Y0386533D02*
X0338409Y0386533D01*
X0340393Y0387355D01*
X0341913Y0388874D01*
X0342569Y0390460D01*
X0342713Y0390019D01*
X0343069Y0389319D01*
X0343530Y0388684D01*
X0344086Y0388129D01*
X0344721Y0387667D01*
X0345420Y0387311D01*
X0346167Y0387068D01*
X0346942Y0386946D01*
X0347335Y0386946D01*
X0347727Y0386946D01*
X0348503Y0387068D01*
X0349249Y0387311D01*
X0349949Y0387667D01*
X0350584Y0388129D01*
X0351139Y0388684D01*
X0351600Y0389319D01*
X0351957Y0390019D01*
X0352199Y0390765D01*
X0352322Y0391541D01*
X0352322Y0394933D01*
X0347335Y0394933D01*
X0347335Y0394933D01*
X0352322Y0394933D01*
X0352322Y0398326D01*
X0352199Y0399101D01*
X0351957Y0399848D01*
X0351600Y0400547D01*
X0351139Y0401182D01*
X0350584Y0401737D01*
X0349949Y0402199D01*
X0349249Y0402555D01*
X0348503Y0402798D01*
X0347727Y0402920D01*
X0347335Y0402920D01*
X0347335Y0394933D01*
X0347335Y0386946D01*
X0347335Y0394933D01*
X0347335Y0394933D01*
X0347335Y0394933D01*
X0347335Y0402920D01*
X0346942Y0402920D01*
X0346167Y0402798D01*
X0345420Y0402555D01*
X0344721Y0402199D01*
X0344086Y0401737D01*
X0343530Y0401182D01*
X0343069Y0400547D01*
X0342713Y0399848D01*
X0342569Y0399406D01*
X0341913Y0400992D01*
X0340393Y0402511D01*
X0338409Y0403333D01*
X0336261Y0403333D01*
X0334276Y0402511D01*
X0332757Y0400992D01*
X0331935Y0399007D01*
X0331935Y0390859D01*
X0332757Y0388874D01*
X0334276Y0387355D01*
X0336261Y0386533D01*
X0338835Y0386710D02*
X0350555Y0386710D01*
X0351447Y0389108D02*
X0357222Y0389108D01*
X0357069Y0389319D02*
X0357530Y0388684D01*
X0358086Y0388129D01*
X0358721Y0387667D01*
X0359420Y0387311D01*
X0360167Y0387068D01*
X0360942Y0386946D01*
X0361335Y0386946D01*
X0361335Y0394933D01*
X0361335Y0394933D01*
X0361335Y0394933D01*
X0361335Y0402920D01*
X0360942Y0402920D01*
X0360167Y0402798D01*
X0359420Y0402555D01*
X0358721Y0402199D01*
X0358086Y0401737D01*
X0357530Y0401182D01*
X0357069Y0400547D01*
X0356713Y0399848D01*
X0356470Y0399101D01*
X0356347Y0398326D01*
X0356347Y0394933D01*
X0356347Y0391541D01*
X0356470Y0390765D01*
X0356713Y0390019D01*
X0357069Y0389319D01*
X0356353Y0391507D02*
X0352317Y0391507D01*
X0352322Y0393905D02*
X0356347Y0393905D01*
X0356347Y0394933D02*
X0361335Y0394933D01*
X0361335Y0394933D01*
X0356347Y0394933D01*
X0356347Y0396304D02*
X0352322Y0396304D01*
X0352262Y0398702D02*
X0356407Y0398702D01*
X0357471Y0401101D02*
X0351198Y0401101D01*
X0347335Y0401101D02*
X0347335Y0401101D01*
X0347335Y0398702D02*
X0347335Y0398702D01*
X0347335Y0396304D02*
X0347335Y0396304D01*
X0347335Y0393905D02*
X0347335Y0393905D01*
X0347335Y0391507D02*
X0347335Y0391507D01*
X0347335Y0389108D02*
X0347335Y0389108D01*
X0343222Y0389108D02*
X0342009Y0389108D01*
X0332660Y0389108D02*
X0316650Y0389108D01*
X0316650Y0391507D02*
X0331935Y0391507D01*
X0331935Y0393905D02*
X0316650Y0393905D01*
X0316650Y0396304D02*
X0331935Y0396304D01*
X0331935Y0398702D02*
X0316650Y0398702D01*
X0316650Y0401101D02*
X0332866Y0401101D01*
X0327826Y0405898D02*
X0326950Y0405898D01*
X0320034Y0405898D02*
X0317108Y0405898D01*
X0316650Y0403499D02*
X0363335Y0403499D01*
X0363335Y0405898D02*
X0359169Y0405898D01*
X0356965Y0405898D02*
X0356964Y0405898D01*
X0356964Y0405446D02*
X0356964Y0410933D01*
X0351477Y0410933D01*
X0351477Y0410501D01*
X0351612Y0409648D01*
X0351879Y0408827D01*
X0352271Y0408057D01*
X0352779Y0407358D01*
X0353390Y0406748D01*
X0354089Y0406240D01*
X0354858Y0405848D01*
X0355680Y0405581D01*
X0356533Y0405446D01*
X0356964Y0405446D01*
X0354760Y0405898D02*
X0338843Y0405898D01*
X0339235Y0408296D02*
X0352149Y0408296D01*
X0351477Y0410695D02*
X0339235Y0410695D01*
X0339235Y0413093D02*
X0351907Y0413093D01*
X0351879Y0413039D02*
X0351612Y0412218D01*
X0351477Y0411365D01*
X0351477Y0410933D01*
X0356964Y0410933D01*
X0356964Y0410933D01*
X0356965Y0410933D01*
X0356964Y0410933D01*
X0356964Y0416420D01*
X0356533Y0416420D01*
X0355680Y0416285D01*
X0354858Y0416018D01*
X0354089Y0415626D01*
X0353390Y0415119D01*
X0352779Y0414508D01*
X0352271Y0413809D01*
X0351879Y0413039D01*
X0353904Y0415492D02*
X0338932Y0415492D01*
X0327737Y0415492D02*
X0327128Y0415492D01*
X0319857Y0415492D02*
X0317285Y0415492D01*
X0310014Y0415492D02*
X0307442Y0415492D01*
X0341804Y0401101D02*
X0343471Y0401101D01*
X0356964Y0408296D02*
X0356965Y0408296D01*
X0356964Y0410695D02*
X0356965Y0410695D01*
X0356964Y0413093D02*
X0356965Y0413093D01*
X0356964Y0415492D02*
X0356965Y0415492D01*
X0360026Y0415492D02*
X0363022Y0415492D01*
X0370592Y0415492D02*
X0372865Y0415492D01*
X0380435Y0415492D02*
X0382707Y0415492D01*
X0390277Y0415492D02*
X0390676Y0415492D01*
X0390976Y0405898D02*
X0389753Y0405898D01*
X0383231Y0405898D02*
X0379911Y0405898D01*
X0379650Y0403499D02*
X0406087Y0403499D01*
X0406033Y0405898D02*
X0401694Y0405898D01*
X0402235Y0408296D02*
X0406378Y0408296D01*
X0406918Y0410695D02*
X0402235Y0410695D01*
X0402235Y0413093D02*
X0408014Y0413093D01*
X0409379Y0415492D02*
X0401994Y0415492D01*
X0411457Y0417890D02*
X0074913Y0417890D01*
X0052946Y0389108D02*
X0048735Y0389108D01*
X0048735Y0386710D02*
X0059339Y0386710D01*
X0049577Y0391507D02*
X0048735Y0391507D01*
X0048735Y0369920D02*
X0068642Y0369920D01*
X0068163Y0367522D02*
X0048735Y0367522D01*
X0048735Y0365123D02*
X0069245Y0365123D01*
X0069505Y0355105D02*
X0067972Y0354470D01*
X0066798Y0353296D01*
X0066163Y0351763D01*
X0066163Y0350103D01*
X0066798Y0348570D01*
X0067972Y0347397D01*
X0069505Y0346761D01*
X0071164Y0346761D01*
X0072698Y0347397D01*
X0073871Y0348570D01*
X0074506Y0350103D01*
X0074506Y0351763D01*
X0073871Y0353296D01*
X0072698Y0354470D01*
X0071164Y0355105D01*
X0069505Y0355105D01*
X0066730Y0353131D02*
X0048735Y0353131D01*
X0048735Y0355529D02*
X0084839Y0355529D01*
X0084730Y0353131D02*
X0073940Y0353131D01*
X0074506Y0350732D02*
X0084163Y0350732D01*
X0085035Y0348334D02*
X0073635Y0348334D01*
X0067035Y0348334D02*
X0048735Y0348334D01*
X0048735Y0350732D02*
X0066163Y0350732D01*
X0079300Y0362725D02*
X0048735Y0362725D01*
X0048735Y0360326D02*
X0081699Y0360326D01*
X0083236Y0357928D02*
X0048735Y0357928D01*
X0048735Y0345935D02*
X0090335Y0345935D01*
X0090335Y0343537D02*
X0048735Y0343537D01*
X0048735Y0341138D02*
X0090335Y0341138D01*
X0088898Y0338740D02*
X0048735Y0338740D01*
X0048735Y0336341D02*
X0086500Y0336341D01*
X0085335Y0333943D02*
X0048735Y0333943D01*
X0048735Y0331544D02*
X0085335Y0331544D01*
X0085335Y0329145D02*
X0048735Y0329145D01*
X0048735Y0326747D02*
X0085335Y0326747D01*
X0085335Y0324348D02*
X0048735Y0324348D01*
X0048735Y0321950D02*
X0085335Y0321950D01*
X0085335Y0319551D02*
X0048735Y0319551D01*
X0048735Y0317153D02*
X0085335Y0317153D01*
X0085335Y0314754D02*
X0048735Y0314754D01*
X0048735Y0312356D02*
X0085335Y0312356D01*
X0085335Y0309957D02*
X0048735Y0309957D01*
X0048735Y0307559D02*
X0085335Y0307559D01*
X0106348Y0329145D02*
X0130560Y0329145D01*
X0130163Y0331544D02*
X0106275Y0331544D01*
X0106432Y0333943D02*
X0131444Y0333943D01*
X0133335Y0336341D02*
X0104826Y0336341D01*
X0104737Y0353131D02*
X0101056Y0353131D01*
X0103438Y0357928D02*
X0103438Y0357928D01*
X0101841Y0360326D02*
X0105832Y0360326D01*
X0108837Y0360326D02*
X0133335Y0360326D01*
X0133335Y0357928D02*
X0111231Y0357928D01*
X0111476Y0355529D02*
X0133335Y0355529D01*
X0133335Y0353131D02*
X0128940Y0353131D01*
X0129506Y0350732D02*
X0133335Y0350732D01*
X0133335Y0348334D02*
X0128635Y0348334D01*
X0121730Y0353131D02*
X0109932Y0353131D01*
X0088649Y0377116D02*
X0082395Y0377116D01*
X0079996Y0379514D02*
X0086407Y0379514D01*
X0086225Y0381913D02*
X0077598Y0381913D01*
X0073856Y0384311D02*
X0087813Y0384311D01*
X0139335Y0341138D02*
X0150887Y0341138D01*
X0153286Y0338740D02*
X0139335Y0338740D01*
X0145838Y0343537D02*
X0148489Y0343537D01*
X0152177Y0348334D02*
X0156691Y0348334D01*
X0154575Y0345935D02*
X0159090Y0345935D01*
X0161092Y0343933D02*
X0156577Y0343933D01*
X0142335Y0358176D01*
X0142335Y0362690D01*
X0161092Y0343933D01*
X0154293Y0350732D02*
X0149778Y0350732D01*
X0151894Y0353131D02*
X0147380Y0353131D01*
X0149496Y0355529D02*
X0144981Y0355529D01*
X0147097Y0357928D02*
X0142583Y0357928D01*
X0142335Y0360326D02*
X0144699Y0360326D01*
X0153184Y0360326D02*
X0188396Y0360326D01*
X0188236Y0357928D02*
X0164240Y0357928D01*
X0158430Y0357928D02*
X0155583Y0357928D01*
X0166659Y0324348D02*
X0143335Y0324348D01*
X0143335Y0321950D02*
X0164260Y0321950D01*
X0162772Y0319551D02*
X0143335Y0319551D01*
X0143335Y0317153D02*
X0162772Y0317153D01*
X0162772Y0314754D02*
X0143335Y0314754D01*
X0143335Y0312356D02*
X0149858Y0312356D01*
X0149972Y0312470D02*
X0148798Y0311296D01*
X0148163Y0309763D01*
X0148163Y0308103D01*
X0148798Y0306570D01*
X0149972Y0305397D01*
X0151505Y0304761D01*
X0153164Y0304761D01*
X0154698Y0305397D01*
X0155871Y0306570D01*
X0156506Y0308103D01*
X0156506Y0309763D01*
X0155871Y0311296D01*
X0154698Y0312470D01*
X0153164Y0313105D01*
X0151505Y0313105D01*
X0149972Y0312470D01*
X0148244Y0309957D02*
X0143335Y0309957D01*
X0143335Y0307559D02*
X0148388Y0307559D01*
X0150542Y0305160D02*
X0143335Y0305160D01*
X0143335Y0302762D02*
X0146276Y0302762D01*
X0144685Y0300363D02*
X0143335Y0300363D01*
X0143335Y0297965D02*
X0144502Y0297965D01*
X0143335Y0295566D02*
X0145814Y0295566D01*
X0143335Y0293168D02*
X0150163Y0293168D01*
X0146580Y0290769D02*
X0143335Y0290769D01*
X0144140Y0288371D02*
X0146163Y0288371D01*
X0146538Y0285972D02*
X0147396Y0285972D01*
X0137335Y0293168D02*
X0111680Y0293168D01*
X0112094Y0295566D02*
X0117122Y0295566D01*
X0122744Y0295566D02*
X0137335Y0295566D01*
X0137335Y0297965D02*
X0124260Y0297965D01*
X0124069Y0300363D02*
X0137335Y0300363D01*
X0129415Y0288371D02*
X0121797Y0288371D01*
X0122506Y0285972D02*
X0129217Y0285972D01*
X0130794Y0283574D02*
X0121873Y0283574D01*
X0147726Y0266784D02*
X0154584Y0266784D01*
X0149335Y0264386D02*
X0164982Y0264386D01*
X0164163Y0266784D02*
X0160085Y0266784D01*
X0161506Y0269183D02*
X0164751Y0269183D01*
X0168163Y0271581D02*
X0161167Y0271581D01*
X0171687Y0264386D02*
X0172460Y0264386D01*
X0189672Y0264386D02*
X0191639Y0264386D01*
X0185335Y0235604D02*
X0182531Y0235604D01*
X0180132Y0233205D02*
X0185335Y0233205D01*
X0185335Y0230807D02*
X0177734Y0230807D01*
X0175335Y0228408D02*
X0185335Y0228408D01*
X0182679Y0226010D02*
X0172937Y0226010D01*
X0170538Y0223611D02*
X0182163Y0223611D01*
X0183156Y0221212D02*
X0168140Y0221212D01*
X0165741Y0218814D02*
X0192335Y0218814D01*
X0192335Y0221212D02*
X0189514Y0221212D01*
X0190506Y0223611D02*
X0192335Y0223611D01*
X0192335Y0226010D02*
X0191335Y0226010D01*
X0191335Y0228408D02*
X0192335Y0228408D01*
X0192335Y0216415D02*
X0163343Y0216415D01*
X0160944Y0214017D02*
X0192335Y0214017D01*
X0192335Y0206821D02*
X0075900Y0206821D01*
X0075602Y0204423D02*
X0192335Y0204423D01*
X0192335Y0202024D02*
X0188984Y0202024D01*
X0189506Y0199626D02*
X0192335Y0199626D01*
X0185594Y0194829D02*
X0184492Y0194829D01*
X0182141Y0197227D02*
X0048735Y0197227D01*
X0048735Y0194829D02*
X0075862Y0194829D01*
X0075862Y0192430D02*
X0048735Y0192430D01*
X0048735Y0190032D02*
X0075862Y0190032D01*
X0075862Y0187633D02*
X0048735Y0187633D01*
X0048735Y0185235D02*
X0075862Y0185235D01*
X0075862Y0182836D02*
X0048735Y0182836D01*
X0048735Y0180438D02*
X0056773Y0180438D01*
X0054066Y0178039D02*
X0048735Y0178039D01*
X0048735Y0175641D02*
X0053749Y0175641D01*
X0054937Y0173242D02*
X0048735Y0173242D01*
X0060413Y0178039D02*
X0060413Y0178039D01*
X0060413Y0180438D02*
X0060413Y0180438D01*
X0064053Y0180438D02*
X0075862Y0180438D01*
X0075862Y0178039D02*
X0066761Y0178039D01*
X0067078Y0175641D02*
X0075862Y0175641D01*
X0075862Y0173242D02*
X0065890Y0173242D01*
X0066897Y0199626D02*
X0048735Y0199626D01*
X0048735Y0202024D02*
X0063235Y0202024D01*
X0061949Y0204423D02*
X0048735Y0204423D01*
X0048735Y0206821D02*
X0053418Y0206821D01*
X0050030Y0209220D02*
X0048735Y0209220D01*
X0060117Y0206821D02*
X0061651Y0206821D01*
X0070654Y0199626D02*
X0181163Y0199626D01*
X0181686Y0202024D02*
X0074316Y0202024D01*
X0080762Y0220006D02*
X0082774Y0220006D01*
X0084633Y0220775D01*
X0086055Y0222198D01*
X0086825Y0224057D01*
X0086825Y0226069D01*
X0086055Y0227928D01*
X0084633Y0229351D01*
X0082774Y0230120D01*
X0080762Y0230120D01*
X0078903Y0229351D01*
X0077480Y0227928D01*
X0076710Y0226069D01*
X0076710Y0224057D01*
X0077480Y0222198D01*
X0078903Y0220775D01*
X0080762Y0220006D01*
X0078466Y0221212D02*
X0063199Y0221212D01*
X0063016Y0223611D02*
X0059378Y0223611D01*
X0061685Y0226010D02*
X0048735Y0226010D01*
X0048735Y0228408D02*
X0061685Y0228408D01*
X0061685Y0230807D02*
X0048735Y0230807D01*
X0048735Y0233205D02*
X0061685Y0233205D01*
X0061685Y0235604D02*
X0048735Y0235604D01*
X0048735Y0238002D02*
X0061685Y0238002D01*
X0061685Y0240401D02*
X0048735Y0240401D01*
X0048735Y0242799D02*
X0061685Y0242799D01*
X0061685Y0245198D02*
X0048735Y0245198D01*
X0048735Y0247596D02*
X0061685Y0247596D01*
X0061685Y0249995D02*
X0048735Y0249995D01*
X0048735Y0252393D02*
X0052038Y0252393D01*
X0049458Y0254792D02*
X0048735Y0254792D01*
X0048735Y0264386D02*
X0048929Y0264386D01*
X0048735Y0266784D02*
X0050908Y0266784D01*
X0061498Y0252393D02*
X0063349Y0252393D01*
X0072985Y0247596D02*
X0077343Y0247596D01*
X0076710Y0245198D02*
X0072985Y0245198D01*
X0072985Y0242799D02*
X0077231Y0242799D01*
X0079808Y0240401D02*
X0072985Y0240401D01*
X0072985Y0238002D02*
X0078162Y0238002D01*
X0078225Y0238089D02*
X0077795Y0237497D01*
X0077463Y0236846D01*
X0077237Y0236151D01*
X0077123Y0235429D01*
X0077123Y0235063D01*
X0081768Y0235063D01*
X0086413Y0235063D01*
X0086413Y0235429D01*
X0086298Y0236151D01*
X0086072Y0236846D01*
X0085740Y0237497D01*
X0085311Y0238089D01*
X0084794Y0238606D01*
X0084202Y0239036D01*
X0083551Y0239368D01*
X0082855Y0239593D01*
X0082133Y0239708D01*
X0081768Y0239708D01*
X0081768Y0235063D01*
X0081768Y0235063D01*
X0086413Y0235063D01*
X0086413Y0234697D01*
X0086298Y0233975D01*
X0086072Y0233280D01*
X0085740Y0232629D01*
X0085311Y0232037D01*
X0084794Y0231520D01*
X0084202Y0231090D01*
X0083551Y0230758D01*
X0082855Y0230532D01*
X0082133Y0230418D01*
X0081768Y0230418D01*
X0081768Y0235063D01*
X0081768Y0235063D01*
X0081768Y0235063D01*
X0081768Y0239708D01*
X0081402Y0239708D01*
X0080680Y0239593D01*
X0079985Y0239368D01*
X0079333Y0239036D01*
X0078742Y0238606D01*
X0078225Y0238089D01*
X0077151Y0235604D02*
X0072985Y0235604D01*
X0072985Y0233205D02*
X0077501Y0233205D01*
X0077463Y0233280D02*
X0077795Y0232629D01*
X0078225Y0232037D01*
X0078742Y0231520D01*
X0079333Y0231090D01*
X0079985Y0230758D01*
X0080680Y0230532D01*
X0081402Y0230418D01*
X0081768Y0230418D01*
X0081768Y0235063D01*
X0077123Y0235063D01*
X0077123Y0234697D01*
X0077237Y0233975D01*
X0077463Y0233280D01*
X0079890Y0230807D02*
X0072985Y0230807D01*
X0072985Y0228408D02*
X0077960Y0228408D01*
X0076710Y0226010D02*
X0072985Y0226010D01*
X0071653Y0223611D02*
X0076895Y0223611D01*
X0081768Y0230807D02*
X0081768Y0230807D01*
X0083645Y0230807D02*
X0086710Y0230807D01*
X0086979Y0228408D02*
X0085575Y0228408D01*
X0086825Y0226010D02*
X0088669Y0226010D01*
X0088163Y0223611D02*
X0086640Y0223611D01*
X0086770Y0221212D02*
X0085070Y0221212D01*
X0086811Y0218814D02*
X0064843Y0218814D01*
X0054158Y0223611D02*
X0048735Y0223611D01*
X0048735Y0221212D02*
X0050336Y0221212D01*
X0081768Y0233205D02*
X0081768Y0233205D01*
X0081768Y0235063D02*
X0081768Y0235063D01*
X0081768Y0235604D02*
X0081768Y0235604D01*
X0081768Y0238002D02*
X0081768Y0238002D01*
X0083727Y0240401D02*
X0087123Y0240401D01*
X0087605Y0238002D02*
X0085374Y0238002D01*
X0086385Y0235604D02*
X0090461Y0235604D01*
X0087757Y0233205D02*
X0086034Y0233205D01*
X0086304Y0242799D02*
X0088014Y0242799D01*
X0143253Y0221212D02*
X0147532Y0221212D01*
X0147163Y0223611D02*
X0145302Y0223611D01*
X0145404Y0226010D02*
X0148511Y0226010D01*
X0154158Y0226010D02*
X0163886Y0226010D01*
X0161487Y0223611D02*
X0155506Y0223611D01*
X0155137Y0221212D02*
X0159089Y0221212D01*
X0178269Y0196920D02*
X0175347Y0193999D01*
X0175347Y0191933D01*
X0175347Y0189867D01*
X0178269Y0186946D01*
X0180335Y0186946D01*
X0180335Y0191933D01*
X0180335Y0191933D01*
X0180335Y0191933D01*
X0180335Y0196920D01*
X0178269Y0196920D01*
X0180335Y0194829D02*
X0180335Y0194829D01*
X0180335Y0192430D02*
X0180335Y0192430D01*
X0180335Y0191933D02*
X0180335Y0191933D01*
X0175347Y0191933D01*
X0180335Y0191933D01*
X0180335Y0190032D02*
X0180335Y0190032D01*
X0180335Y0187633D02*
X0180335Y0187633D01*
X0180335Y0185235D02*
X0180335Y0185235D01*
X0180335Y0182836D02*
X0180335Y0182836D01*
X0180335Y0181933D02*
X0180335Y0181933D01*
X0175347Y0181933D01*
X0180335Y0181933D01*
X0180335Y0180438D02*
X0180335Y0180438D01*
X0180335Y0178039D02*
X0180335Y0178039D01*
X0181527Y0175641D02*
X0192384Y0175641D01*
X0194783Y0173242D02*
X0182506Y0173242D01*
X0181985Y0170844D02*
X0208875Y0170844D01*
X0209505Y0171105D02*
X0207972Y0170470D01*
X0206798Y0169296D01*
X0206163Y0167763D01*
X0206163Y0166103D01*
X0206798Y0164570D01*
X0207972Y0163397D01*
X0209505Y0162761D01*
X0211164Y0162761D01*
X0212698Y0163397D01*
X0213871Y0164570D01*
X0214506Y0166103D01*
X0214506Y0167763D01*
X0213871Y0169296D01*
X0212698Y0170470D01*
X0211164Y0171105D01*
X0209505Y0171105D01*
X0211794Y0170844D02*
X0260524Y0170844D01*
X0259163Y0173242D02*
X0235592Y0173242D01*
X0238047Y0175641D02*
X0259527Y0175641D01*
X0262347Y0178039D02*
X0254078Y0178039D01*
X0255735Y0180438D02*
X0264835Y0180438D01*
X0264835Y0182836D02*
X0255735Y0182836D01*
X0254670Y0185235D02*
X0264835Y0185235D01*
X0264392Y0187633D02*
X0253672Y0187633D01*
X0255735Y0190032D02*
X0261993Y0190032D01*
X0259716Y0192430D02*
X0255735Y0192430D01*
X0255076Y0194829D02*
X0257502Y0194829D01*
X0255288Y0197227D02*
X0252677Y0197227D01*
X0253074Y0199626D02*
X0238335Y0199626D01*
X0238335Y0202024D02*
X0244870Y0202024D01*
X0247799Y0202024D02*
X0250860Y0202024D01*
X0247992Y0197227D02*
X0242677Y0197227D01*
X0245076Y0194829D02*
X0245594Y0194829D01*
X0242445Y0204423D02*
X0238335Y0204423D01*
X0238966Y0206821D02*
X0242187Y0206821D01*
X0241364Y0209220D02*
X0243722Y0209220D01*
X0248947Y0209220D02*
X0264335Y0209220D01*
X0264335Y0211618D02*
X0255763Y0211618D01*
X0258054Y0214017D02*
X0264335Y0214017D01*
X0263163Y0216415D02*
X0260356Y0216415D01*
X0262659Y0218814D02*
X0263598Y0218814D01*
X0264962Y0221212D02*
X0277398Y0221212D01*
X0275367Y0223611D02*
X0267264Y0223611D01*
X0268335Y0226010D02*
X0275265Y0226010D01*
X0275709Y0228408D02*
X0276910Y0228408D01*
X0276506Y0230807D02*
X0292163Y0230807D01*
X0292335Y0228408D02*
X0281759Y0228408D01*
X0283915Y0226010D02*
X0292335Y0226010D01*
X0292335Y0223611D02*
X0286314Y0223611D01*
X0279797Y0218814D02*
X0271071Y0218814D01*
X0271506Y0216415D02*
X0282195Y0216415D01*
X0274947Y0209220D02*
X0292590Y0209220D01*
X0292863Y0209333D02*
X0290143Y0208206D01*
X0288061Y0206125D01*
X0286935Y0203405D01*
X0286935Y0200461D01*
X0288061Y0197741D01*
X0290143Y0195660D01*
X0292863Y0194533D01*
X0295807Y0194533D01*
X0298526Y0195660D01*
X0300608Y0197741D01*
X0301735Y0200461D01*
X0301735Y0203405D01*
X0300608Y0206125D01*
X0298526Y0208206D01*
X0295807Y0209333D01*
X0292863Y0209333D01*
X0296080Y0209220D02*
X0319957Y0209220D01*
X0319957Y0206821D02*
X0299911Y0206821D01*
X0301313Y0204423D02*
X0319957Y0204423D01*
X0319957Y0202024D02*
X0301735Y0202024D01*
X0301389Y0199626D02*
X0319957Y0199626D01*
X0319957Y0197227D02*
X0300094Y0197227D01*
X0296521Y0194829D02*
X0319957Y0194829D01*
X0319957Y0192430D02*
X0284335Y0192430D01*
X0284335Y0190032D02*
X0319957Y0190032D01*
X0319957Y0187633D02*
X0299100Y0187633D01*
X0297400Y0189333D02*
X0291269Y0189333D01*
X0286935Y0184998D01*
X0286935Y0178868D01*
X0291269Y0174533D01*
X0297400Y0174533D01*
X0301735Y0178868D01*
X0301735Y0184998D01*
X0297400Y0189333D01*
X0301498Y0185235D02*
X0319957Y0185235D01*
X0319957Y0182836D02*
X0301735Y0182836D01*
X0301735Y0180438D02*
X0319957Y0180438D01*
X0319957Y0178039D02*
X0300906Y0178039D01*
X0298508Y0175641D02*
X0319957Y0175641D01*
X0319957Y0173242D02*
X0284335Y0173242D01*
X0284335Y0170844D02*
X0319957Y0170844D01*
X0319957Y0168445D02*
X0284335Y0168445D01*
X0284335Y0166047D02*
X0319957Y0166047D01*
X0319957Y0163648D02*
X0284335Y0163648D01*
X0286261Y0161250D02*
X0319957Y0161250D01*
X0319957Y0158851D02*
X0288659Y0158851D01*
X0290952Y0156453D02*
X0319957Y0156453D01*
X0319957Y0154054D02*
X0291335Y0154054D01*
X0291335Y0151656D02*
X0319957Y0151656D01*
X0319957Y0149257D02*
X0291335Y0149257D01*
X0291335Y0146859D02*
X0291911Y0146859D01*
X0294759Y0146859D02*
X0301911Y0146859D01*
X0302505Y0147105D02*
X0300972Y0146470D01*
X0299798Y0145296D01*
X0299163Y0143763D01*
X0299163Y0142103D01*
X0299798Y0140570D01*
X0300972Y0139397D01*
X0302505Y0138761D01*
X0304164Y0138761D01*
X0305698Y0139397D01*
X0306871Y0140570D01*
X0307506Y0142103D01*
X0307506Y0143763D01*
X0306871Y0145296D01*
X0305698Y0146470D01*
X0304164Y0147105D01*
X0302505Y0147105D01*
X0304759Y0146859D02*
X0319957Y0146859D01*
X0319957Y0144460D02*
X0307217Y0144460D01*
X0307489Y0142062D02*
X0319957Y0142062D01*
X0319957Y0139663D02*
X0305964Y0139663D01*
X0300705Y0139663D02*
X0295964Y0139663D01*
X0297489Y0142062D02*
X0299180Y0142062D01*
X0299452Y0144460D02*
X0297217Y0144460D01*
X0290705Y0139663D02*
X0290307Y0139663D01*
X0287909Y0137265D02*
X0319957Y0137265D01*
X0319957Y0134866D02*
X0251493Y0134866D01*
X0253891Y0132468D02*
X0315970Y0132468D01*
X0314290Y0130069D02*
X0267965Y0130069D01*
X0268506Y0127671D02*
X0314342Y0127671D01*
X0316272Y0125272D02*
X0267935Y0125272D01*
X0267935Y0122874D02*
X0319957Y0122874D01*
X0319957Y0120475D02*
X0266968Y0120475D01*
X0264569Y0118077D02*
X0269707Y0118077D01*
X0269798Y0118296D02*
X0269163Y0116763D01*
X0269163Y0115103D01*
X0269798Y0113570D01*
X0270972Y0112397D01*
X0272505Y0111761D01*
X0274164Y0111761D01*
X0275698Y0112397D01*
X0276871Y0113570D01*
X0277506Y0115103D01*
X0277506Y0116763D01*
X0276871Y0118296D01*
X0275698Y0119470D01*
X0274164Y0120105D01*
X0272505Y0120105D01*
X0270972Y0119470D01*
X0269798Y0118296D01*
X0269163Y0115678D02*
X0244990Y0115678D01*
X0246424Y0118077D02*
X0251100Y0118077D01*
X0248702Y0120475D02*
X0247312Y0120475D01*
X0254335Y0119933D02*
X0246335Y0127933D01*
X0205335Y0127933D01*
X0199335Y0121933D01*
X0199335Y0100933D01*
X0193335Y0094933D01*
X0193335Y0054933D01*
X0188335Y0068933D02*
X0188335Y0097933D01*
X0194335Y0103933D01*
X0194335Y0125933D01*
X0201335Y0132933D01*
X0248335Y0132933D01*
X0255335Y0125933D01*
X0259130Y0127671D02*
X0260163Y0127671D01*
X0260704Y0130069D02*
X0256290Y0130069D01*
X0259506Y0125272D02*
X0260735Y0125272D01*
X0264335Y0122933D02*
X0261335Y0119933D01*
X0254335Y0119933D01*
X0247208Y0113279D02*
X0270089Y0113279D01*
X0266984Y0108482D02*
X0247164Y0108482D01*
X0247735Y0110881D02*
X0288216Y0110881D01*
X0288505Y0110761D02*
X0290164Y0110761D01*
X0291698Y0111397D01*
X0292871Y0112570D01*
X0293506Y0114103D01*
X0293506Y0115763D01*
X0292871Y0117296D01*
X0291698Y0118470D01*
X0290164Y0119105D01*
X0288505Y0119105D01*
X0286972Y0118470D01*
X0285798Y0117296D01*
X0285163Y0115763D01*
X0285163Y0114103D01*
X0285798Y0112570D01*
X0286972Y0111397D01*
X0288505Y0110761D01*
X0290453Y0110881D02*
X0302216Y0110881D01*
X0302505Y0110761D02*
X0304164Y0110761D01*
X0305698Y0111397D01*
X0306871Y0112570D01*
X0307506Y0114103D01*
X0307506Y0115763D01*
X0306871Y0117296D01*
X0305698Y0118470D01*
X0304164Y0119105D01*
X0302505Y0119105D01*
X0300972Y0118470D01*
X0299798Y0117296D01*
X0299163Y0115763D01*
X0299163Y0114103D01*
X0299798Y0112570D01*
X0300972Y0111397D01*
X0302505Y0110761D01*
X0304453Y0110881D02*
X0319957Y0110881D01*
X0319957Y0113279D02*
X0307165Y0113279D01*
X0307506Y0115678D02*
X0319957Y0115678D01*
X0319957Y0118077D02*
X0306091Y0118077D01*
X0300578Y0118077D02*
X0292091Y0118077D01*
X0293506Y0115678D02*
X0299163Y0115678D01*
X0299504Y0113279D02*
X0293165Y0113279D01*
X0286578Y0118077D02*
X0276962Y0118077D01*
X0277506Y0115678D02*
X0285163Y0115678D01*
X0285504Y0113279D02*
X0276581Y0113279D01*
X0273685Y0108482D02*
X0319957Y0108482D01*
X0319957Y0106084D02*
X0274506Y0106084D01*
X0266163Y0106084D02*
X0244739Y0106084D01*
X0247039Y0103685D02*
X0249091Y0103685D01*
X0249091Y0101287D02*
X0247735Y0101287D01*
X0247333Y0098888D02*
X0249091Y0098888D01*
X0249091Y0096490D02*
X0245528Y0096490D01*
X0246813Y0094091D02*
X0249091Y0094091D01*
X0249091Y0091693D02*
X0247735Y0091693D01*
X0247501Y0089294D02*
X0249091Y0089294D01*
X0249091Y0086896D02*
X0245934Y0086896D01*
X0246407Y0084497D02*
X0249091Y0084497D01*
X0249091Y0082099D02*
X0247697Y0082099D01*
X0247669Y0079700D02*
X0249091Y0079700D01*
X0249091Y0077302D02*
X0246340Y0077302D01*
X0246001Y0074903D02*
X0249091Y0074903D01*
X0249091Y0072505D02*
X0247529Y0072505D01*
X0247735Y0070106D02*
X0249091Y0070106D01*
X0249091Y0067708D02*
X0246746Y0067708D01*
X0249091Y0065309D02*
X0223783Y0065309D01*
X0223783Y0062911D02*
X0229638Y0062911D01*
X0229163Y0060512D02*
X0223783Y0060512D01*
X0223783Y0067708D02*
X0231923Y0067708D01*
X0230935Y0070106D02*
X0223783Y0070106D01*
X0225563Y0072505D02*
X0231141Y0072505D01*
X0232668Y0074903D02*
X0227962Y0074903D01*
X0237031Y0062911D02*
X0249091Y0062911D01*
X0249091Y0060512D02*
X0237506Y0060512D01*
X0211039Y0089294D02*
X0196935Y0089294D01*
X0196935Y0086896D02*
X0208641Y0086896D01*
X0206242Y0084497D02*
X0196935Y0084497D01*
X0196935Y0082099D02*
X0203844Y0082099D01*
X0203738Y0081993D02*
X0202613Y0080868D01*
X0202004Y0079398D01*
X0202004Y0078757D01*
X0201164Y0079105D01*
X0199505Y0079105D01*
X0197972Y0078470D01*
X0196935Y0077433D01*
X0196935Y0093442D01*
X0201374Y0097881D01*
X0202387Y0098894D01*
X0202935Y0100217D01*
X0202935Y0111433D01*
X0203972Y0110397D01*
X0205505Y0109761D01*
X0207164Y0109761D01*
X0208698Y0110397D01*
X0209871Y0111570D01*
X0210506Y0113103D01*
X0210506Y0114763D01*
X0209871Y0116296D01*
X0208698Y0117470D01*
X0207164Y0118105D01*
X0205505Y0118105D01*
X0203972Y0117470D01*
X0202935Y0116433D01*
X0202935Y0120442D01*
X0206826Y0124333D01*
X0232681Y0124333D01*
X0232530Y0124182D01*
X0232069Y0123547D01*
X0231713Y0122848D01*
X0231470Y0122101D01*
X0231347Y0121326D01*
X0231347Y0120933D01*
X0231347Y0120541D01*
X0231470Y0119765D01*
X0231713Y0119019D01*
X0232069Y0118319D01*
X0232530Y0117684D01*
X0233086Y0117129D01*
X0233721Y0116667D01*
X0234420Y0116311D01*
X0234861Y0116168D01*
X0233276Y0115511D01*
X0231757Y0113992D01*
X0230935Y0112007D01*
X0230935Y0109859D01*
X0231757Y0107874D01*
X0233276Y0106355D01*
X0234295Y0105933D01*
X0233276Y0105511D01*
X0232698Y0104933D01*
X0227539Y0104933D01*
X0226069Y0104324D01*
X0203738Y0081993D01*
X0202129Y0079700D02*
X0196935Y0079700D01*
X0196935Y0091693D02*
X0213438Y0091693D01*
X0215836Y0094091D02*
X0197584Y0094091D01*
X0199983Y0096490D02*
X0218235Y0096490D01*
X0220633Y0098888D02*
X0202381Y0098888D01*
X0202935Y0101287D02*
X0223032Y0101287D01*
X0225430Y0103685D02*
X0202935Y0103685D01*
X0202935Y0106084D02*
X0233931Y0106084D01*
X0231505Y0108482D02*
X0202935Y0108482D01*
X0202935Y0110881D02*
X0203487Y0110881D01*
X0209182Y0110881D02*
X0230935Y0110881D01*
X0231462Y0113279D02*
X0210506Y0113279D01*
X0210127Y0115678D02*
X0233679Y0115678D01*
X0232245Y0118077D02*
X0207233Y0118077D01*
X0205437Y0118077D02*
X0202935Y0118077D01*
X0202968Y0120475D02*
X0231358Y0120475D01*
X0231347Y0120933D02*
X0239335Y0120933D01*
X0239335Y0120933D01*
X0231347Y0120933D01*
X0231726Y0122874D02*
X0205366Y0122874D01*
X0189335Y0129933D02*
X0189335Y0106415D01*
X0169335Y0086415D01*
X0169335Y0067433D01*
X0158835Y0057933D01*
X0154663Y0058114D02*
X0152318Y0058114D01*
X0154602Y0060512D02*
X0155514Y0060512D01*
X0154602Y0062911D02*
X0158970Y0062911D01*
X0161621Y0065309D02*
X0154602Y0065309D01*
X0154602Y0067708D02*
X0164272Y0067708D01*
X0165735Y0070106D02*
X0154602Y0070106D01*
X0154602Y0072505D02*
X0156863Y0072505D01*
X0156163Y0074903D02*
X0155328Y0074903D01*
X0158539Y0079700D02*
X0165735Y0079700D01*
X0165735Y0077302D02*
X0163866Y0077302D01*
X0164506Y0074903D02*
X0165735Y0074903D01*
X0165735Y0072505D02*
X0163806Y0072505D01*
X0165735Y0082099D02*
X0158539Y0082099D01*
X0158539Y0084497D02*
X0165735Y0084497D01*
X0165735Y0086896D02*
X0158539Y0086896D01*
X0158539Y0089294D02*
X0167123Y0089294D01*
X0169522Y0091693D02*
X0158539Y0091693D01*
X0158539Y0094091D02*
X0171920Y0094091D01*
X0174319Y0096490D02*
X0158539Y0096490D01*
X0158539Y0098888D02*
X0176717Y0098888D01*
X0179116Y0101287D02*
X0158539Y0101287D01*
X0158539Y0103685D02*
X0181514Y0103685D01*
X0183913Y0106084D02*
X0158539Y0106084D01*
X0156762Y0108482D02*
X0185735Y0108482D01*
X0181487Y0110881D02*
X0181182Y0110881D01*
X0175487Y0110881D02*
X0154363Y0110881D01*
X0151965Y0113279D02*
X0174163Y0113279D01*
X0174542Y0115678D02*
X0149566Y0115678D01*
X0147168Y0118077D02*
X0155588Y0118077D01*
X0155798Y0117570D02*
X0156972Y0116397D01*
X0158505Y0115761D01*
X0160164Y0115761D01*
X0161698Y0116397D01*
X0162871Y0117570D01*
X0163506Y0119103D01*
X0163506Y0120763D01*
X0162871Y0122296D01*
X0161698Y0123470D01*
X0160164Y0124105D01*
X0158505Y0124105D01*
X0156972Y0123470D01*
X0155798Y0122296D01*
X0155163Y0120763D01*
X0155163Y0119103D01*
X0155798Y0117570D01*
X0155163Y0120475D02*
X0144769Y0120475D01*
X0142371Y0122874D02*
X0156375Y0122874D01*
X0162294Y0122874D02*
X0175135Y0122874D01*
X0175135Y0125272D02*
X0140823Y0125272D01*
X0140823Y0127671D02*
X0175135Y0127671D01*
X0175135Y0130069D02*
X0140823Y0130069D01*
X0140823Y0132468D02*
X0175135Y0132468D01*
X0175135Y0134866D02*
X0140823Y0134866D01*
X0140823Y0137265D02*
X0175135Y0137265D01*
X0175135Y0139663D02*
X0161964Y0139663D01*
X0161698Y0139397D02*
X0162871Y0140570D01*
X0163506Y0142103D01*
X0163506Y0143763D01*
X0162871Y0145296D01*
X0161698Y0146470D01*
X0160164Y0147105D01*
X0158505Y0147105D01*
X0156972Y0146470D01*
X0155798Y0145296D01*
X0155163Y0143763D01*
X0155163Y0142103D01*
X0155798Y0140570D01*
X0156972Y0139397D01*
X0158505Y0138761D01*
X0160164Y0138761D01*
X0161698Y0139397D01*
X0163489Y0142062D02*
X0175135Y0142062D01*
X0175135Y0144460D02*
X0163217Y0144460D01*
X0160759Y0146859D02*
X0175135Y0146859D01*
X0175135Y0149257D02*
X0140823Y0149257D01*
X0140823Y0146859D02*
X0157911Y0146859D01*
X0155452Y0144460D02*
X0140823Y0144460D01*
X0140823Y0142062D02*
X0155180Y0142062D01*
X0156705Y0139663D02*
X0140823Y0139663D01*
X0140823Y0151656D02*
X0175135Y0151656D01*
X0175135Y0154054D02*
X0140823Y0154054D01*
X0140823Y0156453D02*
X0175135Y0156453D01*
X0175135Y0158851D02*
X0140823Y0158851D01*
X0140823Y0161250D02*
X0158326Y0161250D01*
X0157972Y0161397D02*
X0159505Y0160761D01*
X0161164Y0160761D01*
X0162698Y0161397D01*
X0163871Y0162570D01*
X0164506Y0164103D01*
X0164506Y0165763D01*
X0163871Y0167296D01*
X0162698Y0168470D01*
X0161164Y0169105D01*
X0159505Y0169105D01*
X0157972Y0168470D01*
X0156798Y0167296D01*
X0156163Y0165763D01*
X0156163Y0164103D01*
X0156798Y0162570D01*
X0157972Y0161397D01*
X0156351Y0163648D02*
X0140823Y0163648D01*
X0140823Y0166047D02*
X0156281Y0166047D01*
X0157947Y0168445D02*
X0140823Y0168445D01*
X0140823Y0170844D02*
X0174685Y0170844D01*
X0175135Y0168445D02*
X0162722Y0168445D01*
X0164389Y0166047D02*
X0175135Y0166047D01*
X0175135Y0163648D02*
X0164318Y0163648D01*
X0162343Y0161250D02*
X0175135Y0161250D01*
X0181535Y0161250D02*
X0184752Y0161250D01*
X0184972Y0161470D02*
X0183798Y0160296D01*
X0183163Y0158763D01*
X0183163Y0157103D01*
X0183798Y0155570D01*
X0184972Y0154397D01*
X0186505Y0153761D01*
X0188164Y0153761D01*
X0189698Y0154397D01*
X0190871Y0155570D01*
X0191506Y0157103D01*
X0191506Y0158763D01*
X0190871Y0160296D01*
X0189698Y0161470D01*
X0188164Y0162105D01*
X0186505Y0162105D01*
X0184972Y0161470D01*
X0183200Y0158851D02*
X0181535Y0158851D01*
X0181535Y0156453D02*
X0183432Y0156453D01*
X0181535Y0154054D02*
X0185798Y0154054D01*
X0188871Y0154054D02*
X0261213Y0154054D01*
X0263612Y0156453D02*
X0207754Y0156453D01*
X0207698Y0156397D02*
X0208871Y0157570D01*
X0209506Y0159103D01*
X0209506Y0160763D01*
X0208871Y0162296D01*
X0207698Y0163470D01*
X0206164Y0164105D01*
X0204505Y0164105D01*
X0202972Y0163470D01*
X0201798Y0162296D01*
X0201163Y0160763D01*
X0201163Y0159103D01*
X0201798Y0157570D01*
X0202972Y0156397D01*
X0204505Y0155761D01*
X0206164Y0155761D01*
X0207698Y0156397D01*
X0209402Y0158851D02*
X0264335Y0158851D01*
X0264335Y0161250D02*
X0209305Y0161250D01*
X0207720Y0163648D02*
X0207267Y0163648D01*
X0206186Y0166047D02*
X0181535Y0166047D01*
X0181535Y0168445D02*
X0206446Y0168445D01*
X0203403Y0163648D02*
X0181535Y0163648D01*
X0189918Y0161250D02*
X0201365Y0161250D01*
X0201267Y0158851D02*
X0191470Y0158851D01*
X0191237Y0156453D02*
X0202915Y0156453D01*
X0197815Y0151656D02*
X0181535Y0151656D01*
X0181535Y0149257D02*
X0195416Y0149257D01*
X0193018Y0146859D02*
X0181535Y0146859D01*
X0181535Y0144460D02*
X0190619Y0144460D01*
X0188221Y0142062D02*
X0181535Y0142062D01*
X0181535Y0139663D02*
X0185822Y0139663D01*
X0183424Y0137265D02*
X0181535Y0137265D01*
X0189335Y0129933D02*
X0203335Y0143933D01*
X0241335Y0143933D01*
X0264335Y0127933D02*
X0264335Y0122933D01*
X0264335Y0163648D02*
X0212949Y0163648D01*
X0214483Y0166047D02*
X0264335Y0166047D01*
X0264335Y0168445D02*
X0214224Y0168445D01*
X0186592Y0178039D02*
X0183494Y0178039D01*
X0177175Y0178039D02*
X0140823Y0178039D01*
X0140823Y0175641D02*
X0175143Y0175641D01*
X0174163Y0173242D02*
X0140823Y0173242D01*
X0140823Y0180438D02*
X0175347Y0180438D01*
X0175347Y0182836D02*
X0140823Y0182836D01*
X0140823Y0185235D02*
X0156362Y0185235D01*
X0155972Y0185397D02*
X0157505Y0184761D01*
X0159164Y0184761D01*
X0160698Y0185397D01*
X0161871Y0186570D01*
X0162506Y0188103D01*
X0162506Y0189763D01*
X0161871Y0191296D01*
X0160698Y0192470D01*
X0159164Y0193105D01*
X0157505Y0193105D01*
X0155972Y0192470D01*
X0154798Y0191296D01*
X0154163Y0189763D01*
X0154163Y0188103D01*
X0154798Y0186570D01*
X0155972Y0185397D01*
X0154358Y0187633D02*
X0140823Y0187633D01*
X0140823Y0190032D02*
X0154274Y0190032D01*
X0155932Y0192430D02*
X0140823Y0192430D01*
X0140823Y0194829D02*
X0176177Y0194829D01*
X0175347Y0192430D02*
X0160737Y0192430D01*
X0162395Y0190032D02*
X0175347Y0190032D01*
X0177581Y0187633D02*
X0162312Y0187633D01*
X0160307Y0185235D02*
X0176583Y0185235D01*
X0183088Y0187633D02*
X0186998Y0187633D01*
X0186000Y0185235D02*
X0184086Y0185235D01*
X0244078Y0178039D02*
X0246592Y0178039D01*
X0264322Y0178039D02*
X0264835Y0178039D01*
X0284335Y0178039D02*
X0287763Y0178039D01*
X0286935Y0180438D02*
X0284335Y0180438D01*
X0284335Y0182836D02*
X0286935Y0182836D01*
X0287171Y0185235D02*
X0284335Y0185235D01*
X0284335Y0187633D02*
X0289570Y0187633D01*
X0292149Y0194829D02*
X0284335Y0194829D01*
X0284335Y0197227D02*
X0288575Y0197227D01*
X0287281Y0199626D02*
X0282884Y0199626D01*
X0280486Y0202024D02*
X0286935Y0202024D01*
X0287356Y0204423D02*
X0278087Y0204423D01*
X0276482Y0206821D02*
X0288758Y0206821D01*
X0295832Y0218933D02*
X0296335Y0219436D01*
X0292760Y0233205D02*
X0278849Y0233205D01*
X0268960Y0228408D02*
X0268335Y0228408D01*
X0270335Y0214017D02*
X0323970Y0214017D01*
X0325862Y0216415D02*
X0319474Y0216415D01*
X0321872Y0218814D02*
X0325862Y0218814D01*
X0325862Y0221212D02*
X0324271Y0221212D01*
X0321571Y0211618D02*
X0270335Y0211618D01*
X0264335Y0206821D02*
X0254597Y0206821D01*
X0256811Y0204423D02*
X0264335Y0204423D01*
X0262311Y0202024D02*
X0259025Y0202024D01*
X0284335Y0175641D02*
X0290162Y0175641D01*
X0175135Y0120475D02*
X0163506Y0120475D01*
X0163081Y0118077D02*
X0175135Y0118077D01*
X0188335Y0068933D02*
X0172335Y0052933D01*
X0157508Y0053317D02*
X0151397Y0053317D01*
X0151086Y0053317D02*
X0150686Y0053317D01*
X0150375Y0053317D02*
X0147521Y0053317D01*
X0145988Y0050918D02*
X0145123Y0050918D01*
X0144841Y0048520D02*
X0144760Y0048520D01*
X0150686Y0048520D02*
X0151086Y0048520D01*
X0151086Y0050918D02*
X0150686Y0050918D01*
X0150686Y0046121D02*
X0151086Y0046121D01*
X0151086Y0043723D02*
X0150686Y0043723D01*
X0151086Y0042733D02*
X0157073Y0042733D01*
X0157073Y0038246D01*
X0156921Y0037284D01*
X0156620Y0036358D01*
X0156178Y0035490D01*
X0155605Y0034702D01*
X0154917Y0034014D01*
X0154129Y0033441D01*
X0153261Y0032999D01*
X0152335Y0032698D01*
X0151373Y0032546D01*
X0151086Y0032546D01*
X0151086Y0042733D01*
X0151086Y0041324D02*
X0150686Y0041324D01*
X0150686Y0038926D02*
X0151086Y0038926D01*
X0151086Y0036527D02*
X0150686Y0036527D01*
X0150686Y0034129D02*
X0151086Y0034129D01*
X0155032Y0034129D02*
X0157508Y0034129D01*
X0157508Y0036527D02*
X0156675Y0036527D01*
X0157073Y0038926D02*
X0157508Y0038926D01*
X0157508Y0041324D02*
X0157073Y0041324D01*
X0157073Y0043723D02*
X0157508Y0043723D01*
X0157508Y0046121D02*
X0157073Y0046121D01*
X0156931Y0048520D02*
X0157508Y0048520D01*
X0157508Y0050918D02*
X0155784Y0050918D01*
X0155238Y0055715D02*
X0149920Y0055715D01*
X0145097Y0036527D02*
X0144760Y0036527D01*
X0144760Y0034129D02*
X0146740Y0034129D01*
X0144760Y0031730D02*
X0157508Y0031730D01*
X0156767Y0297965D02*
X0154420Y0297965D01*
X0154236Y0300363D02*
X0156767Y0300363D01*
X0156767Y0302762D02*
X0152645Y0302762D01*
X0154128Y0305160D02*
X0157473Y0305160D01*
X0156281Y0307559D02*
X0162772Y0307559D01*
X0162772Y0309957D02*
X0156426Y0309957D01*
X0154811Y0312356D02*
X0162772Y0312356D01*
X0166372Y0318970D02*
X0172335Y0324933D01*
X0166372Y0318970D02*
X0166372Y0298933D01*
X0137335Y0312356D02*
X0136197Y0312356D01*
X0136506Y0314754D02*
X0137335Y0314754D01*
X0233463Y0405898D02*
X0237349Y0405898D01*
X0254108Y0405898D02*
X0257034Y0405898D01*
X0351683Y0357928D02*
X0375077Y0357928D01*
X0377592Y0357928D02*
X0405163Y0357928D01*
X0405163Y0357103D02*
X0405798Y0355570D01*
X0405935Y0355433D01*
X0405798Y0355296D01*
X0405163Y0353763D01*
X0405163Y0352103D01*
X0405798Y0350570D01*
X0405935Y0350433D01*
X0405798Y0350296D01*
X0405163Y0348763D01*
X0405163Y0347103D01*
X0405798Y0345570D01*
X0406972Y0344397D01*
X0408505Y0343761D01*
X0410164Y0343761D01*
X0411698Y0344397D01*
X0412871Y0345570D01*
X0413506Y0347103D01*
X0413506Y0348763D01*
X0412871Y0350296D01*
X0412734Y0350433D01*
X0412871Y0350570D01*
X0413506Y0352103D01*
X0413506Y0353763D01*
X0412871Y0355296D01*
X0412734Y0355433D01*
X0412871Y0355570D01*
X0413506Y0357103D01*
X0413506Y0358763D01*
X0412871Y0360296D01*
X0412734Y0360433D01*
X0412871Y0360570D01*
X0413506Y0362103D01*
X0413506Y0363763D01*
X0412871Y0365296D01*
X0411698Y0366470D01*
X0410164Y0367105D01*
X0408505Y0367105D01*
X0406972Y0366470D01*
X0405798Y0365296D01*
X0405163Y0363763D01*
X0405163Y0362103D01*
X0405798Y0360570D01*
X0405935Y0360433D01*
X0405798Y0360296D01*
X0405163Y0358763D01*
X0405163Y0357103D01*
X0405839Y0355529D02*
X0380189Y0355529D01*
X0380506Y0353131D02*
X0405163Y0353131D01*
X0405731Y0350732D02*
X0380105Y0350732D01*
X0380506Y0348334D02*
X0405163Y0348334D01*
X0405647Y0345935D02*
X0390021Y0345935D01*
X0390506Y0343537D02*
X0431335Y0343537D01*
X0431335Y0341138D02*
X0392008Y0341138D01*
X0393987Y0338740D02*
X0430898Y0338740D01*
X0428500Y0336341D02*
X0394535Y0336341D01*
X0413022Y0345935D02*
X0430233Y0345935D01*
X0430399Y0348334D02*
X0413506Y0348334D01*
X0412938Y0350732D02*
X0432605Y0350732D01*
X0436064Y0350732D02*
X0437635Y0350732D01*
X0437635Y0353131D02*
X0413506Y0353131D01*
X0412830Y0355529D02*
X0437635Y0355529D01*
X0437635Y0357928D02*
X0413506Y0357928D01*
X0412841Y0360326D02*
X0437635Y0360326D01*
X0437635Y0362725D02*
X0413506Y0362725D01*
X0412943Y0365123D02*
X0437635Y0365123D01*
X0437635Y0367522D02*
X0380058Y0367522D01*
X0379871Y0367070D02*
X0380506Y0368603D01*
X0380506Y0370263D01*
X0379871Y0371796D01*
X0379484Y0372183D01*
X0379871Y0372570D01*
X0380506Y0374103D01*
X0380506Y0375763D01*
X0379871Y0377296D01*
X0378698Y0378470D01*
X0377164Y0379105D01*
X0375505Y0379105D01*
X0373972Y0378470D01*
X0372798Y0377296D01*
X0372163Y0375763D01*
X0372163Y0374103D01*
X0372798Y0372570D01*
X0373185Y0372183D01*
X0372798Y0371796D01*
X0372163Y0370263D01*
X0372163Y0368603D01*
X0372798Y0367070D01*
X0373972Y0365897D01*
X0375505Y0365261D01*
X0377164Y0365261D01*
X0378698Y0365897D01*
X0379871Y0367070D01*
X0380506Y0369920D02*
X0437635Y0369920D01*
X0437635Y0372319D02*
X0379620Y0372319D01*
X0380506Y0374717D02*
X0437635Y0374717D01*
X0437635Y0377116D02*
X0379946Y0377116D01*
X0375557Y0381913D02*
X0437635Y0381913D01*
X0437635Y0384311D02*
X0377955Y0384311D01*
X0379650Y0386710D02*
X0421544Y0386710D01*
X0416644Y0388149D02*
X0416644Y0388149D01*
X0415150Y0389108D02*
X0379650Y0389108D01*
X0379650Y0391507D02*
X0411782Y0391507D01*
X0412238Y0390980D02*
X0412238Y0390980D01*
X0409703Y0393905D02*
X0379650Y0393905D01*
X0379650Y0396304D02*
X0408185Y0396304D01*
X0408808Y0394938D02*
X0408808Y0394938D01*
X0407089Y0398702D02*
X0379650Y0398702D01*
X0379650Y0401101D02*
X0406432Y0401101D01*
X0427031Y0386710D02*
X0437635Y0386710D01*
X0437635Y0389108D02*
X0433424Y0389108D01*
X0431931Y0388149D02*
X0431931Y0388149D01*
X0436337Y0390980D02*
X0436337Y0390980D01*
X0436337Y0390980D01*
X0436793Y0391507D02*
X0437635Y0391507D01*
X0437635Y0379514D02*
X0373158Y0379514D01*
X0372723Y0377116D02*
X0370760Y0377116D01*
X0372163Y0374717D02*
X0368473Y0374717D01*
X0366074Y0372319D02*
X0373049Y0372319D01*
X0372163Y0369920D02*
X0363676Y0369920D01*
X0361277Y0367522D02*
X0372611Y0367522D01*
X0358879Y0365123D02*
X0405726Y0365123D01*
X0405163Y0362725D02*
X0356480Y0362725D01*
X0354082Y0360326D02*
X0405828Y0360326D01*
X0363335Y0384311D02*
X0358506Y0384311D01*
X0358114Y0386710D02*
X0363335Y0386710D01*
X0361335Y0389108D02*
X0361335Y0389108D01*
X0361335Y0391507D02*
X0361335Y0391507D01*
X0361335Y0393905D02*
X0361335Y0393905D01*
X0361335Y0396304D02*
X0361335Y0396304D01*
X0361335Y0398702D02*
X0361335Y0398702D01*
X0361335Y0401101D02*
X0361335Y0401101D01*
X0362072Y0381913D02*
X0357214Y0381913D01*
D30*
X0323335Y0337933D02*
X0318335Y0332933D01*
X0318335Y0313933D01*
X0295335Y0292933D02*
X0295335Y0287933D01*
X0295335Y0292933D02*
X0286335Y0301933D01*
X0281335Y0301933D01*
X0276335Y0306933D01*
X0276335Y0319933D01*
X0183335Y0240933D02*
X0158559Y0216157D01*
X0110783Y0216047D01*
X0108248Y0153933D02*
X0102335Y0153933D01*
X0108248Y0153933D02*
X0115232Y0146949D01*
X0115232Y0137035D01*
X0115335Y0136933D01*
X0178335Y0113933D02*
X0178335Y0172933D01*
D31*
X0181335Y0296933D02*
X0182835Y0298933D01*
X0182835Y0312933D01*
X0187335Y0316933D01*
X0192335Y0316933D01*
X0333736Y0210004D02*
X0327831Y0202130D01*
X0327831Y0119453D01*
X0347516Y0119453D01*
X0347516Y0130682D01*
X0346708Y0131624D01*
X0346980Y0130788D01*
X0347122Y0129889D01*
X0347122Y0129433D01*
X0338335Y0129433D01*
X0338335Y0129433D01*
X0347122Y0129433D01*
X0347122Y0128978D01*
X0346980Y0128078D01*
X0346698Y0127211D01*
X0346284Y0126400D01*
X0345749Y0125663D01*
X0345105Y0125019D01*
X0344368Y0124483D01*
X0343556Y0124070D01*
X0342690Y0123788D01*
X0341790Y0123646D01*
X0338335Y0123646D01*
X0338335Y0129433D01*
X0338335Y0129433D01*
X0338335Y0123646D01*
X0334879Y0123646D01*
X0333979Y0123788D01*
X0333113Y0124070D01*
X0332301Y0124483D01*
X0331564Y0125019D01*
X0330920Y0125663D01*
X0330385Y0126400D01*
X0329971Y0127211D01*
X0329690Y0128078D01*
X0329547Y0128978D01*
X0329547Y0129433D01*
X0338335Y0129433D01*
X0338335Y0129433D01*
X0329547Y0129433D01*
X0329547Y0129889D01*
X0329690Y0130788D01*
X0329971Y0131655D01*
X0330385Y0132466D01*
X0330920Y0133203D01*
X0331564Y0133847D01*
X0332301Y0134383D01*
X0333113Y0134796D01*
X0333979Y0135078D01*
X0334755Y0135201D01*
X0329799Y0135201D01*
X0329799Y0140635D01*
X0329739Y0140694D01*
X0328735Y0143120D01*
X0328735Y0145746D01*
X0329739Y0148172D01*
X0329799Y0148231D01*
X0329799Y0155635D01*
X0329739Y0155694D01*
X0328735Y0158120D01*
X0328735Y0160746D01*
X0329739Y0163172D01*
X0329799Y0163231D01*
X0329799Y0170635D01*
X0329739Y0170694D01*
X0328735Y0173120D01*
X0328735Y0175746D01*
X0329739Y0178172D01*
X0329799Y0178231D01*
X0329799Y0182445D01*
X0332235Y0182445D01*
X0332235Y0192977D01*
X0331631Y0194061D01*
X0331576Y0194084D01*
X0329635Y0196025D01*
X0328585Y0198561D01*
X0328585Y0201306D01*
X0329635Y0203842D01*
X0331576Y0205783D01*
X0334112Y0206833D01*
X0336857Y0206833D01*
X0339393Y0205783D01*
X0340984Y0204192D01*
X0341369Y0204576D01*
X0342144Y0205139D01*
X0342998Y0205574D01*
X0343909Y0205871D01*
X0344856Y0206020D01*
X0345335Y0206020D01*
X0345335Y0199933D01*
X0345335Y0193846D01*
X0345814Y0193846D01*
X0346760Y0193996D01*
X0347671Y0194292D01*
X0348525Y0194727D01*
X0349300Y0195290D01*
X0349685Y0195675D01*
X0351276Y0194084D01*
X0353812Y0193033D01*
X0356557Y0193033D01*
X0358489Y0193833D01*
X0391475Y0193833D01*
X0391739Y0193194D01*
X0393596Y0191338D01*
X0396022Y0190333D01*
X0398647Y0190333D01*
X0401073Y0191338D01*
X0402930Y0193194D01*
X0403935Y0195620D01*
X0403935Y0208246D01*
X0402930Y0210672D01*
X0401073Y0212528D01*
X0398647Y0213533D01*
X0396022Y0213533D01*
X0393596Y0212528D01*
X0391739Y0210672D01*
X0390735Y0208246D01*
X0390735Y0206033D01*
X0358489Y0206033D01*
X0356557Y0206833D01*
X0353812Y0206833D01*
X0351276Y0205783D01*
X0349685Y0204192D01*
X0349300Y0204576D01*
X0348525Y0205139D01*
X0347671Y0205574D01*
X0346760Y0205871D01*
X0345814Y0206020D01*
X0345335Y0206020D01*
X0345335Y0199933D01*
X0345335Y0199933D01*
X0345335Y0199933D01*
X0345335Y0193846D01*
X0344856Y0193846D01*
X0344489Y0193904D01*
X0344435Y0193713D01*
X0344435Y0182445D01*
X0347516Y0182445D01*
X0353421Y0176539D01*
X0381735Y0176539D01*
X0381735Y0179156D01*
X0381662Y0179186D01*
X0380087Y0180761D01*
X0379235Y0182819D01*
X0379235Y0185047D01*
X0380087Y0187105D01*
X0381662Y0188681D01*
X0383721Y0189533D01*
X0389949Y0189533D01*
X0392007Y0188681D01*
X0393582Y0187105D01*
X0394435Y0185047D01*
X0394435Y0182819D01*
X0393582Y0180761D01*
X0392935Y0180113D01*
X0392935Y0176539D01*
X0436435Y0176539D01*
X0436435Y0326146D01*
X0394922Y0326146D01*
X0394922Y0325954D01*
X0394772Y0325008D01*
X0394476Y0324096D01*
X0394041Y0323243D01*
X0393478Y0322467D01*
X0393093Y0322083D01*
X0394684Y0320492D01*
X0395735Y0317956D01*
X0395735Y0315211D01*
X0394684Y0312675D01*
X0392743Y0310734D01*
X0390207Y0309683D01*
X0387462Y0309683D01*
X0384926Y0310734D01*
X0382985Y0312675D01*
X0381935Y0315211D01*
X0381935Y0317956D01*
X0382985Y0320492D01*
X0384576Y0322083D01*
X0384191Y0322467D01*
X0383628Y0323243D01*
X0383193Y0324096D01*
X0382897Y0325008D01*
X0382747Y0325954D01*
X0382747Y0326146D01*
X0333736Y0326146D01*
X0333736Y0210004D01*
X0333736Y0210865D02*
X0391932Y0210865D01*
X0390735Y0206866D02*
X0331383Y0206866D01*
X0329232Y0202868D02*
X0328384Y0202868D01*
X0328585Y0198869D02*
X0327831Y0198869D01*
X0327831Y0194871D02*
X0330789Y0194871D01*
X0332235Y0190872D02*
X0327831Y0190872D01*
X0327831Y0186874D02*
X0332235Y0186874D01*
X0332235Y0182875D02*
X0327831Y0182875D01*
X0327831Y0178877D02*
X0329799Y0178877D01*
X0328735Y0174878D02*
X0327831Y0174878D01*
X0327831Y0170879D02*
X0329663Y0170879D01*
X0329799Y0166881D02*
X0327831Y0166881D01*
X0327831Y0162882D02*
X0329620Y0162882D01*
X0328735Y0158884D02*
X0327831Y0158884D01*
X0327831Y0154885D02*
X0329799Y0154885D01*
X0329799Y0150887D02*
X0327831Y0150887D01*
X0327831Y0146888D02*
X0329208Y0146888D01*
X0328830Y0142890D02*
X0327831Y0142890D01*
X0327831Y0138891D02*
X0329799Y0138891D01*
X0327831Y0134893D02*
X0333410Y0134893D01*
X0329724Y0130894D02*
X0327831Y0130894D01*
X0327831Y0126896D02*
X0330132Y0126896D01*
X0327831Y0122897D02*
X0347516Y0122897D01*
X0347516Y0126896D02*
X0346537Y0126896D01*
X0346945Y0130894D02*
X0347334Y0130894D01*
X0338335Y0126896D02*
X0338335Y0126896D01*
X0387335Y0159933D02*
X0387335Y0183933D01*
X0384835Y0183933D01*
X0388835Y0183933D01*
X0393678Y0186874D02*
X0436435Y0186874D01*
X0436435Y0190872D02*
X0399949Y0190872D01*
X0394721Y0190872D02*
X0344435Y0190872D01*
X0344435Y0186874D02*
X0379991Y0186874D01*
X0379235Y0182875D02*
X0344435Y0182875D01*
X0351084Y0178877D02*
X0381735Y0178877D01*
X0392935Y0178877D02*
X0436435Y0178877D01*
X0436435Y0182875D02*
X0394435Y0182875D01*
X0403624Y0194871D02*
X0436435Y0194871D01*
X0436435Y0198869D02*
X0403935Y0198869D01*
X0403935Y0202868D02*
X0436435Y0202868D01*
X0436435Y0206866D02*
X0403935Y0206866D01*
X0402737Y0210865D02*
X0436435Y0210865D01*
X0436435Y0214863D02*
X0333736Y0214863D01*
X0333736Y0218862D02*
X0436435Y0218862D01*
X0436435Y0222860D02*
X0333736Y0222860D01*
X0333736Y0226859D02*
X0436435Y0226859D01*
X0436435Y0230857D02*
X0333736Y0230857D01*
X0333736Y0234856D02*
X0436435Y0234856D01*
X0436435Y0238854D02*
X0333736Y0238854D01*
X0333736Y0242853D02*
X0436435Y0242853D01*
X0436435Y0246851D02*
X0333736Y0246851D01*
X0333736Y0250850D02*
X0436435Y0250850D01*
X0436435Y0254848D02*
X0333736Y0254848D01*
X0333736Y0258847D02*
X0436435Y0258847D01*
X0436435Y0262845D02*
X0333736Y0262845D01*
X0333736Y0266844D02*
X0436435Y0266844D01*
X0436435Y0270842D02*
X0333736Y0270842D01*
X0333736Y0274841D02*
X0436435Y0274841D01*
X0436435Y0278839D02*
X0333736Y0278839D01*
X0333736Y0282838D02*
X0436435Y0282838D01*
X0436435Y0286836D02*
X0333736Y0286836D01*
X0333736Y0290835D02*
X0436435Y0290835D01*
X0436435Y0294833D02*
X0333736Y0294833D01*
X0333736Y0298832D02*
X0436435Y0298832D01*
X0436435Y0302830D02*
X0333736Y0302830D01*
X0333736Y0306829D02*
X0436435Y0306829D01*
X0436435Y0310827D02*
X0392837Y0310827D01*
X0395575Y0314826D02*
X0436435Y0314826D01*
X0436435Y0318824D02*
X0395375Y0318824D01*
X0393736Y0322823D02*
X0436435Y0322823D01*
X0383933Y0322823D02*
X0333736Y0322823D01*
X0333736Y0318824D02*
X0382295Y0318824D01*
X0382094Y0314826D02*
X0333736Y0314826D01*
X0333736Y0310827D02*
X0384832Y0310827D01*
X0418382Y0210004D02*
X0418382Y0198933D01*
X0416272Y0198933D01*
X0416272Y0204437D01*
X0416272Y0198933D02*
X0416272Y0116091D01*
X0416335Y0113965D01*
X0428335Y0101965D01*
X0428335Y0077776D01*
X0428335Y0067933D02*
X0428376Y0067933D01*
X0418293Y0058912D01*
X0408356Y0058912D01*
X0403335Y0058933D01*
X0403335Y0143933D01*
X0387335Y0159933D01*
X0350489Y0194871D02*
X0348723Y0194871D01*
X0345335Y0194871D02*
X0345335Y0194871D01*
X0345335Y0198869D02*
X0345335Y0198869D01*
X0345335Y0202868D02*
X0345335Y0202868D01*
D32*
X0322335Y0224933D02*
X0316335Y0218933D01*
X0295832Y0218933D01*
X0285335Y0218933D01*
X0279335Y0224933D01*
X0296335Y0219436D02*
X0296335Y0230933D01*
X0322335Y0228933D02*
X0322335Y0224933D01*
X0239335Y0100933D02*
X0228335Y0100933D01*
X0206004Y0078602D01*
X0206004Y0042933D01*
X0219783Y0042933D02*
X0219783Y0072382D01*
X0228335Y0080933D01*
X0239335Y0080933D01*
X0234335Y0055933D02*
X0372335Y0055933D01*
X0377335Y0058933D01*
X0403335Y0058933D01*
X0234335Y0055933D02*
X0229335Y0052933D01*
D33*
X0349335Y0137933D02*
X0349335Y0167310D01*
X0342212Y0174433D01*
X0338335Y0174433D01*
X0338335Y0194563D01*
X0335815Y0199083D01*
X0335485Y0199933D01*
X0355185Y0199933D02*
X0397335Y0199933D01*
X0397335Y0196933D01*
X0349335Y0137933D02*
X0355335Y0130933D01*
X0360335Y0130933D01*
D34*
X0070335Y0225933D02*
X0064335Y0225933D01*
X0064335Y0231933D01*
X0070335Y0231933D01*
X0070335Y0225933D01*
X0070335Y0231933D02*
X0070335Y0237933D01*
X0064335Y0237933D01*
X0064335Y0243933D01*
X0070335Y0243933D01*
X0070335Y0237933D01*
X0070335Y0243933D02*
X0070335Y0249933D01*
X0064335Y0249933D01*
X0064335Y0243933D01*
X0064335Y0237933D02*
X0064335Y0231933D01*
D35*
X0397335Y0206933D03*
X0397335Y0196933D03*
D36*
X0388835Y0183933D03*
M02*
