%
M48
M72
T01C0.01378
T02C0.01575
T03C0.02362
T04C0.03150
T05C0.03543
T06C0.03937
T07C0.04000
T08C0.05118
T09C0.05600
T10C0.06299
T11C0.12598
T12C0.12992
%
T01
X388835Y183933
T02
X384835Y183933
X388854Y192287
X388854Y210004
X382949Y210004
X377043Y210004
X371138Y210004
X365232Y210004
X359327Y213941
X355390Y217878
X351453Y221815
X341610Y210004
X335705Y210004
X329799Y192287
X345547Y192287
X351453Y192287
X357358Y192287
X357358Y186382
X357358Y180476
X406571Y210004
X412476Y210004
X418382Y210004
X424287Y210004
X430193Y210004
X436098Y211972
X436098Y217878
X436098Y223783
X436098Y229689
X436098Y235594
X436098Y241500
X436098Y247406
X436098Y253311
X436098Y259217
X436098Y265122
X436098Y271028
X436098Y276933
X436098Y282839
X436098Y288744
X436098Y294650
X436098Y300555
X430193Y300555
X430193Y294650
X424287Y294650
X424287Y300555
X424287Y288744
X418382Y288744
X412476Y288744
X406571Y288744
X400665Y288744
X394760Y288744
X388854Y288744
X394760Y310398
X394760Y322209
X380980Y320240
X375075Y320240
X369169Y320240
X375075Y314335
X380980Y314335
X399835Y339433
X409335Y347933
X409335Y352933
X409335Y357933
X409335Y362933
X420335Y343933
X420335Y336933
X434335Y346933
X414445Y312366
X430193Y288744
X430193Y257248
X424287Y257248
X418382Y257248
X412476Y257248
X406571Y257248
X400665Y257248
X394760Y257248
X388854Y257248
X382949Y257248
X377043Y257248
X377043Y263154
X361295Y255280
X357358Y259217
X361295Y249374
X361295Y243469
X363264Y233626
X369169Y233626
X375075Y233626
X390823Y233626
X296335Y230933
X291335Y242933
X295335Y247933
X299335Y259933
X291335Y260933
X291335Y265933
X295335Y276933
X295335Y281933
X290335Y282933
X290335Y287933
X295335Y287933
X287335Y294933
X282835Y297433
X276335Y292933
X279835Y289933
X275335Y283933
X268335Y288933
X271835Y291933
X264835Y292933
X257835Y290933
X259335Y285933
X254335Y286933
X244335Y280933
X236335Y277933
X231335Y275933
X237335Y268933
X233335Y264933
X230335Y257933
X236335Y252933
X244335Y252933
X242335Y258305
X248335Y257933
X245335Y267933
X242335Y271933
X251335Y268933
X252335Y273933
X259335Y274933
X267835Y270933
X272535Y269833
X274835Y273933
X279335Y272933
X278335Y263933
X277335Y256933
X273335Y254433
X277335Y251933
X265335Y244933
X260335Y244933
X255335Y244933
X263335Y253933
X257335Y264933
X234335Y290933
X227335Y298933
X221335Y304933
X229335Y307933
X229335Y314933
X242335Y312933
X223335Y329933
X230335Y334933
X219335Y339933
X235335Y354933
X239335Y358933
X234335Y364933
X238335Y368933
X237335Y384933
X238335Y393933
X226335Y392933
X220335Y385933
X210335Y379933
X207335Y358933
X216335Y358933
X238335Y349933
X255335Y341933
X262335Y352933
X268835Y353933
X273335Y363933
X277335Y366933
X269335Y366933
X259335Y362933
X283335Y353933
X294335Y361933
X288335Y366933
X304335Y366933
X298335Y353933
X321335Y351933
X322335Y346933
X323335Y337933
X297335Y315933
X293335Y312933
X293335Y306933
X299335Y305933
X283335Y305933
X273335Y303933
X272335Y308933
X276335Y319933
X219335Y294933
X216335Y282933
X211335Y277933
X206335Y262933
X200335Y256433
X199335Y247933
X190335Y259933
X187335Y267933
X176335Y265933
X172335Y270933
X175335Y274933
X168335Y266933
X157335Y269933
X139335Y262933
X137335Y254933
X146335Y251933
X155335Y248933
X163335Y247933
X169335Y251933
X183335Y248933
X183335Y240933
X186335Y223933
X185335Y199933
X172319Y198193
X158335Y188933
X142791Y190319
X136886Y204098
X130980Y204098
X125075Y204098
X119169Y204098
X113264Y204098
X107358Y204098
X101453Y204098
X95547Y204098
X89642Y204098
X83736Y204098
X77831Y204098
X93579Y186382
X87673Y184413
X87673Y178508
X91335Y171933
X103421Y166697
X109327Y166697
X114335Y162933
X102335Y153933
X102335Y147933
X102421Y141638
X102421Y136547
X107327Y136642
X115335Y136933
X103421Y125358
X101453Y119453
X102921Y109142
X102835Y97433
X102921Y88957
X86921Y89457
X85835Y102933
X82335Y107933
X83736Y117984
X83736Y125358
X79335Y138933
X79335Y144933
X79335Y154933
X69957Y158823
X50272Y156854
X50272Y150949
X50272Y145043
X50272Y139138
X50272Y123390
X50272Y113547
X50272Y99768
X50272Y87957
X50272Y76146
X50272Y58429
X73894Y58429
X79799Y50555
X79799Y38744
X81768Y30870
X75862Y30870
X87673Y30870
X93579Y30870
X99484Y30870
X105390Y30870
X111295Y30870
X117201Y30870
X125075Y30870
X130980Y30870
X146728Y30870
X154602Y30870
X172335Y52933
X158835Y57933
X152634Y56461
X144823Y63398
X142335Y71933
X146260Y79114
X138835Y89433
X139335Y97433
X147638Y102425
X140335Y108933
X132949Y115516
X150102Y116484
X154508Y112047
X159413Y107547
X159335Y119933
X178335Y113933
X184335Y113933
X206335Y113933
X233335Y137933
X241335Y143933
X249335Y144933
X255335Y125933
X264335Y127933
X273335Y115933
X261508Y108831
X270335Y105933
X255508Y108831
X250508Y108831
X283335Y142933
X283335Y151933
X273335Y151933
X293335Y142933
X303335Y142933
X318335Y128933
X303335Y114933
X289335Y114933
X327335Y87933
X370335Y87933
X263335Y173933
X263335Y179433
X272335Y193933
X272335Y199933
X272335Y205933
X263335Y197933
X246335Y205933
X224335Y204933
X214335Y204933
X218335Y226933
X226335Y230933
X230535Y229033
X222535Y234933
X223335Y239933
X240335Y226933
X254335Y228933
X260335Y228933
X272335Y230933
X279335Y224933
X267335Y216933
X292335Y211433
X296335Y211433
X210335Y166933
X205335Y159933
X187335Y157933
X178335Y172933
X160335Y164933
X159335Y142933
X116732Y107142
X121335Y97433
X121138Y89020
X119335Y71933
X127335Y71933
X111335Y71933
X97335Y71933
X66835Y97433
X136386Y54961
X160335Y74933
X180335Y74933
X200335Y74933
X193335Y54933
X229335Y52933
X233335Y60933
X160508Y95831
X101453Y186382
X141335Y224933
X141335Y232933
X151335Y222933
X156835Y223433
X133335Y286933
X118335Y285933
X102335Y307933
X102335Y312433
X102335Y319933
X102335Y327933
X102335Y332933
X88335Y350933
X87335Y358933
X99335Y356933
X107335Y356433
X125335Y350933
X142335Y345933
X143335Y359933
X151335Y375933
X158335Y375933
X170335Y366933
X179335Y373933
X192335Y358933
X174335Y334933
X193335Y324933
X192335Y316933
X177335Y308933
X152335Y308933
X154335Y292933
X150335Y288933
X132335Y313933
X133335Y323933
X134335Y330933
X161335Y354933
X132335Y380933
X134335Y397933
X138335Y403933
X143335Y399933
X149335Y391933
X128335Y404933
X152634Y416697
X158539Y416697
X164445Y416697
X170350Y416697
X221531Y416697
X227437Y416697
X235311Y416697
X245154Y416697
X254996Y416697
X277650Y416697
X283555Y416697
X289461Y416697
X298303Y416697
X308146Y416697
X317988Y416697
X340610Y416697
X346516Y416697
X352421Y416697
X361295Y416697
X371138Y416697
X380980Y416697
X408539Y416697
X436098Y389138
X436098Y381264
X386335Y343933
X381335Y343933
X376335Y348933
X376335Y353933
X376335Y369433
X376335Y374933
X354335Y384933
X288335Y387933
X282335Y387933
X221335Y403933
X208335Y305933
X203835Y303933
X98335Y373933
X90335Y380933
X73894Y389138
X71335Y380933
X66020Y385201
X56177Y385201
X50272Y389138
X72335Y367933
X70335Y350933
X50272Y334020
X50272Y328114
X50272Y322209
X50272Y316303
X50272Y310398
X50272Y304492
X50272Y280870
X50272Y274965
X50272Y269059
X50272Y249374
X50272Y243469
X50272Y237563
X50272Y231657
X50272Y225752
X50272Y206067
X50272Y182445
X96335Y307933
X87835Y408933
X77831Y416697
T03
X397335Y206933
X397335Y196933
T04
X355185Y199933
X345335Y199933
X335485Y199933
X388835Y316583
X388835Y326433
X388835Y336283
X60413Y176280
X60413Y166280
X60413Y156280
X60413Y146280
T05
X91768Y220063
X91768Y230063
X91768Y240063
X81768Y245063
X81768Y235063
X81768Y225063
X91768Y250063
X81768Y255063
T06
X110783Y259079
X110783Y249079
X110783Y226047
X110783Y216047
X119933Y298933
X373785Y162613
X373785Y123253
X393366Y72091
X413366Y71776
X432885Y123253
X432885Y162613
T07
X387335Y99433
X417335Y92433
X428335Y77776
X428335Y67933
X360335Y130933
X360335Y140933
X360335Y159933
X360335Y169933
X338335Y174433
X338335Y159433
X338335Y144433
X338335Y129433
X294335Y181933
X294335Y201933
X312335Y228933
X322335Y228933
X322335Y238933
X322335Y248933
X322335Y258933
X312335Y258933
X312335Y248933
X312335Y238933
X312335Y268933
X322335Y268933
X322335Y278933
X322335Y288933
X322335Y298933
X312335Y298933
X312335Y288933
X312335Y278933
X308335Y313933
X318335Y313933
X337335Y394933
X347335Y394933
X361335Y394933
X371335Y394933
X366807Y410933
X356965Y410933
X376650Y410933
X386492Y410933
X396335Y410933
X333335Y410783
X323492Y410783
X313650Y410783
X303807Y410783
X293965Y410783
X272335Y393933
X262335Y393933
X260492Y410783
X250650Y410783
X240807Y410783
X230965Y410783
X270335Y410783
X191335Y296933
X181335Y296933
X123335Y368933
X123335Y378933
X180335Y191933
X190335Y191933
X200335Y191933
X210335Y191933
X220335Y191933
X230335Y191933
X240335Y191933
X250335Y191933
X250335Y181933
X240335Y181933
X230335Y181933
X220335Y181933
X210335Y181933
X200335Y181933
X190335Y181933
X180335Y181933
X239335Y120933
X239335Y110933
X239335Y100933
X239335Y90933
X239335Y80933
X239335Y70933
X58335Y82933
X58335Y92933
X58335Y107933
X58335Y117933
T08
X149461Y298933
T09
X150886Y42933
X164665Y42933
X178445Y42933
X192224Y42933
X206004Y42933
X219783Y42933
X239555Y42933
X253335Y42933
X267114Y42933
X287555Y42933
X301335Y42933
X315114Y42933
X335555Y42933
X349335Y42933
X363114Y42933
X383445Y42933
X397224Y42933
X131004Y42933
X117224Y42933
X103445Y42933
X89665Y42933
T10
X68776Y206559
X68776Y268567
T11
X62083Y42681
X424287Y42681
X424287Y404886
X62083Y404886
T12
X56768Y260063
X56768Y215063
M30
