G75*
%MOIN*%
%OFA0B0*%
%FSLAX25Y25*%
%IPPOS*%
%LPD*%
%AMOC8*
5,1,8,0,0,1.08239X$1,22.5*
%
%ADD10R,0.01181X0.03150*%
%ADD11R,0.07874X0.07480*%
%ADD12R,0.03937X0.04331*%
%ADD13R,0.04331X0.07480*%
%ADD14R,0.04331X0.03937*%
%ADD15R,0.05512X0.03937*%
%ADD16R,0.03150X0.03150*%
%ADD17R,0.04803X0.02441*%
%ADD18R,0.08661X0.02362*%
%ADD19R,0.11811X0.09843*%
%ADD20R,0.22835X0.24409*%
%ADD21R,0.06299X0.11811*%
%ADD22R,0.13780X0.09843*%
%ADD23R,0.10039X0.09843*%
%ADD24R,0.05118X0.05906*%
%ADD25R,0.05906X0.05118*%
%ADD26R,0.03937X0.07874*%
%ADD27R,0.06000X0.07000*%
%ADD28R,0.09449X0.09449*%
%ADD29R,0.02600X0.08000*%
%ADD30R,0.08000X0.02600*%
%ADD31R,0.07087X0.05512*%
%ADD32R,0.10800X0.08500*%
%ADD33R,0.09843X0.10039*%
%ADD34R,0.07677X0.05906*%
%ADD35R,0.01181X0.05236*%
%ADD36R,0.24409X0.21260*%
%ADD37R,0.06299X0.03937*%
%ADD38R,0.10039X0.10630*%
%ADD39R,0.09488X0.03583*%
%ADD40R,0.25000X0.22008*%
%ADD41R,0.10630X0.10039*%
%ADD42R,0.21260X0.11417*%
%ADD43R,0.02362X0.04724*%
%ADD44R,0.07480X0.05512*%
%ADD45R,0.07098X0.06299*%
%ADD46R,0.04724X0.02756*%
%ADD47R,0.04724X0.03937*%
%ADD48R,0.03150X0.03937*%
%ADD49R,0.11024X0.03937*%
%ADD50R,0.07480X0.05118*%
%ADD51R,0.09400X0.01772*%
%ADD52R,0.08268X0.05807*%
%ADD53R,0.07480X0.09350*%
%ADD54R,0.01181X0.04724*%
%ADD55R,0.04724X0.01181*%
%ADD56R,0.04724X0.07874*%
%ADD57R,0.07874X0.04724*%
%ADD58R,0.01575X0.05906*%
%ADD59R,0.02362X0.08661*%
%ADD60R,0.09843X0.08661*%
%ADD61R,0.01969X0.07874*%
%ADD62R,0.06299X0.07087*%
%ADD63R,0.03937X0.05512*%
%ADD64R,0.03150X0.03543*%
D10*
X0117484Y0387091D03*
X0119453Y0387091D03*
X0121421Y0387091D03*
X0123390Y0387091D03*
X0125358Y0387091D03*
X0127327Y0387091D03*
X0129295Y0387091D03*
X0131264Y0387091D03*
X0133232Y0387091D03*
X0135201Y0387091D03*
X0137169Y0387091D03*
X0139138Y0387091D03*
X0141106Y0387091D03*
X0143075Y0387091D03*
X0145043Y0387091D03*
X0147012Y0387091D03*
X0148980Y0387091D03*
X0150949Y0387091D03*
X0152917Y0387091D03*
X0154886Y0387091D03*
D11*
X0164531Y0393390D03*
X0107839Y0393390D03*
D12*
X0084988Y0065933D03*
X0091681Y0065933D03*
X0109988Y0065933D03*
X0116681Y0065933D03*
X0132988Y0065933D03*
X0139681Y0065933D03*
X0155335Y0064087D03*
X0162988Y0061433D03*
X0162988Y0068433D03*
X0155335Y0070780D03*
X0169681Y0068433D03*
X0169681Y0061433D03*
X0177335Y0061587D03*
X0183988Y0061433D03*
X0183988Y0068433D03*
X0177335Y0068280D03*
X0190681Y0068433D03*
X0190681Y0061433D03*
X0198335Y0061587D03*
X0198335Y0068280D03*
X0204988Y0068433D03*
X0211681Y0068433D03*
X0211681Y0061433D03*
X0204988Y0061433D03*
X0219488Y0075433D03*
X0226181Y0075433D03*
X0165681Y0131933D03*
X0158988Y0131933D03*
X0158988Y0154933D03*
X0165681Y0154933D03*
X0175335Y0158587D03*
X0175335Y0165280D03*
X0165681Y0171933D03*
X0158988Y0171933D03*
X0145335Y0207587D03*
X0145335Y0214280D03*
X0131681Y0236193D03*
X0124988Y0236193D03*
X0124988Y0245933D03*
X0131681Y0245933D03*
X0131681Y0254933D03*
X0124988Y0254933D03*
X0099681Y0278673D03*
X0092988Y0278673D03*
X0120988Y0312933D03*
X0127681Y0312933D03*
X0127681Y0339933D03*
X0120988Y0339933D03*
X0119681Y0347933D03*
X0112988Y0347933D03*
X0102681Y0380933D03*
X0095988Y0380933D03*
X0083681Y0380933D03*
X0076988Y0380933D03*
X0091988Y0408933D03*
X0098681Y0408933D03*
X0149988Y0364673D03*
X0156681Y0364673D03*
X0156681Y0355193D03*
X0149988Y0355193D03*
X0147988Y0346193D03*
X0154681Y0346193D03*
X0172335Y0374587D03*
X0172335Y0381280D03*
X0224988Y0383933D03*
X0231681Y0383933D03*
X0231681Y0374933D03*
X0224988Y0374933D03*
X0243988Y0390043D03*
X0250681Y0390043D03*
X0232681Y0397823D03*
X0225988Y0397823D03*
X0225988Y0339933D03*
X0232681Y0339933D03*
X0231335Y0327630D03*
X0231335Y0320937D03*
X0213075Y0299280D03*
X0213075Y0292587D03*
X0191681Y0308933D03*
X0184988Y0308933D03*
X0169335Y0306280D03*
X0161335Y0306280D03*
X0161335Y0299587D03*
X0169335Y0299587D03*
X0168335Y0282280D03*
X0168335Y0275587D03*
X0203988Y0247933D03*
X0210681Y0247933D03*
X0189335Y0214280D03*
X0189335Y0207587D03*
X0181335Y0207587D03*
X0181335Y0214280D03*
X0227335Y0167280D03*
X0227335Y0160587D03*
X0266988Y0224933D03*
X0273681Y0224933D03*
X0295988Y0253933D03*
X0302681Y0253933D03*
X0301681Y0300933D03*
X0294988Y0300933D03*
X0267335Y0323736D03*
X0267335Y0330429D03*
X0276335Y0331020D03*
X0276335Y0324327D03*
X0285335Y0324437D03*
X0285335Y0331130D03*
X0315335Y0331130D03*
X0315335Y0324437D03*
X0323484Y0324587D03*
X0323484Y0331280D03*
X0329335Y0359437D03*
X0329335Y0366130D03*
X0336988Y0383933D03*
X0343681Y0383933D03*
X0364988Y0383933D03*
X0371681Y0383933D03*
X0375335Y0342717D03*
X0375335Y0336024D03*
X0417335Y0351587D03*
X0417335Y0358280D03*
X0368335Y0248280D03*
X0368335Y0241587D03*
X0372988Y0190933D03*
X0379681Y0190933D03*
X0114681Y0173933D03*
X0107988Y0173933D03*
X0107988Y0154933D03*
X0114681Y0154933D03*
X0114681Y0130933D03*
X0107988Y0130933D03*
D13*
X0294413Y0327783D03*
X0304256Y0327783D03*
D14*
X0301681Y0291673D03*
X0294988Y0291673D03*
X0301335Y0282280D03*
X0301335Y0275587D03*
X0302941Y0236933D03*
X0296248Y0236933D03*
X0354476Y0235831D03*
X0354476Y0229138D03*
X0365335Y0223780D03*
X0365335Y0217087D03*
X0373335Y0217087D03*
X0373335Y0223780D03*
X0372988Y0182933D03*
X0379681Y0182933D03*
X0267681Y0118933D03*
X0260988Y0118933D03*
X0221335Y0160587D03*
X0215335Y0160587D03*
X0215335Y0167280D03*
X0221335Y0167280D03*
X0181335Y0165280D03*
X0181335Y0158587D03*
X0165681Y0148933D03*
X0158988Y0148933D03*
X0158988Y0125933D03*
X0165681Y0125933D03*
X0145335Y0092280D03*
X0145335Y0085587D03*
X0114681Y0118933D03*
X0107988Y0118933D03*
X0107988Y0144933D03*
X0114681Y0144933D03*
X0114681Y0181933D03*
X0107988Y0181933D03*
X0124988Y0218673D03*
X0131681Y0218673D03*
X0131681Y0226933D03*
X0124988Y0226933D03*
X0144335Y0275587D03*
X0144335Y0282280D03*
X0152335Y0282280D03*
X0152335Y0275587D03*
X0160335Y0275587D03*
X0160335Y0282280D03*
X0193335Y0282280D03*
X0193335Y0275587D03*
X0216488Y0310933D03*
X0216488Y0318933D03*
X0223181Y0318933D03*
X0223181Y0310933D03*
X0170594Y0354587D03*
X0170594Y0361280D03*
X0185335Y0374587D03*
X0185335Y0381280D03*
X0195335Y0381280D03*
X0195335Y0374587D03*
X0205335Y0374587D03*
X0205335Y0381280D03*
X0215335Y0381280D03*
X0215335Y0374587D03*
X0243988Y0397823D03*
X0250681Y0397823D03*
X0282988Y0394783D03*
X0289681Y0394783D03*
X0298988Y0394783D03*
X0305681Y0394783D03*
X0314988Y0394783D03*
X0321681Y0394783D03*
X0425303Y0358280D03*
X0425303Y0351587D03*
X0433303Y0351587D03*
X0433303Y0358280D03*
X0217681Y0233933D03*
X0210988Y0233933D03*
X0165681Y0181933D03*
X0158988Y0181933D03*
X0076681Y0107933D03*
X0069988Y0107933D03*
X0218835Y0068280D03*
X0218835Y0061587D03*
X0226335Y0061587D03*
X0226335Y0068280D03*
X0114681Y0278933D03*
X0107988Y0278933D03*
X0120988Y0321933D03*
X0127681Y0321933D03*
X0147839Y0337933D03*
X0154531Y0337933D03*
X0110335Y0374587D03*
X0110335Y0381280D03*
D15*
X0133004Y0373610D03*
X0141665Y0369870D03*
X0141665Y0377350D03*
X0134665Y0362673D03*
X0126004Y0358933D03*
X0134665Y0355193D03*
X0162004Y0345673D03*
X0162004Y0338193D03*
X0170665Y0341933D03*
X0199504Y0324673D03*
X0208165Y0320933D03*
X0199504Y0317193D03*
X0243004Y0373193D03*
X0251665Y0376933D03*
X0243004Y0380673D03*
X0124004Y0113673D03*
X0124004Y0106193D03*
X0132665Y0109933D03*
D16*
X0365335Y0184480D03*
X0365335Y0190386D03*
X0425303Y0365980D03*
X0425303Y0371886D03*
X0433303Y0371886D03*
X0433303Y0365980D03*
X0118287Y0354933D03*
X0112382Y0354933D03*
X0113335Y0361980D03*
X0113335Y0367886D03*
D17*
X0103492Y0368673D03*
X0103492Y0364933D03*
X0103492Y0361193D03*
X0093177Y0361193D03*
X0093177Y0368673D03*
D18*
X0146874Y0329433D03*
X0146874Y0324433D03*
X0146874Y0319433D03*
X0146874Y0314433D03*
X0173094Y0314433D03*
X0173094Y0319433D03*
X0173094Y0324433D03*
X0173094Y0329433D03*
X0227098Y0351433D03*
X0227098Y0356433D03*
X0227098Y0361433D03*
X0227098Y0366433D03*
X0247571Y0366433D03*
X0247571Y0361433D03*
X0247571Y0356433D03*
X0247571Y0351433D03*
D19*
X0212295Y0349303D03*
X0182374Y0349303D03*
D20*
X0392335Y0382106D03*
D21*
X0400602Y0353839D03*
X0384067Y0353839D03*
D22*
X0369130Y0361902D03*
X0343539Y0361902D03*
D23*
X0410394Y0339433D03*
X0430276Y0339433D03*
X0075276Y0191933D03*
X0055394Y0191933D03*
D24*
X0125854Y0279933D03*
X0133335Y0279933D03*
X0128075Y0330933D03*
X0120594Y0330933D03*
X0103075Y0349933D03*
X0095594Y0349933D03*
X0086075Y0369933D03*
X0078594Y0369933D03*
D25*
X0083185Y0389693D03*
X0083185Y0397173D03*
X0185335Y0325823D03*
X0185335Y0318343D03*
X0182335Y0282673D03*
X0182335Y0275193D03*
X0198335Y0214673D03*
X0198335Y0207193D03*
D26*
X0254335Y0096106D03*
X0264335Y0096106D03*
X0274335Y0096106D03*
X0284335Y0096106D03*
X0297335Y0096106D03*
X0307335Y0096106D03*
X0317335Y0096106D03*
X0327335Y0096106D03*
X0340335Y0096106D03*
X0350335Y0096106D03*
X0360335Y0096106D03*
X0370335Y0096106D03*
X0370335Y0067760D03*
X0360335Y0067760D03*
X0350335Y0067760D03*
X0340335Y0067760D03*
X0327335Y0067760D03*
X0317335Y0067760D03*
X0307335Y0067760D03*
X0297335Y0067760D03*
X0284335Y0067760D03*
X0274335Y0067760D03*
X0264335Y0067760D03*
X0254335Y0067760D03*
D27*
X0225335Y0113683D03*
X0215335Y0113683D03*
X0215335Y0151183D03*
X0225335Y0151183D03*
D28*
X0222335Y0103094D03*
X0204335Y0103094D03*
X0204335Y0085772D03*
X0222335Y0085772D03*
X0186335Y0085772D03*
X0186335Y0103094D03*
X0168335Y0103094D03*
X0168335Y0085772D03*
D29*
X0175335Y0124833D03*
X0180335Y0124833D03*
X0185335Y0124833D03*
X0190335Y0124833D03*
X0195335Y0124833D03*
X0200335Y0124833D03*
X0205335Y0124833D03*
X0205335Y0149033D03*
X0200335Y0149033D03*
X0195335Y0149033D03*
X0190335Y0149033D03*
X0185335Y0149033D03*
X0180335Y0149033D03*
X0175335Y0149033D03*
X0239335Y0159033D03*
X0244335Y0159033D03*
X0249335Y0159033D03*
X0254335Y0159033D03*
X0259335Y0159033D03*
X0264335Y0159033D03*
X0269335Y0159033D03*
X0283335Y0159033D03*
X0288335Y0159033D03*
X0293335Y0159033D03*
X0298335Y0159033D03*
X0303335Y0159033D03*
X0308335Y0159033D03*
X0313335Y0159033D03*
X0313335Y0134833D03*
X0308335Y0134833D03*
X0303335Y0134833D03*
X0298335Y0134833D03*
X0293335Y0134833D03*
X0288335Y0134833D03*
X0283335Y0134833D03*
X0269335Y0134833D03*
X0264335Y0134833D03*
X0259335Y0134833D03*
X0254335Y0134833D03*
X0249335Y0134833D03*
X0244335Y0134833D03*
X0239335Y0134833D03*
D30*
X0148435Y0136433D03*
X0148435Y0131433D03*
X0148435Y0126433D03*
X0148435Y0121433D03*
X0148435Y0144433D03*
X0148435Y0149433D03*
X0148435Y0154433D03*
X0148435Y0159433D03*
X0148435Y0167433D03*
X0148435Y0172433D03*
X0148435Y0177433D03*
X0148435Y0182433D03*
X0124235Y0182433D03*
X0124235Y0177433D03*
X0124235Y0172433D03*
X0124235Y0167433D03*
X0124235Y0159433D03*
X0124235Y0154433D03*
X0124235Y0149433D03*
X0124235Y0144433D03*
X0124235Y0136433D03*
X0124235Y0131433D03*
X0124235Y0126433D03*
X0124235Y0121433D03*
D31*
X0076335Y0118240D03*
X0076335Y0131626D03*
D32*
X0075735Y0097233D03*
X0075835Y0079833D03*
X0093835Y0079833D03*
X0093735Y0097233D03*
X0111735Y0097233D03*
X0111835Y0079833D03*
X0130735Y0097233D03*
X0130835Y0079833D03*
D33*
X0093335Y0108992D03*
X0093335Y0128874D03*
D34*
X0066748Y0129933D03*
X0055921Y0129933D03*
D35*
X0089398Y0144370D03*
X0091366Y0144370D03*
X0093335Y0144370D03*
X0095303Y0144370D03*
X0097272Y0144370D03*
X0097272Y0161496D03*
X0095303Y0161496D03*
X0093335Y0161496D03*
X0091366Y0161496D03*
X0089398Y0161496D03*
D36*
X0416177Y0272933D03*
X0423177Y0192933D03*
D37*
X0394437Y0183957D03*
X0394437Y0201909D03*
X0387437Y0263957D03*
X0387437Y0281909D03*
D38*
X0388835Y0300433D03*
X0404335Y0318933D03*
X0413835Y0300433D03*
X0429335Y0318933D03*
D39*
X0382835Y0248933D03*
X0382835Y0243933D03*
X0382835Y0238933D03*
X0382835Y0233933D03*
X0382835Y0228933D03*
X0382835Y0223933D03*
X0382835Y0218933D03*
D40*
X0419213Y0233933D03*
D41*
X0339398Y0221433D03*
X0339398Y0246433D03*
D42*
X0357335Y0269445D03*
X0357335Y0308421D03*
D43*
X0082831Y0351264D03*
X0079091Y0351264D03*
X0075350Y0351264D03*
X0075350Y0360319D03*
X0079091Y0360319D03*
X0082831Y0360319D03*
D44*
X0154673Y0215657D03*
X0154673Y0206209D03*
X0171996Y0206209D03*
X0171996Y0215657D03*
X0240673Y0321209D03*
X0240673Y0330657D03*
X0257996Y0330657D03*
X0257996Y0321209D03*
D45*
X0339335Y0322335D03*
X0350335Y0322335D03*
X0361335Y0322335D03*
X0361335Y0333531D03*
X0350335Y0333531D03*
X0339335Y0333531D03*
D46*
X0110335Y0332650D03*
X0110335Y0336390D03*
X0110335Y0328319D03*
X0110335Y0323988D03*
X0110335Y0319657D03*
X0110335Y0315327D03*
X0110335Y0310996D03*
X0110335Y0306665D03*
X0110335Y0302335D03*
D47*
X0110335Y0296232D03*
X0093406Y0340130D03*
D48*
X0068996Y0340130D03*
D49*
X0052657Y0340130D03*
D50*
X0050886Y0286980D03*
D51*
X0063583Y0360516D03*
X0063583Y0363016D03*
X0063583Y0365516D03*
X0063583Y0368016D03*
X0063583Y0370516D03*
D52*
X0060083Y0376216D03*
X0060083Y0354816D03*
D53*
X0051083Y0354016D03*
X0051083Y0377016D03*
D54*
X0230713Y0298185D03*
X0232681Y0298185D03*
X0234650Y0298185D03*
X0236618Y0298185D03*
X0238587Y0298185D03*
X0240555Y0298185D03*
X0242524Y0298185D03*
X0244492Y0298185D03*
X0246461Y0298185D03*
X0248429Y0298185D03*
X0250398Y0298185D03*
X0252366Y0298185D03*
X0254335Y0298185D03*
X0256303Y0298185D03*
X0258272Y0298185D03*
X0260240Y0298185D03*
X0262209Y0298185D03*
X0264177Y0298185D03*
X0266146Y0298185D03*
X0268114Y0298185D03*
X0270083Y0298185D03*
X0272051Y0298185D03*
X0274020Y0298185D03*
X0275988Y0298185D03*
X0277957Y0298185D03*
X0277957Y0237161D03*
X0275988Y0237161D03*
X0274020Y0237161D03*
X0272051Y0237161D03*
X0270083Y0237161D03*
X0268114Y0237161D03*
X0266146Y0237161D03*
X0264177Y0237161D03*
X0262209Y0237161D03*
X0260240Y0237161D03*
X0258272Y0237161D03*
X0256303Y0237161D03*
X0254335Y0237161D03*
X0252366Y0237161D03*
X0250398Y0237161D03*
X0248429Y0237161D03*
X0246461Y0237161D03*
X0244492Y0237161D03*
X0242524Y0237161D03*
X0240555Y0237161D03*
X0238587Y0237161D03*
X0236618Y0237161D03*
X0234650Y0237161D03*
X0232681Y0237161D03*
X0230713Y0237161D03*
D55*
X0223823Y0244051D03*
X0223823Y0246020D03*
X0223823Y0247988D03*
X0223823Y0249957D03*
X0223823Y0251925D03*
X0223823Y0253894D03*
X0223823Y0255862D03*
X0223823Y0257831D03*
X0223823Y0259799D03*
X0223823Y0261768D03*
X0223823Y0263736D03*
X0223823Y0265705D03*
X0223823Y0267673D03*
X0223823Y0269642D03*
X0223823Y0271610D03*
X0223823Y0273579D03*
X0223823Y0275547D03*
X0223823Y0277516D03*
X0223823Y0279484D03*
X0223823Y0281453D03*
X0223823Y0283421D03*
X0223823Y0285390D03*
X0223823Y0287358D03*
X0223823Y0289327D03*
X0223823Y0291295D03*
X0284846Y0291295D03*
X0284846Y0289327D03*
X0284846Y0287358D03*
X0284846Y0285390D03*
X0284846Y0283421D03*
X0284846Y0281453D03*
X0284846Y0279484D03*
X0284846Y0277516D03*
X0284846Y0275547D03*
X0284846Y0273579D03*
X0284846Y0271610D03*
X0284846Y0269642D03*
X0284846Y0267673D03*
X0284846Y0265705D03*
X0284846Y0263736D03*
X0284846Y0261768D03*
X0284846Y0259799D03*
X0284846Y0257831D03*
X0284846Y0255862D03*
X0284846Y0253894D03*
X0284846Y0251925D03*
X0284846Y0249957D03*
X0284846Y0247988D03*
X0284846Y0246020D03*
X0284846Y0244051D03*
D56*
X0198335Y0237445D03*
X0198335Y0226421D03*
D57*
X0290823Y0224933D03*
X0301846Y0224933D03*
D58*
X0181969Y0229661D03*
X0179409Y0229661D03*
X0176850Y0229661D03*
X0174291Y0229661D03*
X0171732Y0229661D03*
X0169173Y0229661D03*
X0166614Y0229661D03*
X0164055Y0229661D03*
X0161496Y0229661D03*
X0158937Y0229661D03*
X0156378Y0229661D03*
X0153819Y0229661D03*
X0151260Y0229661D03*
X0148701Y0229661D03*
X0148701Y0258205D03*
X0151260Y0258205D03*
X0153819Y0258205D03*
X0156378Y0258205D03*
X0158937Y0258205D03*
X0161496Y0258205D03*
X0164055Y0258205D03*
X0166614Y0258205D03*
X0169173Y0258205D03*
X0171732Y0258205D03*
X0174291Y0258205D03*
X0176850Y0258205D03*
X0179409Y0258205D03*
X0181969Y0258205D03*
D59*
X0262835Y0344217D03*
X0267835Y0344217D03*
X0272835Y0344217D03*
X0277835Y0344217D03*
X0282835Y0344217D03*
X0287835Y0344217D03*
X0292835Y0344217D03*
X0297835Y0344217D03*
X0302835Y0344217D03*
X0307835Y0344217D03*
X0312835Y0344217D03*
X0317835Y0344217D03*
X0317835Y0379650D03*
X0312835Y0379650D03*
X0307835Y0379650D03*
X0302835Y0379650D03*
X0297835Y0379650D03*
X0292835Y0379650D03*
X0287835Y0379650D03*
X0282835Y0379650D03*
X0277835Y0379650D03*
X0272835Y0379650D03*
X0267835Y0379650D03*
X0262835Y0379650D03*
D60*
X0212476Y0393075D03*
X0212476Y0413941D03*
X0179406Y0413941D03*
X0179406Y0393075D03*
D61*
X0189642Y0392091D03*
X0192791Y0392091D03*
X0195941Y0392091D03*
X0199091Y0392091D03*
X0202240Y0392091D03*
D62*
X0373823Y0201933D03*
X0384846Y0201933D03*
D63*
X0314075Y0123264D03*
X0306594Y0123264D03*
X0300075Y0123264D03*
X0292594Y0123264D03*
X0286075Y0123264D03*
X0278594Y0123264D03*
X0282335Y0114602D03*
X0296335Y0114602D03*
X0310335Y0114602D03*
D64*
X0095335Y0393602D03*
X0099075Y0401870D03*
X0091594Y0401870D03*
M02*
